M48
;Layer_Color=9474304
;FILE_FORMAT=4:4
METRIC,LZ
;TYPE=PLATED
T01F00S00C0.3000
T02F00S00C0.5000
T03F00S00C0.7620
T04F00S00C1.0000
T05F00S00C1.0050
T06F00S00C1.0200
T07F00S00C1.0900
T08F00S00C1.1000
T09F00S00C3.2000
;TYPE=NON_PLATED
T10F00S00C1.0200
%
T01
X-001143Y0002286
X-0009906
X-0008382
X-0006858
X-0005334
X-000381
X-0002286
X-0000762
X0000762
X0002286
X000381
X0005334
X0006858
X0008382
X0009144Y0000762
X000762
X0006096
X0004572
X0003048
X0001524
X0
X-0001524
X-0003048
X-0004572
X-0006096
X-000762
X-0009144
Y000381
X-000762
X-0006096
X-0004572
X-0003048
X-0001524
X0
X0002286Y0005334
X0005334
X-0002286
X-0005334
Y0008382
X-0006858
X-0008382
X-0009906
X-001143
X-0010668Y0006858
X-0012192
X-001143Y0005334
X-0009906
X-0010668Y000381
X-0012192
X-000762Y0006858
X0010668
X0012192
X0013716
X001524
X001143Y0008382
X0009906
Y0002286
X001143
X0012192Y0000762
X0010668
X001524
X0016764
X0018288
X0019812
X0021336
X002286
X0024384
X0025908
X0027432
X0028956
X003048
X0032004
X0033528
X0035052
X0036576
X00381
Y000381
X0039624
X0041148
X0042672
X0044196
X0046482Y0005334
X0048006
X0048768Y000381
X004191Y0002286
X003429
X002667
X0025146
X0023622
X0022098
X0020574
X001905
X0017526
X0023622Y0005334
X0025146
X002667
X004953
X0051054
X0051816Y000381
X005334
X0054102Y0005334
X005715
X0057912Y0006858
X0058674Y0008382
X0061722
X0063246
X0064008Y0006858
X006477Y0005334
X0066294
X0067818
X0069342
X0070866
X007239
X0073914
X0075438
X0076962
X0078486
X008001
X0079248Y0006858
X0077724
X00762
X0074676
X0073152
X0071628
X0070104
X006858
X0069342Y0008382
X0070866
X007239
X0073914
X0075438
X0076962
X0078486
X008001
X0079248Y000381
X0077724
X00762
X0074676
X0073152
X0071628
X0070104
X006858
X0067056
X0067818Y0002286
X0069342
X0070866
X007239
X0073914
X0075438
X0076962
X0078486
X008001
X0077724Y0000762
X00762
X0074676
X0073152
X0071628
X0070104
X006858
X0067056
X0065532
X0066294Y0002286
X006096Y000381
X0061722Y0005334
X005715Y0002286
X0050292Y000381
Y0009906
X0051816
X005334
X0054864
X0056388
Y0012954
X0054864
X0055626Y0014478
X005715
X0056388Y0016002
X0054864
X0055626Y0017526
X005715
X0056388Y001905
X0054864
X005334
X0054102Y0020574
X0055626
X005715
X0056388Y0022098
X0054864
X005334
X0054102Y0023622
X0055626
X0056388Y0025146
X0054864
X0055626Y002667
X0054102
X0052578
X0051054
X004953
X0050292Y0028194
X0051816
X005334
X0054864
X005715Y0029718
Y0032766
X0058674
X0059436Y0031242
X0062484
X0064008
X0065532
X0067056
X006858
X0070104
X0071628
X0073152
X0073914Y0032766
X007239
X0070866
X0069342
X0067818
X0066294
X006477
X0063246
X0061722
X0062484Y003429
X0064008
X0063246Y0035814
X0061722
X0060198
X0058674
X005715
X0055626
X0054102
X0052578
X0051054
X004953
X0050292Y0037338
Y0040386
X0051816
X0052578Y0038862
Y0044958
X0054102
X0055626
X005715
X0058674
X0060198
X0061722
X0063246
X0064008Y0046482
X0065532
X0066294Y0048006
X0067818
X0069342
X0070866
X007239
X0073914
X0074676Y0046482
X00762
X0077724
X0079248
X008001Y0048006
X0078486
Y0044958
X008001
X0079248Y0043434
X0077724
X00762
X0074676
X0073152
X0071628
X0070104
X0070866Y0044958
X007239
X0073914
X0073152Y0046482
X0071628
X007239Y004191
X0073914
X0075438
X0076962
X0078486
X008001
X0079248Y0040386
X0077724
X00762
X0074676
X0073152
X0071628
X006858
X0067818Y004191
X0067056Y0043434
X0066294Y0044958
X0064008Y0043434
X0062484
X006096
X0061722Y004191
X0063246
Y0038862
X0061722
X006096Y003429
X0061722Y0029718
X0063246
X006477
X0066294
X0067818
X0069342
X0070866
X007239
X0073914
X0073152Y0028194
X0071628
X0070104
X006858
X0067056
X0065532
X0064008
X0062484
X0063246Y002667
X006477
X0066294
X0067818
X0069342
X0070866
X007239
X0073914
X0073152Y0025146
X0071628
X0070104
X006858
X0067056
X0065532
X0064008
X0062484
X0063246Y0023622
X006477
X0066294
X0067818
X0069342
X0070866
X007239
X0073914
X0076962
X0078486
X008001
X0079248Y0025146
X0077724
X00762
X0076962Y002667
X0078486
X008001
X0079248Y0028194
X0077724
X00762
X0076962Y0029718
X0078486
X008001
X0079248Y0031242
X0077724
X00762
X0076962Y0032766
X0078486
X008001
X0079248Y003429
X0077724
X00762
X0076962Y0035814
X0078486
X008001
Y0038862
X0076962
X00762Y0037338
X0073914Y0035814
X007239
X0070866
X0069342
X0070104Y0037338
X006858
X0067818Y0038862
X006858Y003429
X0070104
X0071628
X0073152
X0071628Y0022098
X0070104
X006858
X0067056
X0065532
X0064008
X0062484
X0063246Y0020574
X006477
X0066294
X0067818
X0069342
X0070866
X0073152Y001905
X0074676
X00762
X0077724
X0079248
X008001Y0020574
X0078486
X0076962
X0075438
X00762Y0022098
X0077724
X0079248
X008001Y0017526
X0078486
X0076962
X0075438
X0073914
X007239
X0073152Y0016002
X0074676
X00762
X0077724
X0079248
X008001Y0014478
X0078486
X0076962
X0075438
X0073914
X007239
X0070866
X0069342
X0070104Y0016002
X0071628
Y0012954
X0073152
X0074676
X00762
X0077724
X0079248
X008001Y001143
X0078486
X0076962
X0075438
X0073914
X007239
X0070866
X0069342
X0067818
X0066294
X0067056Y0012954
X006858
X0070104
Y0009906
X0071628
X0073152
X0074676
X00762
X0077724
X0079248
X006858
X0067056
X0065532
X0064008
X0062484
X006096
Y0012954
X0062484
X0063246Y0014478
X006477
X0065532Y0016002
X0064008
X0062484
X006096
X0061722Y0017526
X0063246
X006477
X0066294
X0067818
X006858Y001905
X0067056
X0065532
X0064008
X0062484
X0061722Y0020574
X0060198
Y0017526
Y0014478
X0061722
X0059436Y0012954
X0054102Y0014478
Y0017526
X0050292Y001905
X0051054Y0020574
X004953
X0050292Y0022098
Y0012954
X0051054Y001143
X0052578
X004953
Y0032766
X0051054
X0052578
X0054102
X0055626
X0059436Y0025146
X0061722Y002667
Y0023622
X006096Y0046482
X0059436
X0057912
X0056388
X0054864
X005334
X0051816
X0050292
X0051054Y0044958
X004953
X0055626Y0048006
X005715
X0058674
X0060198
X0063246
X006477
X0046482
Y0044958
X0044958
X0043434
X0042672Y0043434
X0040386Y0044958
X003937Y004572
X00381
X00367687Y00449343
X00357994Y00439402
X0032766Y0044958
X0031242
X0029718
X0028194
X002667
X0025146
X0023622
X0022098
X0020574
X001905
X0017526
X0016002
X0016764Y0046482
X0018288
X0019812
X0021336
X002286
X0024384
X0025908
X0027432
X0028956
X003048
X0032004
X0032766Y0048006
X0029718
X0028194
X002667
X0025146
X0023622
X0022098
X0020574
X001905
X0017526
X0016002
X0014478
X0012954
X001524Y0046482
Y0043434
X0016764
X0018288
X0019812
X0021336
X0020574Y004191
X001905
X0017526
X0016002
X0016764Y0040386
X0018288
X0019812
X0021336
X0022098Y0038862
X0023622
X0025146
X0025908Y0040386
X0027432
X0028956
X0029718Y0038862
X0031242
X0032766
X0033528Y0040386
X0035052
X003683Y003937
Y00381
X0036576Y0037338
X0035814Y0035814
X0032766
X0032004Y0037338
Y0040386
X0032766Y004191
X0028194
Y0038862
X0028956Y0037338
X0028194Y0035814
X0025146
X0024384Y0037338
Y0040386
X0025146Y004191
X0020574Y0038862
X001905
X0017526
X0018288Y0037338
X0019812
X0021336
X0020574Y0035814
Y0032766
X0022098
X0023622
X0025146
Y0029718
X002667
X0028194
X0029718
X003048Y002921
X0032004Y0031242
X0028956
X002921Y002667
X002667Y002794
X0025908Y0028194
X0024384
X002286
X0022098Y0029718
X0020574
X001905
X0017526
X0016002
X0014478
X0012954
X001143
X0009906
X0010668Y0031242
X0012192
X0013716
X001524
X0016764
X0018288
X0019812
X0021336
X001905Y0032766
X0017526
X0016002
X0014478
X0012954
X001143
X0009906
X0010668Y003429
X0012192
X0013716
X001524
X0016764
X0018288
X0016002Y0035814
X0014478
X0012954
X001143
X0009906
X0010668Y0037338
X0012192
X0013716
X001524
Y0040386
X0012192
X0010668
X001143Y004191
X0012954
X0012192Y0043434
X0010668
X001143Y0044958
X0009906
X0010668Y0046482
X0009906Y004191
Y0038862
X001143
X0012954
X0013716Y0028194
X001524
X0016764
X0018288
X0019812
Y0025146
X0018288
X0016764
X001524
X0013716
X0012192
X0010668
Y0028194
X0012192
X0014478Y0023622
X001524Y0022098
X0013716
X0014478Y0020574
X0016002
X0017526
X001905
X0020574
X00215689Y00214163
X0019812Y0022098
X001905Y0023622
X0023622
X002286Y0025146
Y001905
Y0016002
X0024384
X0021336
X0019812
X0018288
X0016764
X001524
X0013716
X0012192
X0010668
X001143Y0017526
X0012192Y001905
X0013716
X001524
X0016764
X0018288
X0019812
Y0012954
X0018288
X0016764
X001524
X0013716
X0012192
X0012954Y001143
X0014478
X0016002
X0017526
X001905
X0020574
X0022098
X0023622
X0025146
X002667
X0028194
X0029718
X0031242
X0032766
X003429
X0035814
X0037338
X0038862
X0040386
X004191
X0043434
X0044958
X0046482
X0048006
X0048768Y0012954
X0047244
X004572
X0044196
X0042672
X0041148
X0039624
X00381
X0036576
X0035052
X0033528
X0032004
X003048
X002921Y00127
X0028956Y0009906
X003048
X0032004
X0033528
X0035052
X0036576
X00381
X0039624
X0041148
X0042672
X0044196
X004572
X0047244
X0048768
X0048006Y0014478
X0046482
X0044958Y0017526
X0043434
X004191
X0042672Y001905
X0044196
X004572
X0047244
X0048768
X0048006Y0020574
X0046482
X0044958
X0043434
X004191
X0042672Y0022098
X0044196
X004572
X0047244
X0048768
X0047244Y0025146
X004572
X0044196
X0044958Y002667
X0046482
X0048006
X0048768Y0028194
X0047244
X004572
X0044196
X0042672
X0041148
X0039624
X00381
X0038862Y0029718
X0040386
X004191
X0043434
X0044958
X004572Y003175
X0046482Y0032766
X0048006
Y0035814
X0046482
X0044958
X004445Y003429
X004318
Y003302
X0044958Y0032766
X0042672Y0031242
X0041148
X004191Y002667
X0043434
Y0023622
X0039624Y0022098
X00381
X0036576
X0035052
X0033528
X0032004
X0032766Y0020574
X003429
X0035814
X0037338
X0038862
X0039624Y001905
X00381
X0036576
X0035052
X0033528
X0032004
X0032766Y0017526
X003429
X0035814
X0037338
X0038862
X0036576Y0016002
X0035052
X0033528
X0032004
X0031242Y0017526
X0029718
X0028956Y001905
X0027432
X002921Y002032
X0031242Y0020574
X0035814Y002667
X0037338
X0038862
X0040386
X003937Y003937
X00381
X0040386Y004191
Y0048006
X0043434
X004318Y00381
X004445
X004572
X0047244Y0037338
X0048768
Y0040386
X0047244
X0027432Y0009906
X0025908
X0024384
X002286
X0021336
X0019812
X0018288
X0016764
X001524
X0010668
X001143Y0014478
X0010668Y001905
X001143Y0020574
X0012954
X0009906
X0008382
X0009144Y0022098
X0008382Y0023622
X0009144Y0025146
X0008382Y002667
X0009144Y0028194
X0008382Y0029718
X0006858
X0006096Y0031242
X0004572
X0003048
X0001524
X0002286Y0032766
X0003048Y003429
X0004572
X0006096
X0006858Y0035814
X0008382
X0009144Y0037338
X0008382Y0038862
X0006858
X0005334
X000381
X0002286
X0003048Y0040386
X0004572
X0006096
X0009144
X0008382Y004191
X0009144Y0043434
X000762
X0006096
X0006858Y0044958
X0008382
X0009144Y0046482
X000762
X0006096
X0006858Y0048006
X0008382
X0005334Y0044958
X0002286
X0003048Y0043434
X0001524
X0002286Y004191
X0001524Y0040386
Y0037338
X0003048
X0004572
X0006096
X0005334Y0035814
X000381
X0002286
X0001524Y003429
X-0001524
X-0003048
X-0004572
X-0006096
X-000762
X-0009144
X-0010668
X-0012192
X-001143Y0035814
X-0009906
X-0008382
X-0006858
X-0005334
X-000381
X-0002286
X-0001524Y0037338
X-0003048
X-0004572
X-0006096
X-000762
X-0009144
X-0010668
X-0012192
X-001143Y0038862
X-0009906
X-0008382
X-0006858
X-0005334
X-000381
X-0002286
X-0001524Y0040386
X-0003048
X-0004572
X-0006096
X-000762
X-0009144
X-0010668
X-0012192
Y0043434
X-0010668
X-0009144
X-000762
X-0006096
X-0004572
X-0003048
X-0001524
X-0002286Y0044958
X-000381
X-0005334
X-0006858
X-0008382
X-0009906
X-001143
X-0012192Y0046482
X-000762
X-0006096
X-0004572
X-0003048
X-0001524
X-0000762Y0048006
X0000762
X-0002286
X-000381
X-0005334
X-0006858
X-0008382
Y004191
X-0006858
X-0005334
X-000381
X-0002286
Y0032766
X-000381
X-0005334
X-0006858
X-0006096Y0031242
X-0004572
X-0003048
X-0001524
X-0002286Y0029718
X-000381
X-0005334
X-0006858
X-0008382
X-0009906
X-001143
X-0010668Y0031242
X-0009144
X-000762
Y0028194
X-0006096
X-0004572
X-0003048
X-0000762Y002667
X0000762
X0002286
X000381
X0005334
X0006096Y0025146
X0004572
X0003048
X0001524
X0
X-0001524
X-0000762Y0023622
X0000762
X0002286
X000381
X0005334
X0006096Y0022098
X0004572
X0003048
X0001524
X0
X-0001524
X-0000762Y0020574
X0000762
X0002286
X000381
X0005334
X0006096Y001905
X0005334Y0017526
X000381
X0002286
X0000762
X-0000762
X-0002286
X-0001524Y001905
X0
X0001524
X0003048
Y0016002
X0004572
X0006096
X0009144
X0008382Y0017526
X0009144Y001905
X000762Y0012954
X0006096
X0006858Y001143
X0008382
X0009144Y0009906
X000762
X0006096
X0004572
X0003048
X0001524
X0
Y000889
X-0001524Y0009906
X-0000762Y001143
X0000762
X0002286
X000381
X0005334
X0003048Y0012954
X0001524
X0
X-0001524
X-0000762Y0014478
X0000762
X0002286
X0001524Y0016002
X0
X-0001524
X-0002286Y0014478
Y001143
X-0005334
X-0006858
X-0008382
X-0009906
X-001143
X-0010668Y0009906
X-0009144
X-000762
X-0006096
Y0012954
X-000762
X-0006858Y0014478
X-0005334
X-0006096Y0016002
X-000762
X-0009144
X-0010668
X-0012192
X-001143Y0017526
X-0009906
X-0008382
X-0006858
X-0005334
X-0006096Y001905
X-000762
X-0006858Y0020574
X-0005334
X-0006096Y0022098
X-000762
X-0009144
X-0010668
X-0012192
X-001143Y0023622
X-0009906
X-0008382
X-0006858
X-0005334
X-0006096Y0025146
X-000762
X-0009144
X-0010668
X-0012192
X-001143Y002667
X-0009906
X-0008382
X-0006858
X-0005334
X-0002286Y0023622
Y0020574
X-0008382
X-0009906
X-001143
X-0012192Y001905
X-001143Y0014478
X-0012192Y0012954
Y0009906
Y0028194
Y0031242
X-001143Y0032766
X0002286Y0029718
X000381
X0003048Y0028194
X0001524
X0006858Y0032766
X0008382
X0009144Y003429
Y0031242
X0008382Y0051054
X0006858
X0005334
X000381
X0002286
X0000762
X-0000762
X-0002286
X-000381
X-0005334
X-0006858
X-0008382
X-0009906
X-001143
X-0010668Y004953
X-0009144
X-000762
X-0006096
X-0004572
X-0003048
X-0001524
X0
X0001524
X-0012192
X0009906Y0051054
X001143
X0012954
X0012192Y004953
X0018288
X0019812
X0021336
X002286
X0024384
X0025908
X0027432
X0028956
X0032766Y0051054
X0036576Y004953
X0040386Y0051054
X0043434
X0044196Y004953
X0042672
X0025146Y0051054
X0017526
X004953
X005334Y004953
X0056388
X0057912
X005715Y0051054
X006096Y004953
X0062484
X0064008
X0065532
X0066294Y0051054
X006477
X0075438
X0076962
X0078486
X008001
X0077724Y004953
T02
X005842Y001016
T03
X002794Y000254
X003048
X003302
X003556
X00381
X004064
X004318
X004572
X00508
X005334
X005588
X005842
X006096
X00635
X004826Y00508
X004572
X0041656
X0039116
X0036576
X0034036
X0031496
X0028956
X0026416
X0023876
X0021336
X0018796
X00508
X005334
X005588
X005842
X006096
X00635
T04
X-000885Y000635
X-000635
X-000385
X000389
X000639
X000889
X001782
X002032
X002282
T05
X00762Y004526
Y004826
T06
X002286Y003175
Y003429
Y003683
X002667
Y003429
Y003175
X003048
Y003429
Y003683
X003429
Y003429
Y003175
T07
X004953Y001524
X005207
Y002413
X004953
X004064
X00381
Y001524
X004064
T08
X005842Y001397
Y001651
Y001905
Y002159
Y002413
Y002667
Y002921
T09
X001397Y000254
X006604Y000762
Y003556
X001524Y00508
T10
X00732Y00492
X00792
M30
