G04*
G04 #@! TF.GenerationSoftware,Altium Limited,Altium Designer,25.2.1 (25)*
G04*
G04 Layer_Physical_Order=1*
G04 Layer_Color=255*
%FSLAX44Y44*%
%MOMM*%
G71*
G04*
G04 #@! TF.SameCoordinates,3C1D010B-D615-4C1A-A092-7D16AA53BB1E*
G04*
G04*
G04 #@! TF.FilePolarity,Positive*
G04*
G01*
G75*
%ADD15R,2.0000X1.5000*%
%ADD16R,0.6000X1.2500*%
%ADD17R,0.9000X1.1000*%
%ADD18R,0.8549X0.9062*%
%ADD19R,0.6000X0.8000*%
%ADD20R,2.6200X3.5100*%
%ADD21R,1.6000X0.6100*%
%ADD22R,0.8500X0.7500*%
%ADD23R,1.5200X2.1800*%
%ADD24R,1.3200X3.4300*%
%ADD25R,2.7430X2.1590*%
%ADD38R,1.6900X1.6900*%
%ADD39C,1.6900*%
%ADD45C,0.2032*%
%ADD46C,0.5080*%
%ADD47C,1.0160*%
%ADD48C,1.7780*%
%ADD49C,1.5000*%
%ADD50R,1.5050X1.5050*%
%ADD51C,1.5050*%
%ADD52C,1.0200*%
%ADD53C,1.6000*%
G04:AMPARAMS|DCode=54|XSize=1.6mm|YSize=1.6mm|CornerRadius=0.4mm|HoleSize=0mm|Usage=FLASHONLY|Rotation=270.000|XOffset=0mm|YOffset=0mm|HoleType=Round|Shape=RoundedRectangle|*
%AMROUNDEDRECTD54*
21,1,1.6000,0.8000,0,0,270.0*
21,1,0.8000,1.6000,0,0,270.0*
1,1,0.8000,-0.4000,-0.4000*
1,1,0.8000,-0.4000,0.4000*
1,1,0.8000,0.4000,0.4000*
1,1,0.8000,0.4000,-0.4000*
%
%ADD54ROUNDEDRECTD54*%
%ADD55R,1.5500X1.5500*%
%ADD56C,1.5500*%
%ADD57R,1.5240X1.5240*%
%ADD58C,1.5240*%
%ADD59C,3.2000*%
%ADD60C,0.5000*%
%ADD61C,0.8000*%
G36*
X648700Y387250D02*
X659203D01*
X659969Y385402D01*
X652258Y377691D01*
X613781D01*
X613781Y377691D01*
X612604Y377457D01*
X611607Y376790D01*
X611607Y376790D01*
X606475Y371659D01*
X554500D01*
Y373909D01*
X556400Y374150D01*
X556500Y374150D01*
X586600D01*
Y382059D01*
X588500Y382300D01*
X588600Y382300D01*
X608500D01*
X608500Y392400D01*
X610289Y392909D01*
X624410D01*
X624410Y392909D01*
X626258Y393152D01*
X627980Y393866D01*
X629459Y395000D01*
X633718Y399259D01*
X648700D01*
Y387250D01*
D02*
G37*
G36*
X364471Y446194D02*
X364918Y445747D01*
Y396682D01*
X364485Y396249D01*
X363800Y394595D01*
Y393549D01*
X361959Y392435D01*
X361952Y392434D01*
X361069Y393095D01*
Y436113D01*
X361809Y436853D01*
X362494Y438507D01*
Y440297D01*
X361809Y441951D01*
X360543Y443217D01*
X360231Y444782D01*
X361980Y446531D01*
X364471Y446194D01*
D02*
G37*
G36*
X534500Y407700D02*
X554400D01*
X554500Y407700D01*
X556400Y407459D01*
Y392641D01*
X554500Y392400D01*
X554400Y392400D01*
X534500D01*
Y382300D01*
X554400D01*
X554500Y382300D01*
X556400Y382059D01*
Y379941D01*
X554500Y379700D01*
X554400Y379700D01*
X534500D01*
Y371659D01*
X527871D01*
X510840Y388690D01*
X509842Y389357D01*
X508665Y389591D01*
X508665Y389591D01*
X431898D01*
X431133Y391439D01*
X455400Y415706D01*
X534500D01*
Y407700D01*
D02*
G37*
G36*
X585808Y304065D02*
X585043Y302218D01*
X580200D01*
X577859Y301752D01*
X575874Y300426D01*
X574548Y298441D01*
X574082Y296100D01*
Y288100D01*
X574548Y285759D01*
X575874Y283774D01*
X577859Y282448D01*
X580200Y281982D01*
X588200D01*
X590141Y282369D01*
X592141Y281295D01*
Y278990D01*
X588763Y275612D01*
X588060Y276019D01*
X585517Y276700D01*
X582883D01*
X580340Y276019D01*
X578060Y274702D01*
X576198Y272840D01*
X574882Y270560D01*
X574644Y269672D01*
X572644Y269935D01*
Y280141D01*
X572644Y280141D01*
X572410Y281318D01*
X571743Y282316D01*
X559784Y294274D01*
X558787Y294941D01*
X557610Y295175D01*
X557610Y295175D01*
X471174D01*
X454954Y311395D01*
X456087Y313090D01*
X456305Y313000D01*
X458095D01*
X459749Y313685D01*
X460489Y314425D01*
X575448D01*
X585808Y304065D01*
D02*
G37*
G36*
X432260Y375938D02*
X433043Y373892D01*
X341626Y282475D01*
X269989D01*
X269249Y283215D01*
X267595Y283900D01*
X265805D01*
X264151Y283215D01*
X262885Y281949D01*
X262200Y280295D01*
Y278505D01*
X260745Y276791D01*
X215986D01*
X215220Y278639D01*
X254950Y318368D01*
X256950Y317540D01*
Y316216D01*
X257614Y313737D01*
X258898Y311513D01*
X260713Y309698D01*
X262937Y308414D01*
X265200Y307808D01*
Y317500D01*
X266700D01*
Y319000D01*
X276392D01*
X275786Y321263D01*
X274502Y323487D01*
X273480Y324509D01*
X274308Y326509D01*
X297192D01*
X298020Y324509D01*
X296998Y323487D01*
X295714Y321263D01*
X295108Y319000D01*
X304800D01*
X314492D01*
X313885Y321263D01*
X312602Y323487D01*
X311580Y324509D01*
X312408Y326509D01*
X335292D01*
X336120Y324509D01*
X335098Y323487D01*
X333815Y321263D01*
X333208Y319000D01*
X342900D01*
X352592D01*
X351986Y321263D01*
X350702Y323487D01*
X349680Y324509D01*
X350508Y326509D01*
X370131D01*
X370816Y325427D01*
X371005Y324554D01*
X341626Y295175D01*
X308089D01*
X307349Y295915D01*
X305695Y296600D01*
X303905D01*
X302251Y295915D01*
X300985Y294649D01*
X300300Y292995D01*
Y291205D01*
X300985Y289551D01*
X302251Y288285D01*
X303905Y287600D01*
X305695D01*
X307349Y288285D01*
X308089Y289025D01*
X342900D01*
X342900Y289025D01*
X344077Y289259D01*
X345074Y289926D01*
X431147Y375998D01*
X432260Y375938D01*
D02*
G37*
G36*
X29400Y472701D02*
Y460400D01*
X38325D01*
Y441665D01*
X38325Y441665D01*
X38559Y440489D01*
X39226Y439491D01*
X47469Y431248D01*
X46703Y429400D01*
X42900D01*
Y421400D01*
X53400D01*
Y422703D01*
X55248Y423469D01*
X73125Y405592D01*
Y281502D01*
X71277Y280737D01*
X58159Y293855D01*
Y323316D01*
X58159Y323316D01*
X58100Y323613D01*
Y339300D01*
X34100D01*
Y320300D01*
X52009D01*
Y292581D01*
X52009Y292581D01*
X52243Y291404D01*
X52313Y291300D01*
X51244Y289300D01*
X47600D01*
Y281300D01*
X58100D01*
Y282603D01*
X59948Y283369D01*
X69093Y274223D01*
Y176569D01*
X67245Y175804D01*
X58100Y184949D01*
Y199600D01*
X34100D01*
Y180600D01*
X53751D01*
X65061Y169290D01*
Y150695D01*
X65061Y150695D01*
X65295Y149518D01*
X65962Y148520D01*
X132755Y81727D01*
X131989Y79879D01*
X97607D01*
X86412Y91074D01*
X85414Y91741D01*
X84237Y91975D01*
X84237Y91975D01*
X3289D01*
X2549Y92715D01*
X895Y93400D01*
X-895D01*
X-2549Y92715D01*
X-3815Y91449D01*
X-4500Y89795D01*
Y88005D01*
X-3815Y86351D01*
X-2549Y85085D01*
X-895Y84400D01*
X895D01*
X2549Y85085D01*
X3289Y85825D01*
X82964D01*
X94159Y74630D01*
X94159Y74630D01*
X95157Y73963D01*
X96334Y73729D01*
X96334Y73729D01*
X172917D01*
X173453Y71729D01*
X172367Y71102D01*
X170598Y69333D01*
X169347Y67167D01*
X168767Y65000D01*
X178200D01*
Y62000D01*
X168767D01*
X169347Y59833D01*
X170372Y58059D01*
X169658Y56059D01*
X163181D01*
X156458Y62782D01*
X155460Y63449D01*
X154284Y63683D01*
X154284Y63683D01*
X125117D01*
X125116Y63683D01*
X123940Y63449D01*
X122942Y62782D01*
X122942Y62782D01*
X116219Y56059D01*
X100690D01*
X97446Y59303D01*
X97753Y59833D01*
X98400Y62249D01*
Y64751D01*
X97753Y67167D01*
X96502Y69333D01*
X94733Y71102D01*
X92567Y72353D01*
X90151Y73000D01*
X87649D01*
X85233Y72353D01*
X83067Y71102D01*
X81298Y69333D01*
X80865Y68584D01*
X78366Y68255D01*
X70430Y76190D01*
X69433Y76857D01*
X68256Y77091D01*
X68256Y77091D01*
X10516D01*
X10516Y77091D01*
X9339Y76857D01*
X8342Y76190D01*
X-1274Y66575D01*
X-4426D01*
X-6400Y68549D01*
X-7879Y69684D01*
X-9601Y70398D01*
X-11450Y70641D01*
X-11450Y70641D01*
X-30959D01*
Y251042D01*
X5049Y287050D01*
X5049Y287050D01*
X6184Y288529D01*
X6898Y290252D01*
X7141Y292100D01*
Y453055D01*
X27552Y473466D01*
X29400Y472701D01*
D02*
G37*
G36*
X132559Y448290D02*
Y401801D01*
X132559Y401801D01*
X132802Y399953D01*
X133516Y398231D01*
X134650Y396752D01*
X193552Y337851D01*
X193552Y337850D01*
X195031Y336716D01*
X196753Y336002D01*
X198601Y335759D01*
X220353D01*
X220833Y335133D01*
X223108Y333388D01*
X225757Y332290D01*
X228600Y331916D01*
X256971D01*
X257800Y329916D01*
X202710Y274826D01*
X202043Y273828D01*
X201819Y272700D01*
X197900D01*
Y269775D01*
X177631D01*
Y273231D01*
X152569D01*
Y269775D01*
X127100D01*
Y274200D01*
X114100D01*
Y259200D01*
X127100D01*
Y263625D01*
X152569D01*
Y260169D01*
X177631D01*
Y263625D01*
X197900D01*
Y260700D01*
X206809D01*
Y258025D01*
X206809Y258025D01*
X207043Y256848D01*
X207710Y255850D01*
X219325Y244235D01*
Y234600D01*
X217400D01*
Y227268D01*
X215463Y226409D01*
X214400Y227257D01*
Y234600D01*
X204400D01*
Y231675D01*
X181588D01*
Y235131D01*
X156525D01*
Y231675D01*
X128000D01*
Y236100D01*
X115000D01*
Y221100D01*
X128000D01*
Y225525D01*
X156525D01*
Y222069D01*
X181588D01*
Y225525D01*
X204400D01*
Y222600D01*
X210051D01*
X212810Y219841D01*
X212493Y217330D01*
X211874Y216712D01*
X211189Y215058D01*
Y213268D01*
X211874Y211614D01*
X212614Y210874D01*
Y191985D01*
X207226Y186596D01*
X206559Y185598D01*
X206325Y184422D01*
X204518Y183800D01*
X204400D01*
Y180875D01*
X184074D01*
Y184331D01*
X159012D01*
Y180875D01*
X130300D01*
Y185300D01*
X117300D01*
Y170300D01*
X130300D01*
Y174725D01*
X159012D01*
Y171269D01*
X184074D01*
Y174725D01*
X204400D01*
Y171800D01*
X214400D01*
Y183800D01*
X214400D01*
X214027Y184700D01*
X217864Y188536D01*
X218530Y189534D01*
X218764Y190711D01*
X218764Y190711D01*
Y210874D01*
X219504Y211614D01*
X220783Y211868D01*
X231625Y201026D01*
X231625Y201026D01*
X232623Y200359D01*
X233800Y200125D01*
X288811D01*
X289551Y199385D01*
X291205Y198700D01*
X292995D01*
X294649Y199385D01*
X295915Y200651D01*
X296600Y202305D01*
Y204095D01*
X295915Y205749D01*
X294649Y207015D01*
X292995Y207700D01*
X291205D01*
X289551Y207015D01*
X288811Y206275D01*
X235074D01*
X224126Y217223D01*
X224046Y217624D01*
X223380Y218622D01*
X223380Y218622D01*
X221402Y220600D01*
X222230Y222600D01*
X227400D01*
Y234600D01*
X225475D01*
Y245508D01*
X225475Y245509D01*
X225241Y246685D01*
X224574Y247683D01*
X224574Y247683D01*
X213557Y258700D01*
X214386Y260700D01*
X220900D01*
Y263625D01*
X251174D01*
X252200Y262050D01*
Y252096D01*
X246387Y246283D01*
X245383Y244781D01*
X245031Y243010D01*
X245031Y243010D01*
Y220670D01*
X245031Y220669D01*
X245383Y218898D01*
X246387Y217396D01*
X253078Y210705D01*
X253078Y210705D01*
X254580Y209701D01*
X256352Y209349D01*
X256352Y209349D01*
X282750D01*
X282751Y209349D01*
X284522Y209701D01*
X286024Y210705D01*
X288700Y213381D01*
X303415D01*
X303416Y213381D01*
X305187Y213733D01*
X306689Y214737D01*
X328623Y236671D01*
X371606D01*
X372638Y234884D01*
X374584Y232938D01*
X376967Y231562D01*
X379624Y230850D01*
X382376D01*
X385033Y231562D01*
X387416Y232938D01*
X389362Y234884D01*
X390738Y237267D01*
X391450Y239924D01*
Y242676D01*
X390738Y245333D01*
X389362Y247716D01*
X387777Y249301D01*
X389052Y250855D01*
X390311Y250013D01*
X392083Y249661D01*
X395950D01*
Y230850D01*
X399259D01*
Y162850D01*
X395950D01*
Y144039D01*
X390031D01*
X389265Y145887D01*
X389362Y145984D01*
X390738Y148366D01*
X391450Y151024D01*
Y153776D01*
X390738Y156433D01*
X389362Y158816D01*
X387416Y160762D01*
X385033Y162138D01*
X382376Y162850D01*
X379624D01*
X376967Y162138D01*
X374584Y160762D01*
X372638Y158816D01*
X371606Y157029D01*
X293988D01*
X284354Y166663D01*
X282852Y167667D01*
X282252Y167786D01*
X281200Y169350D01*
X281200Y169879D01*
Y176100D01*
X276200D01*
Y177600D01*
X274700D01*
Y185850D01*
X266814D01*
X263624Y189040D01*
X262626Y189707D01*
X261449Y189941D01*
X261449Y189941D01*
X247450D01*
X247450Y189941D01*
X246273Y189707D01*
X245275Y189040D01*
X245275Y189040D01*
X237110Y180875D01*
X227400D01*
Y183800D01*
X217400D01*
Y171800D01*
X227400D01*
Y174725D01*
X238384D01*
X238384Y174725D01*
X239560Y174959D01*
X240558Y175626D01*
X248723Y183791D01*
X252200D01*
Y169350D01*
X253353D01*
X253383Y169198D01*
X254387Y167696D01*
X259385Y162698D01*
X258700Y161043D01*
Y152600D01*
X257200D01*
Y151100D01*
X252200D01*
Y144350D01*
X251174Y142775D01*
X227400D01*
Y145700D01*
X217400D01*
Y138368D01*
X215463Y137509D01*
X214400Y138357D01*
Y145700D01*
X204400D01*
Y142775D01*
X183888D01*
Y146231D01*
X158826D01*
Y142775D01*
X130300D01*
Y147200D01*
X117300D01*
Y132200D01*
X130300D01*
Y136625D01*
X158826D01*
Y133169D01*
X183888D01*
Y136625D01*
X204400D01*
Y133700D01*
X210051D01*
X218925Y124826D01*
X218925Y124826D01*
X219923Y124159D01*
X221100Y123925D01*
X221100Y123925D01*
X288811D01*
X289551Y123185D01*
X291205Y122500D01*
X292995D01*
X294649Y123185D01*
X295915Y124451D01*
X296600Y126105D01*
Y127895D01*
X295915Y129549D01*
X294649Y130815D01*
X292995Y131500D01*
X291205D01*
X289551Y130815D01*
X288811Y130075D01*
X222374D01*
X220597Y131852D01*
X221362Y133700D01*
X227400D01*
Y136625D01*
X257815D01*
X257815Y136625D01*
X258992Y136859D01*
X259990Y137526D01*
X266814Y144350D01*
X274654D01*
X282867Y136137D01*
X282867Y136137D01*
X284369Y135133D01*
X286140Y134781D01*
X286140Y134781D01*
X448601D01*
X448601Y134781D01*
X450373Y135133D01*
X451874Y136137D01*
X463508Y147771D01*
X485906D01*
X486938Y145984D01*
X488884Y144038D01*
X491267Y142662D01*
X493924Y141950D01*
X496676D01*
X499333Y142662D01*
X501716Y144038D01*
X503662Y145984D01*
X505038Y148366D01*
X505750Y151024D01*
Y153776D01*
X505513Y154659D01*
X507306Y155695D01*
X510250Y152751D01*
Y141950D01*
X516275D01*
Y136984D01*
X516275Y136984D01*
X516519Y135135D01*
X517232Y133413D01*
X518367Y131934D01*
X541050Y109251D01*
X541050Y109250D01*
X542529Y108116D01*
X544252Y107402D01*
X546100Y107159D01*
X546100Y107159D01*
X577020D01*
X578016Y105170D01*
X577302Y103448D01*
X577059Y101600D01*
X577302Y99752D01*
X578016Y98029D01*
X579151Y96551D01*
X638900Y36801D01*
X638839Y36401D01*
X636592Y34933D01*
X636267Y35020D01*
X633733D01*
X631287Y34364D01*
X630715Y34034D01*
X580985Y83763D01*
X579988Y84430D01*
X578811Y84664D01*
X578811Y84664D01*
X560387D01*
X553977Y91074D01*
X552979Y91741D01*
X551802Y91975D01*
X551802Y91975D01*
X241754D01*
X241411Y92318D01*
X240413Y92985D01*
X239236Y93219D01*
X239236Y93219D01*
X217164D01*
X217164Y93219D01*
X215987Y92985D01*
X214989Y92318D01*
X214989Y92318D01*
X214646Y91975D01*
X142608D01*
X104231Y130352D01*
X104997Y132200D01*
X111300D01*
Y138200D01*
X104800D01*
Y139700D01*
X103300D01*
Y147200D01*
X98300D01*
Y138897D01*
X96452Y138131D01*
X79275Y155309D01*
Y406865D01*
X79275Y406865D01*
X79041Y408042D01*
X78374Y409040D01*
X44475Y442939D01*
Y460400D01*
X53400D01*
Y479400D01*
X36100D01*
X35334Y481248D01*
X42245Y488159D01*
X92690D01*
X132559Y448290D01*
D02*
G37*
G36*
X374223Y249301D02*
X372638Y247716D01*
X371606Y245929D01*
X326706D01*
X324934Y245577D01*
X323432Y244573D01*
X323432Y244573D01*
X301498Y222639D01*
X286783D01*
X285011Y222287D01*
X283509Y221283D01*
X283509Y221283D01*
X283200Y220974D01*
X281200Y221802D01*
Y230504D01*
X300357Y249661D01*
X369917D01*
X369917Y249661D01*
X371689Y250013D01*
X372948Y250855D01*
X374223Y249301D01*
D02*
G37*
G36*
X288797Y149127D02*
X288797Y149127D01*
X290299Y148123D01*
X292071Y147771D01*
X292071Y147771D01*
X371606D01*
X372638Y145984D01*
X372735Y145887D01*
X371969Y144039D01*
X288057D01*
X281200Y150896D01*
Y154111D01*
X283048Y154876D01*
X288797Y149127D01*
D02*
G37*
G36*
X812800Y508000D02*
Y25400D01*
X787400Y0D01*
X643283D01*
X642877Y558D01*
X642488Y2000D01*
X654749Y14261D01*
X654750Y14262D01*
X655884Y15741D01*
X656598Y17463D01*
X656841Y19311D01*
X656841Y19311D01*
Y36100D01*
X656841Y36100D01*
X656598Y37948D01*
X655884Y39671D01*
X654750Y41150D01*
X654749Y41150D01*
X590740Y105159D01*
X591569Y107159D01*
X635000D01*
X635000Y107159D01*
X636848Y107402D01*
X638571Y108116D01*
X640050Y109250D01*
X754350Y223550D01*
X755484Y225030D01*
X756198Y226752D01*
X756441Y228600D01*
X756441Y228600D01*
Y368100D01*
X758900D01*
Y393900D01*
X739700D01*
Y388141D01*
X716308D01*
X707100Y397349D01*
Y425550D01*
X699999D01*
X692941Y432608D01*
Y447705D01*
X701515D01*
Y473295D01*
X670085D01*
Y447705D01*
X678659D01*
Y429650D01*
X678659Y429650D01*
X678902Y427802D01*
X679616Y426079D01*
X680751Y424600D01*
X689900Y415451D01*
Y387250D01*
X697001D01*
X708300Y375951D01*
X708300Y375951D01*
X709780Y374816D01*
X711502Y374102D01*
X713350Y373859D01*
X739700D01*
Y368100D01*
X742159D01*
Y231558D01*
X632042Y121441D01*
X549058D01*
X530557Y139942D01*
Y141950D01*
X531150D01*
Y162850D01*
X527841D01*
Y230850D01*
X531150D01*
Y251750D01*
X510250D01*
Y230850D01*
X513559D01*
Y172253D01*
X511711Y171488D01*
X510219Y172980D01*
X508741Y174114D01*
X507018Y174828D01*
X505170Y175071D01*
X505170Y175071D01*
X463517D01*
X463516Y175071D01*
X461668Y174828D01*
X459946Y174114D01*
X458467Y172980D01*
X458467Y172979D01*
X445028Y159541D01*
X416850D01*
Y162850D01*
X413541D01*
Y230850D01*
X416850D01*
Y249661D01*
X425448D01*
X437082Y238027D01*
X437082Y238027D01*
X438584Y237023D01*
X440355Y236671D01*
X440356Y236671D01*
X485906D01*
X486938Y234884D01*
X488884Y232938D01*
X491267Y231562D01*
X493924Y230850D01*
X496676D01*
X499333Y231562D01*
X501716Y232938D01*
X503662Y234884D01*
X505038Y237267D01*
X505750Y239924D01*
Y242676D01*
X505038Y245333D01*
X503662Y247716D01*
X501716Y249662D01*
X499333Y251038D01*
X496676Y251750D01*
X493924D01*
X491267Y251038D01*
X488884Y249662D01*
X486938Y247716D01*
X485906Y245929D01*
X442273D01*
X430639Y257563D01*
X429137Y258567D01*
X427365Y258919D01*
X427365Y258919D01*
X394000D01*
X391324Y261595D01*
X389822Y262599D01*
X388051Y262951D01*
X388051Y262951D01*
X373949D01*
X372178Y262599D01*
X370676Y261595D01*
X370676Y261595D01*
X368000Y258919D01*
X298440D01*
X296669Y258567D01*
X295167Y257563D01*
X295167Y257563D01*
X287139Y249535D01*
X285291Y250301D01*
Y261299D01*
X285291Y261299D01*
X285057Y262476D01*
X284390Y263474D01*
X273539Y274325D01*
X274368Y276325D01*
X342900D01*
X342900Y276325D01*
X344077Y276559D01*
X345074Y277226D01*
X443847Y375998D01*
X444960Y375937D01*
X445743Y373892D01*
X341626Y269775D01*
X295389D01*
X294649Y270515D01*
X292995Y271200D01*
X291205D01*
X289551Y270515D01*
X288285Y269249D01*
X287600Y267595D01*
Y265805D01*
X288285Y264151D01*
X289551Y262885D01*
X291205Y262200D01*
X292995D01*
X294649Y262885D01*
X295389Y263625D01*
X342900D01*
X342900Y263625D01*
X344077Y263859D01*
X345074Y264526D01*
X425695Y345146D01*
X427390Y344013D01*
X427300Y343795D01*
Y342005D01*
X427985Y340351D01*
X429251Y339085D01*
X430905Y338400D01*
X432695D01*
X434349Y339085D01*
X434521Y339257D01*
X435993D01*
X440041Y335210D01*
X440041Y335210D01*
X441038Y334543D01*
X442215Y334309D01*
X442215Y334309D01*
X592472D01*
X602493Y324288D01*
Y244375D01*
X593729D01*
X593518Y245160D01*
X592202Y247440D01*
X590340Y249302D01*
X588060Y250618D01*
X585517Y251300D01*
X582883D01*
X580340Y250618D01*
X578060Y249302D01*
X576198Y247440D01*
X574882Y245160D01*
X574644Y244272D01*
X572644Y244535D01*
Y263465D01*
X574644Y263728D01*
X574882Y262840D01*
X576198Y260560D01*
X578060Y258698D01*
X580340Y257381D01*
X582883Y256700D01*
X585517D01*
X588060Y257381D01*
X590340Y258698D01*
X592202Y260560D01*
X593518Y262840D01*
X594200Y265383D01*
Y268016D01*
X593518Y270560D01*
X593112Y271263D01*
X597390Y275541D01*
X597390Y275542D01*
X598057Y276539D01*
X598291Y277716D01*
X598291Y277716D01*
Y299006D01*
X598291Y299006D01*
X598057Y300183D01*
X597390Y301181D01*
X578897Y319674D01*
X577899Y320341D01*
X576722Y320575D01*
X576722Y320575D01*
X460489D01*
X459749Y321315D01*
X458095Y322000D01*
X456305D01*
X454651Y321315D01*
X453385Y320049D01*
X452700Y318395D01*
Y316605D01*
X452790Y316387D01*
X451095Y315254D01*
X436300Y330049D01*
Y331095D01*
X435615Y332749D01*
X434349Y334015D01*
X432695Y334700D01*
X430905D01*
X429251Y334015D01*
X427985Y332749D01*
X427300Y331095D01*
Y329305D01*
X427985Y327651D01*
X429251Y326385D01*
X430905Y325700D01*
X431951D01*
X467725Y289926D01*
X467726Y289926D01*
X468723Y289259D01*
X469900Y289025D01*
X556336D01*
X566493Y278867D01*
Y230532D01*
X566493Y230532D01*
X566727Y229355D01*
X567394Y228357D01*
X575288Y220463D01*
X574882Y219760D01*
X574200Y217216D01*
Y214583D01*
X574882Y212040D01*
X576198Y209760D01*
X578060Y207898D01*
X580340Y206581D01*
X582883Y205900D01*
X585517D01*
X588060Y206581D01*
X590340Y207898D01*
X592202Y209760D01*
X593518Y212040D01*
X594200Y214583D01*
Y217216D01*
X593518Y219760D01*
X592202Y222040D01*
X590340Y223902D01*
X588060Y225219D01*
X585517Y225900D01*
X582883D01*
X580340Y225219D01*
X579637Y224812D01*
X572644Y231805D01*
Y238065D01*
X574644Y238328D01*
X574882Y237440D01*
X576198Y235160D01*
X578060Y233298D01*
X580340Y231982D01*
X582883Y231300D01*
X585517D01*
X588060Y231982D01*
X590340Y233298D01*
X592202Y235160D01*
X593518Y237440D01*
X593729Y238225D01*
X604378D01*
X604378Y238225D01*
X604525Y238254D01*
X606525Y236885D01*
Y193575D01*
X593729D01*
X593518Y194360D01*
X592202Y196640D01*
X590340Y198502D01*
X588060Y199818D01*
X585517Y200500D01*
X582883D01*
X580340Y199818D01*
X578060Y198502D01*
X576198Y196640D01*
X574882Y194360D01*
X574200Y191817D01*
Y189184D01*
X574882Y186640D01*
X576198Y184360D01*
X578060Y182498D01*
X580340Y181182D01*
X582883Y180500D01*
X585517D01*
X588060Y181182D01*
X590340Y182498D01*
X592202Y184360D01*
X593518Y186640D01*
X593729Y187425D01*
X608410D01*
X608410Y187425D01*
X609586Y187659D01*
X610584Y188326D01*
X611774Y189516D01*
X611774Y189516D01*
X612441Y190513D01*
X612675Y191690D01*
Y330200D01*
X612675Y330200D01*
X612441Y331377D01*
X611774Y332374D01*
X611774Y332374D01*
X599074Y345074D01*
X598077Y345741D01*
X596900Y345975D01*
X596900Y345975D01*
X447789D01*
X447049Y346715D01*
X445395Y347400D01*
X443605D01*
X441951Y346715D01*
X441006Y345770D01*
X440595Y345438D01*
X438444Y345173D01*
X437267Y345407D01*
X437267Y345407D01*
X435632D01*
X435615Y345449D01*
X434349Y346715D01*
X432695Y347400D01*
X430905D01*
X430687Y347310D01*
X429554Y349005D01*
X457049Y376500D01*
X458095D01*
X459749Y377185D01*
X461015Y378451D01*
X461700Y380105D01*
Y381895D01*
X462733Y383441D01*
X507392D01*
X524423Y366410D01*
X524423Y366410D01*
X525421Y365743D01*
X526597Y365509D01*
X607749D01*
X607749Y365509D01*
X608926Y365743D01*
X609924Y366410D01*
X615055Y371541D01*
X648413D01*
X648871Y370032D01*
X648885Y369541D01*
X646419Y367074D01*
X644449Y364126D01*
X643092Y360850D01*
X642400Y357373D01*
Y353827D01*
X643092Y350350D01*
X644449Y347074D01*
X646419Y344126D01*
X648926Y341618D01*
X651874Y339649D01*
X655150Y338292D01*
X658627Y337600D01*
X662173D01*
X665650Y338292D01*
X668926Y339649D01*
X671874Y341618D01*
X674381Y344126D01*
X676351Y347074D01*
X677708Y350350D01*
X678400Y353827D01*
Y357373D01*
X677708Y360850D01*
X676351Y364126D01*
X674381Y367074D01*
X671874Y369581D01*
X668926Y371551D01*
X665650Y372908D01*
X662173Y373600D01*
X659693D01*
X658864Y375600D01*
X669090Y385826D01*
X669090Y385826D01*
X669757Y386824D01*
X669991Y388001D01*
Y425284D01*
X669991Y425284D01*
X669757Y426461D01*
X669090Y427458D01*
X592834Y503715D01*
X593164Y504287D01*
X593820Y506734D01*
Y509267D01*
X593164Y511713D01*
X591898Y513907D01*
X590107Y515698D01*
X587913Y516964D01*
X585466Y517620D01*
X582934D01*
X580487Y516964D01*
X578293Y515698D01*
X576502Y513907D01*
X575236Y511713D01*
X574580Y509267D01*
Y506734D01*
X575236Y504287D01*
X576502Y502093D01*
X578293Y500302D01*
X580487Y499036D01*
X582934Y498380D01*
X585466D01*
X587913Y499036D01*
X588485Y499366D01*
X660453Y427398D01*
X659688Y425550D01*
X648700D01*
Y413541D01*
X630760D01*
X628912Y413298D01*
X627189Y412584D01*
X625710Y411450D01*
X625710Y411449D01*
X621452Y407191D01*
X610289D01*
X608500Y407700D01*
Y417800D01*
X608500D01*
X607828Y419522D01*
X607510Y421943D01*
X606412Y424592D01*
X604667Y426867D01*
X597077Y434457D01*
X594802Y436202D01*
X592153Y437300D01*
X589310Y437674D01*
X450850D01*
X448007Y437300D01*
X445358Y436202D01*
X443083Y434457D01*
X399611Y390984D01*
X397915Y392117D01*
X398200Y392805D01*
Y394595D01*
X397515Y396249D01*
X396775Y396989D01*
Y453911D01*
X397515Y454651D01*
X398200Y456305D01*
Y458095D01*
X397515Y459749D01*
X398413Y461679D01*
X477656D01*
X477656Y461679D01*
X478833Y461913D01*
X479831Y462580D01*
X496776Y479525D01*
X538979D01*
X538979Y479525D01*
X540156Y479759D01*
X541154Y480426D01*
X558447Y497719D01*
X558447Y497719D01*
X558889Y498380D01*
X560066D01*
X562513Y499036D01*
X564707Y500302D01*
X566498Y502093D01*
X567764Y504287D01*
X568420Y506734D01*
Y509267D01*
X567764Y511713D01*
X566498Y513907D01*
X564707Y515698D01*
X562513Y516964D01*
X560066Y517620D01*
X557533D01*
X555087Y516964D01*
X552893Y515698D01*
X551102Y513907D01*
X549836Y511713D01*
X549180Y509267D01*
Y506734D01*
X549836Y504287D01*
X551102Y502093D01*
X552613Y500582D01*
X537706Y485675D01*
X495502D01*
X494325Y485441D01*
X493327Y484774D01*
X493327Y484774D01*
X476639Y468086D01*
X475368Y468233D01*
X474596Y470247D01*
X503715Y499366D01*
X504287Y499036D01*
X506734Y498380D01*
X509267D01*
X511713Y499036D01*
X513907Y500302D01*
X515698Y502093D01*
X516964Y504287D01*
X517620Y506734D01*
Y509267D01*
X516964Y511713D01*
X515698Y513907D01*
X513907Y515698D01*
X511713Y516964D01*
X509267Y517620D01*
X506734D01*
X504287Y516964D01*
X502093Y515698D01*
X500302Y513907D01*
X499036Y511713D01*
X498380Y509267D01*
Y506734D01*
X499036Y504287D01*
X499366Y503715D01*
X467513Y471861D01*
X453423D01*
X452658Y473709D01*
X478315Y499366D01*
X478887Y499036D01*
X481334Y498380D01*
X483867D01*
X486313Y499036D01*
X488507Y500302D01*
X490298Y502093D01*
X491564Y504287D01*
X492220Y506734D01*
Y509267D01*
X491564Y511713D01*
X490298Y513907D01*
X488507Y515698D01*
X486313Y516964D01*
X483867Y517620D01*
X481334D01*
X478887Y516964D01*
X476693Y515698D01*
X474902Y513907D01*
X473636Y511713D01*
X472980Y509267D01*
Y506734D01*
X473636Y504287D01*
X473966Y503715D01*
X446145Y475894D01*
X370286D01*
X369521Y477741D01*
X373844Y482065D01*
X389970D01*
X389970Y482065D01*
X391147Y482299D01*
X392144Y482966D01*
X393334Y484156D01*
X393334Y484156D01*
X394001Y485154D01*
X394235Y486330D01*
Y498865D01*
X394873Y499036D01*
X397067Y500302D01*
X398858Y502093D01*
X400124Y504287D01*
X400780Y506734D01*
Y509267D01*
X400124Y511713D01*
X398858Y513907D01*
X397067Y515698D01*
X394873Y516964D01*
X392426Y517620D01*
X389893D01*
X387447Y516964D01*
X385253Y515698D01*
X383462Y513907D01*
X382196Y511713D01*
X381540Y509267D01*
Y506734D01*
X382196Y504287D01*
X383462Y502093D01*
X385253Y500302D01*
X387447Y499036D01*
X388085Y498865D01*
Y488215D01*
X372571D01*
X372571Y488215D01*
X371394Y487981D01*
X370396Y487314D01*
X370396Y487314D01*
X329055Y445973D01*
X297631D01*
X297631Y445973D01*
X296454Y445739D01*
X295456Y445072D01*
X295456Y445072D01*
X292025Y441641D01*
X261201D01*
X260024Y441407D01*
X259026Y440740D01*
X259026Y440740D01*
X257260Y438974D01*
X256593Y437976D01*
X256359Y436799D01*
X256359Y436799D01*
Y434875D01*
X234850D01*
Y437550D01*
X222350D01*
Y426550D01*
X222350Y426050D01*
Y424550D01*
X222350Y424050D01*
Y413050D01*
X225525D01*
Y378050D01*
X218850D01*
Y358550D01*
X238350D01*
Y378050D01*
X231675D01*
Y413050D01*
X234850D01*
Y424050D01*
X234850Y424550D01*
Y426050D01*
X234850Y426550D01*
Y428725D01*
X258244D01*
X258244Y428725D01*
X258450Y428766D01*
X260299Y427526D01*
X260450Y427280D01*
X260450Y426050D01*
Y424550D01*
X260450Y424050D01*
Y413050D01*
X263625D01*
Y378050D01*
X256950D01*
Y358550D01*
X276450D01*
Y378050D01*
X269775D01*
Y413050D01*
X272950D01*
Y424050D01*
X272950Y424550D01*
Y426050D01*
X272950Y426550D01*
Y428725D01*
X292235D01*
X292235Y428725D01*
X293412Y428959D01*
X294409Y429626D01*
X296702Y431919D01*
X298550Y431153D01*
Y426850D01*
X298550Y426350D01*
Y424850D01*
X298550Y424350D01*
Y413350D01*
X301725D01*
Y378050D01*
X295050D01*
Y358550D01*
X314550D01*
Y378050D01*
X307875D01*
Y413350D01*
X311050D01*
Y424350D01*
X311050Y424850D01*
Y426350D01*
X311050Y426850D01*
Y429025D01*
X330935D01*
X330935Y429025D01*
X332112Y429259D01*
X333109Y429926D01*
X334802Y431619D01*
X336650Y430853D01*
Y426550D01*
X336650Y426050D01*
Y424550D01*
X336650Y424050D01*
Y413050D01*
X339825D01*
Y378050D01*
X333150D01*
Y358550D01*
X352650D01*
Y378050D01*
X345975D01*
Y413050D01*
X349150D01*
Y424050D01*
X349150Y424550D01*
Y426050D01*
X349150Y426550D01*
Y433701D01*
X352215Y436766D01*
X354654Y436377D01*
X354919Y436113D01*
Y391306D01*
X354919Y391306D01*
X355153Y390130D01*
X355819Y389132D01*
X363800Y381151D01*
Y380105D01*
X364485Y378451D01*
X365751Y377185D01*
X367405Y376500D01*
X369195D01*
X370849Y377185D01*
X372115Y378451D01*
X372800Y380105D01*
Y381895D01*
X372115Y383549D01*
X370849Y384815D01*
X369195Y385500D01*
X368149D01*
X366054Y387595D01*
X367187Y389290D01*
X367405Y389200D01*
X369195D01*
X370849Y389885D01*
X372115Y391151D01*
X372800Y392805D01*
Y394595D01*
X372115Y396249D01*
X371068Y397296D01*
Y446361D01*
X371502Y446794D01*
X372187Y448448D01*
Y450238D01*
X371502Y451892D01*
X370236Y453158D01*
X369965Y454516D01*
X374895Y459446D01*
X376590Y458313D01*
X376500Y458095D01*
Y456305D01*
X377185Y454651D01*
X377925Y453911D01*
Y396989D01*
X377185Y396249D01*
X376500Y394595D01*
Y392805D01*
X377185Y391151D01*
X378451Y389885D01*
X380105Y389200D01*
X381895D01*
X383549Y389885D01*
X384815Y391151D01*
X385500Y392805D01*
Y394595D01*
X384815Y396249D01*
X384075Y396989D01*
Y453911D01*
X384815Y454651D01*
X385500Y456305D01*
Y458095D01*
X384815Y459749D01*
X385713Y461679D01*
X388987D01*
X389885Y459749D01*
X389200Y458095D01*
Y456305D01*
X389885Y454651D01*
X390625Y453911D01*
Y396989D01*
X389885Y396249D01*
X389200Y394595D01*
Y392805D01*
X389885Y391151D01*
X391151Y389885D01*
X392805Y389200D01*
X394595D01*
X395283Y389485D01*
X396416Y387789D01*
X362510Y353884D01*
X228600D01*
X225757Y353510D01*
X223108Y352412D01*
X220833Y350667D01*
X220353Y350041D01*
X201559D01*
X146841Y404759D01*
Y451248D01*
X146841Y451248D01*
X146598Y453097D01*
X145884Y454819D01*
X144749Y456298D01*
X144749Y456298D01*
X100698Y500350D01*
X99219Y501484D01*
X97497Y502198D01*
X95648Y502441D01*
X95648Y502441D01*
X39288D01*
X39287Y502441D01*
X37439Y502198D01*
X35717Y501484D01*
X34238Y500350D01*
X-5049Y461062D01*
X-6184Y459583D01*
X-6898Y457861D01*
X-7141Y456013D01*
X-7141Y456012D01*
Y295058D01*
X-43149Y259049D01*
X-44284Y257570D01*
X-44998Y255848D01*
X-45241Y254000D01*
X-45241Y254000D01*
Y70194D01*
X-46102Y69333D01*
X-47353Y67167D01*
X-48000Y64751D01*
Y62249D01*
X-47353Y59833D01*
X-46102Y57667D01*
X-44333Y55898D01*
X-42167Y54647D01*
X-39751Y54000D01*
X-37249D01*
X-34833Y54647D01*
X-32667Y55898D01*
X-32206Y56359D01*
X-14407D01*
X6145Y35807D01*
X6145Y35807D01*
X7624Y34672D01*
X9346Y33958D01*
X11194Y33715D01*
X11195Y33715D01*
X121496D01*
X122898Y31873D01*
X122392Y30650D01*
X121700Y27173D01*
Y23627D01*
X122392Y20150D01*
X123749Y16874D01*
X125718Y13926D01*
X128226Y11418D01*
X131174Y9449D01*
X134450Y8092D01*
X137927Y7400D01*
X141473D01*
X144950Y8092D01*
X148226Y9449D01*
X151174Y11418D01*
X153681Y13926D01*
X155651Y16874D01*
X157008Y20150D01*
X157700Y23627D01*
Y27173D01*
X157499Y28181D01*
X159252Y29620D01*
X159460Y29534D01*
X161308Y29290D01*
X161309Y29291D01*
X268413D01*
X269923Y27506D01*
X269954Y27314D01*
X269780Y26667D01*
Y24134D01*
X270436Y21687D01*
X271702Y19493D01*
X273493Y17702D01*
X275687Y16436D01*
X278134Y15780D01*
X280667D01*
X283113Y16436D01*
X285307Y17702D01*
X287098Y19493D01*
X288364Y21687D01*
X289020Y24134D01*
Y26667D01*
X288364Y29113D01*
X287299Y30959D01*
X287980Y32959D01*
X296220D01*
X296901Y30959D01*
X295836Y29113D01*
X295180Y26667D01*
Y24134D01*
X295836Y21687D01*
X297102Y19493D01*
X298893Y17702D01*
X301087Y16436D01*
X303533Y15780D01*
X306066D01*
X308513Y16436D01*
X310707Y17702D01*
X312498Y19493D01*
X313764Y21687D01*
X314420Y24134D01*
Y26667D01*
X313764Y29113D01*
X312699Y30959D01*
X313380Y32959D01*
X321620D01*
X322301Y30959D01*
X321236Y29113D01*
X320580Y26667D01*
Y24134D01*
X321236Y21687D01*
X322502Y19493D01*
X324293Y17702D01*
X326487Y16436D01*
X328933Y15780D01*
X331466D01*
X333913Y16436D01*
X336107Y17702D01*
X337898Y19493D01*
X339164Y21687D01*
X339820Y24134D01*
Y26667D01*
X339164Y29113D01*
X338099Y30959D01*
X338780Y32959D01*
X347020D01*
X347701Y30959D01*
X346636Y29113D01*
X345980Y26667D01*
Y24134D01*
X346636Y21687D01*
X347902Y19493D01*
X349693Y17702D01*
X351887Y16436D01*
X354333Y15780D01*
X356866D01*
X359313Y16436D01*
X361507Y17702D01*
X363298Y19493D01*
X364564Y21687D01*
X365220Y24134D01*
Y26667D01*
X365143Y26955D01*
X366936Y27991D01*
X371595Y23331D01*
X372036Y21687D01*
X373302Y19493D01*
X375093Y17702D01*
X377287Y16436D01*
X379734Y15780D01*
X380521D01*
X394301Y2000D01*
X393912Y558D01*
X393506Y0D01*
X-101600D01*
X-127000Y25400D01*
Y508000D01*
X-101600Y533400D01*
X787400D01*
X812800Y508000D01*
D02*
G37*
G36*
X56072Y68941D02*
X55047Y67167D01*
X54400Y64751D01*
Y62249D01*
X55047Y59833D01*
X56298Y57667D01*
X58067Y55898D01*
X60233Y54647D01*
X62649Y54000D01*
X65151D01*
X67567Y54647D01*
X68097Y54954D01*
X73206Y49845D01*
X72441Y47997D01*
X14152D01*
X2053Y60096D01*
X2174Y61326D01*
X11790Y70941D01*
X30358D01*
X31072Y68941D01*
X30047Y67167D01*
X29467Y65000D01*
X38900D01*
X48333D01*
X47753Y67167D01*
X46728Y68941D01*
X47442Y70941D01*
X55358D01*
X56072Y68941D01*
D02*
G37*
G36*
X450340Y53119D02*
X449574Y51271D01*
X269958D01*
X269958Y51271D01*
X268781Y51037D01*
X267783Y50370D01*
X265016Y47603D01*
X215797D01*
X215032Y49450D01*
X221923Y56342D01*
X222367Y55898D01*
X224533Y54647D01*
X226949Y54000D01*
X229451D01*
X231867Y54647D01*
X234033Y55898D01*
X235802Y57667D01*
X237053Y59833D01*
X237700Y62249D01*
Y64751D01*
X237547Y65322D01*
X238764Y66909D01*
X436550D01*
X450340Y53119D01*
D02*
G37*
G36*
X626366Y29685D02*
X626036Y29113D01*
X625380Y26667D01*
Y24134D01*
X626036Y21687D01*
X627302Y19493D01*
X629093Y17702D01*
X631287Y16436D01*
X631445Y16393D01*
X632533Y14031D01*
X632427Y13809D01*
X610937D01*
X610867Y15780D01*
X613313Y16436D01*
X615507Y17702D01*
X617298Y19493D01*
X618564Y21687D01*
X619220Y24134D01*
Y26667D01*
X618564Y29113D01*
X617298Y31307D01*
X615507Y33098D01*
X613313Y34364D01*
X610867Y35020D01*
X608334D01*
X605887Y34364D01*
X605315Y34034D01*
X562683Y76666D01*
X563448Y78514D01*
X577537D01*
X626366Y29685D01*
D02*
G37*
G36*
X600966D02*
X600636Y29113D01*
X599980Y26667D01*
Y24134D01*
X600636Y21687D01*
X601902Y19493D01*
X603693Y17702D01*
X605887Y16436D01*
X608334Y15780D01*
X608263Y13809D01*
X585537D01*
X585466Y15780D01*
X587913Y16436D01*
X590107Y17702D01*
X591898Y19493D01*
X593164Y21687D01*
X593820Y24134D01*
Y26667D01*
X593164Y29113D01*
X591898Y31307D01*
X590107Y33098D01*
X587913Y34364D01*
X585466Y35020D01*
X582934D01*
X580487Y34364D01*
X579915Y34034D01*
X534004Y79945D01*
X534769Y81793D01*
X548858D01*
X600966Y29685D01*
D02*
G37*
G36*
X575566D02*
X575236Y29113D01*
X574580Y26667D01*
Y24134D01*
X575236Y21687D01*
X576502Y19493D01*
X578293Y17702D01*
X580487Y16436D01*
X582934Y15780D01*
X582863Y13809D01*
X560137D01*
X560066Y15780D01*
X562513Y16436D01*
X564707Y17702D01*
X566498Y19493D01*
X567764Y21687D01*
X568420Y24134D01*
Y26667D01*
X567764Y29113D01*
X566498Y31307D01*
X564707Y33098D01*
X562513Y34364D01*
X560066Y35020D01*
X557533D01*
X555087Y34364D01*
X554515Y34034D01*
X512788Y75761D01*
X513302Y77454D01*
X513531Y77761D01*
X527490D01*
X575566Y29685D01*
D02*
G37*
G36*
X550166D02*
X549836Y29113D01*
X549180Y26667D01*
Y24134D01*
X549836Y21687D01*
X551102Y19493D01*
X552893Y17702D01*
X555087Y16436D01*
X557533Y15780D01*
X557463Y13809D01*
X534737D01*
X534666Y15780D01*
X537113Y16436D01*
X539307Y17702D01*
X541098Y19493D01*
X542364Y21687D01*
X543020Y24134D01*
Y26667D01*
X542364Y29113D01*
X541098Y31307D01*
X539307Y33098D01*
X537113Y34364D01*
X534666Y35020D01*
X532133D01*
X529687Y34364D01*
X527493Y33098D01*
X525702Y31307D01*
X524436Y29113D01*
X523780Y26667D01*
Y24134D01*
X524436Y21687D01*
X524766Y21115D01*
X521490Y17839D01*
X517620D01*
Y35020D01*
X498380D01*
Y28475D01*
X483681D01*
X443063Y69093D01*
X443828Y70941D01*
X508910D01*
X550166Y29685D01*
D02*
G37*
G36*
X460889Y36868D02*
X460123Y35020D01*
X447580D01*
Y15780D01*
X447580D01*
X447510Y13809D01*
X433137D01*
X433066Y15780D01*
X435513Y16436D01*
X437707Y17702D01*
X439498Y19493D01*
X440764Y21687D01*
X441357Y23900D01*
X431800D01*
X422243D01*
X422836Y21687D01*
X424102Y19493D01*
X425893Y17702D01*
X428087Y16436D01*
X430533Y15780D01*
X430463Y13809D01*
X407737D01*
X407667Y15780D01*
X410113Y16436D01*
X412307Y17702D01*
X414098Y19493D01*
X415364Y21687D01*
X415957Y23900D01*
X406400D01*
X396843D01*
X396867Y23808D01*
X395399Y21561D01*
X394999Y21500D01*
X390620Y25879D01*
Y26667D01*
X389964Y29113D01*
X388698Y31307D01*
X386907Y33098D01*
X384713Y34364D01*
X382267Y35020D01*
X380104D01*
X371851Y43273D01*
X372617Y45121D01*
X452635D01*
X460889Y36868D01*
D02*
G37*
%LPC*%
G36*
X314492Y316000D02*
X306300D01*
Y307808D01*
X308563Y308414D01*
X310787Y309698D01*
X312602Y311513D01*
X313885Y313737D01*
X314492Y316000D01*
D02*
G37*
G36*
X352592D02*
X344400D01*
Y307808D01*
X346663Y308414D01*
X348887Y309698D01*
X350702Y311513D01*
X351986Y313737D01*
X352592Y316000D01*
D02*
G37*
G36*
X276392D02*
X268200D01*
Y307808D01*
X270463Y308414D01*
X272687Y309698D01*
X274502Y311513D01*
X275786Y313737D01*
X276392Y316000D01*
D02*
G37*
G36*
X341400D02*
X333208D01*
X333815Y313737D01*
X335098Y311513D01*
X336913Y309698D01*
X339137Y308414D01*
X341400Y307808D01*
Y316000D01*
D02*
G37*
G36*
X303300D02*
X295108D01*
X295714Y313737D01*
X296998Y311513D01*
X298813Y309698D01*
X301037Y308414D01*
X303300Y307808D01*
Y316000D01*
D02*
G37*
G36*
X39900Y429400D02*
X29400D01*
Y421400D01*
X39900D01*
Y429400D01*
D02*
G37*
G36*
X53400Y418400D02*
X42900D01*
Y410400D01*
X53400D01*
Y418400D01*
D02*
G37*
G36*
X39900D02*
X29400D01*
Y410400D01*
X39900D01*
Y418400D01*
D02*
G37*
G36*
X44600Y289300D02*
X34100D01*
Y281300D01*
X44600D01*
Y289300D01*
D02*
G37*
G36*
X58100Y278300D02*
X47600D01*
Y270300D01*
X58100D01*
Y278300D01*
D02*
G37*
G36*
X44600D02*
X34100D01*
Y270300D01*
X44600D01*
Y278300D01*
D02*
G37*
G36*
X58100Y149600D02*
X47600D01*
Y141600D01*
X58100D01*
Y149600D01*
D02*
G37*
G36*
X44600D02*
X34100D01*
Y141600D01*
X44600D01*
Y149600D01*
D02*
G37*
G36*
X58100Y138600D02*
X47600D01*
Y130600D01*
X58100D01*
Y138600D01*
D02*
G37*
G36*
X44600D02*
X34100D01*
Y130600D01*
X44600D01*
Y138600D01*
D02*
G37*
G36*
X230100Y327192D02*
Y319000D01*
X238292D01*
X237686Y321263D01*
X236402Y323487D01*
X234587Y325302D01*
X232363Y326586D01*
X230100Y327192D01*
D02*
G37*
G36*
X227100D02*
X224837Y326586D01*
X222613Y325302D01*
X220798Y323487D01*
X219515Y321263D01*
X218908Y319000D01*
X227100D01*
Y327192D01*
D02*
G37*
G36*
X238292Y316000D02*
X230100D01*
Y307808D01*
X232363Y308414D01*
X234587Y309698D01*
X236402Y311513D01*
X237686Y313737D01*
X238292Y316000D01*
D02*
G37*
G36*
X227100D02*
X218908D01*
X219515Y313737D01*
X220798Y311513D01*
X222613Y309698D01*
X224837Y308414D01*
X227100Y307808D01*
Y316000D01*
D02*
G37*
G36*
X108100Y274200D02*
X103100D01*
Y268200D01*
X108100D01*
Y274200D01*
D02*
G37*
G36*
X100100D02*
X95100D01*
Y268200D01*
X100100D01*
Y274200D01*
D02*
G37*
G36*
X108100Y265200D02*
X103100D01*
Y259200D01*
X108100D01*
Y265200D01*
D02*
G37*
G36*
X100100D02*
X95100D01*
Y259200D01*
X100100D01*
Y265200D01*
D02*
G37*
G36*
X109000Y236100D02*
X104000D01*
Y230100D01*
X109000D01*
Y236100D01*
D02*
G37*
G36*
X101000D02*
X96000D01*
Y230100D01*
X101000D01*
Y236100D01*
D02*
G37*
G36*
X109000Y227100D02*
X104000D01*
Y221100D01*
X109000D01*
Y227100D01*
D02*
G37*
G36*
X101000D02*
X96000D01*
Y221100D01*
X101000D01*
Y227100D01*
D02*
G37*
G36*
X111300Y185300D02*
X106300D01*
Y179300D01*
X111300D01*
Y185300D01*
D02*
G37*
G36*
X103300D02*
X98300D01*
Y179300D01*
X103300D01*
Y185300D01*
D02*
G37*
G36*
X281200Y185850D02*
X277700D01*
Y179100D01*
X281200D01*
Y185850D01*
D02*
G37*
G36*
X111300Y176300D02*
X106300D01*
Y170300D01*
X111300D01*
Y176300D01*
D02*
G37*
G36*
X103300D02*
X98300D01*
Y170300D01*
X103300D01*
Y176300D01*
D02*
G37*
G36*
X255700Y160850D02*
X252200D01*
Y154100D01*
X255700D01*
Y160850D01*
D02*
G37*
G36*
X111300Y147200D02*
X106300D01*
Y141200D01*
X111300D01*
Y147200D01*
D02*
G37*
G36*
X265660Y517557D02*
Y509500D01*
X273717D01*
X273124Y511713D01*
X271858Y513907D01*
X270067Y515698D01*
X267873Y516964D01*
X265660Y517557D01*
D02*
G37*
G36*
X262660D02*
X260447Y516964D01*
X258253Y515698D01*
X256462Y513907D01*
X255196Y511713D01*
X254603Y509500D01*
X262660D01*
Y517557D01*
D02*
G37*
G36*
X273717Y506500D02*
X265660D01*
Y498443D01*
X267873Y499036D01*
X270067Y500302D01*
X271858Y502093D01*
X273124Y504287D01*
X273717Y506500D01*
D02*
G37*
G36*
X262660D02*
X254603D01*
X255196Y504287D01*
X256462Y502093D01*
X258253Y500302D01*
X260447Y499036D01*
X262660Y498443D01*
Y506500D01*
D02*
G37*
G36*
X644620Y517620D02*
X625380D01*
Y498380D01*
X644620D01*
Y517620D01*
D02*
G37*
G36*
X610867D02*
X608334D01*
X605887Y516964D01*
X603693Y515698D01*
X601902Y513907D01*
X600636Y511713D01*
X599980Y509267D01*
Y506734D01*
X600636Y504287D01*
X601902Y502093D01*
X603693Y500302D01*
X605887Y499036D01*
X608334Y498380D01*
X610867D01*
X613313Y499036D01*
X615507Y500302D01*
X617298Y502093D01*
X618564Y504287D01*
X619220Y506734D01*
Y509267D01*
X618564Y511713D01*
X617298Y513907D01*
X615507Y515698D01*
X613313Y516964D01*
X610867Y517620D01*
D02*
G37*
G36*
X534666D02*
X532133D01*
X529687Y516964D01*
X527493Y515698D01*
X525702Y513907D01*
X524436Y511713D01*
X523780Y509267D01*
Y506734D01*
X524436Y504287D01*
X525702Y502093D01*
X527493Y500302D01*
X529687Y499036D01*
X532133Y498380D01*
X534666D01*
X537113Y499036D01*
X539307Y500302D01*
X541098Y502093D01*
X542364Y504287D01*
X543020Y506734D01*
Y509267D01*
X542364Y511713D01*
X541098Y513907D01*
X539307Y515698D01*
X537113Y516964D01*
X534666Y517620D01*
D02*
G37*
G36*
X458466D02*
X455933D01*
X453487Y516964D01*
X451293Y515698D01*
X449502Y513907D01*
X448236Y511713D01*
X447580Y509267D01*
Y506734D01*
X448236Y504287D01*
X449502Y502093D01*
X451293Y500302D01*
X453487Y499036D01*
X455933Y498380D01*
X458466D01*
X460913Y499036D01*
X463107Y500302D01*
X464898Y502093D01*
X466164Y504287D01*
X466820Y506734D01*
Y509267D01*
X466164Y511713D01*
X464898Y513907D01*
X463107Y515698D01*
X460913Y516964D01*
X458466Y517620D01*
D02*
G37*
G36*
X426180D02*
X406940D01*
Y498380D01*
X426180D01*
Y517620D01*
D02*
G37*
G36*
X367026D02*
X364493D01*
X362047Y516964D01*
X359853Y515698D01*
X358062Y513907D01*
X356796Y511713D01*
X356140Y509267D01*
Y506734D01*
X356796Y504287D01*
X358062Y502093D01*
X359853Y500302D01*
X362047Y499036D01*
X364493Y498380D01*
X367026D01*
X369473Y499036D01*
X371667Y500302D01*
X373458Y502093D01*
X374724Y504287D01*
X375380Y506734D01*
Y509267D01*
X374724Y511713D01*
X373458Y513907D01*
X371667Y515698D01*
X369473Y516964D01*
X367026Y517620D01*
D02*
G37*
G36*
X341627D02*
X339094D01*
X336647Y516964D01*
X334453Y515698D01*
X332662Y513907D01*
X331396Y511713D01*
X330740Y509267D01*
Y506734D01*
X331396Y504287D01*
X332662Y502093D01*
X334453Y500302D01*
X336647Y499036D01*
X339094Y498380D01*
X341627D01*
X344073Y499036D01*
X346267Y500302D01*
X348058Y502093D01*
X349324Y504287D01*
X349980Y506734D01*
Y509267D01*
X349324Y511713D01*
X348058Y513907D01*
X346267Y515698D01*
X344073Y516964D01*
X341627Y517620D01*
D02*
G37*
G36*
X316227D02*
X313694D01*
X311247Y516964D01*
X309053Y515698D01*
X307262Y513907D01*
X305996Y511713D01*
X305340Y509267D01*
Y506734D01*
X305996Y504287D01*
X307262Y502093D01*
X309053Y500302D01*
X311247Y499036D01*
X313694Y498380D01*
X316227D01*
X318673Y499036D01*
X320867Y500302D01*
X322658Y502093D01*
X323924Y504287D01*
X324580Y506734D01*
Y509267D01*
X323924Y511713D01*
X322658Y513907D01*
X320867Y515698D01*
X318673Y516964D01*
X316227Y517620D01*
D02*
G37*
G36*
X290826D02*
X288293D01*
X285847Y516964D01*
X283653Y515698D01*
X281862Y513907D01*
X280596Y511713D01*
X279940Y509267D01*
Y506734D01*
X280596Y504287D01*
X281862Y502093D01*
X283653Y500302D01*
X285847Y499036D01*
X288293Y498380D01*
X290826D01*
X293273Y499036D01*
X295467Y500302D01*
X297258Y502093D01*
X298524Y504287D01*
X299180Y506734D01*
Y509267D01*
X298524Y511713D01*
X297258Y513907D01*
X295467Y515698D01*
X293273Y516964D01*
X290826Y517620D01*
D02*
G37*
G36*
X240026D02*
X237493D01*
X235047Y516964D01*
X232853Y515698D01*
X231062Y513907D01*
X229796Y511713D01*
X229140Y509267D01*
Y506734D01*
X229796Y504287D01*
X231062Y502093D01*
X232853Y500302D01*
X235047Y499036D01*
X237493Y498380D01*
X240026D01*
X242473Y499036D01*
X244667Y500302D01*
X246458Y502093D01*
X247724Y504287D01*
X248380Y506734D01*
Y509267D01*
X247724Y511713D01*
X246458Y513907D01*
X244667Y515698D01*
X242473Y516964D01*
X240026Y517620D01*
D02*
G37*
G36*
X214627D02*
X212094D01*
X209647Y516964D01*
X207453Y515698D01*
X205662Y513907D01*
X204396Y511713D01*
X203740Y509267D01*
Y506734D01*
X204396Y504287D01*
X205662Y502093D01*
X207453Y500302D01*
X209647Y499036D01*
X212094Y498380D01*
X214627D01*
X217073Y499036D01*
X219267Y500302D01*
X221058Y502093D01*
X222324Y504287D01*
X222980Y506734D01*
Y509267D01*
X222324Y511713D01*
X221058Y513907D01*
X219267Y515698D01*
X217073Y516964D01*
X214627Y517620D01*
D02*
G37*
G36*
X189226D02*
X186693D01*
X184247Y516964D01*
X182053Y515698D01*
X180262Y513907D01*
X178996Y511713D01*
X178340Y509267D01*
Y506734D01*
X178996Y504287D01*
X180262Y502093D01*
X182053Y500302D01*
X184247Y499036D01*
X186693Y498380D01*
X189226D01*
X191673Y499036D01*
X193867Y500302D01*
X195658Y502093D01*
X196924Y504287D01*
X197580Y506734D01*
Y509267D01*
X196924Y511713D01*
X195658Y513907D01*
X193867Y515698D01*
X191673Y516964D01*
X189226Y517620D01*
D02*
G37*
G36*
X154173Y526000D02*
X150627D01*
X147150Y525308D01*
X143874Y523951D01*
X140926Y521982D01*
X138419Y519474D01*
X136449Y516526D01*
X135092Y513250D01*
X134400Y509773D01*
Y506227D01*
X135092Y502750D01*
X136449Y499474D01*
X138419Y496526D01*
X140926Y494019D01*
X143874Y492049D01*
X147150Y490692D01*
X150627Y490000D01*
X154173D01*
X157650Y490692D01*
X160926Y492049D01*
X163874Y494019D01*
X166381Y496526D01*
X168351Y499474D01*
X169708Y502750D01*
X170400Y506227D01*
Y509773D01*
X169708Y513250D01*
X168351Y516526D01*
X166381Y519474D01*
X163874Y521982D01*
X160926Y523951D01*
X157650Y525308D01*
X154173Y526000D01*
D02*
G37*
G36*
X792935Y499100D02*
X791065D01*
X789259Y498616D01*
X787641Y497681D01*
X786319Y496359D01*
X785384Y494740D01*
X784900Y492935D01*
Y491065D01*
X785384Y489259D01*
X786319Y487640D01*
X787641Y486319D01*
X789259Y485384D01*
X791065Y484900D01*
X792935D01*
X794741Y485384D01*
X796359Y486319D01*
X797681Y487640D01*
X798616Y489259D01*
X799100Y491065D01*
Y492935D01*
X798616Y494740D01*
X797681Y496359D01*
X796359Y497681D01*
X794741Y498616D01*
X792935Y499100D01*
D02*
G37*
G36*
X701515Y517495D02*
X670085D01*
Y491905D01*
X701515D01*
Y497039D01*
X724401D01*
X725556Y495039D01*
X725384Y494740D01*
X724900Y492935D01*
Y491065D01*
X725384Y489259D01*
X726319Y487640D01*
X727641Y486319D01*
X729259Y485384D01*
X731065Y484900D01*
X732935D01*
X734741Y485384D01*
X736359Y486319D01*
X737681Y487640D01*
X738616Y489259D01*
X739100Y491065D01*
Y492573D01*
X739978Y493181D01*
X741026Y493475D01*
X752475Y482026D01*
Y481346D01*
X753124Y478923D01*
X754378Y476752D01*
X756152Y474978D01*
X758324Y473724D01*
X760746Y473075D01*
X763254D01*
X765676Y473724D01*
X767849Y474978D01*
X769622Y476752D01*
X770876Y478923D01*
X771525Y481346D01*
Y483854D01*
X770876Y486277D01*
X769622Y488448D01*
X767849Y490222D01*
X765676Y491476D01*
X763254Y492125D01*
X762574D01*
X745470Y509230D01*
X743990Y510364D01*
X742268Y511078D01*
X740420Y511321D01*
X740420Y511321D01*
X701515D01*
Y517495D01*
D02*
G37*
G36*
X-89600Y479400D02*
X-113600D01*
Y460400D01*
X-89600D01*
Y479400D01*
D02*
G37*
G36*
Y429400D02*
X-113600D01*
Y410400D01*
X-89600D01*
Y429400D01*
D02*
G37*
G36*
X795690Y393900D02*
X787590D01*
Y382500D01*
X795690D01*
Y393900D01*
D02*
G37*
G36*
X784590D02*
X776490D01*
Y382500D01*
X784590D01*
Y393900D01*
D02*
G37*
G36*
X795690Y379500D02*
X787590D01*
Y368100D01*
X795690D01*
Y379500D01*
D02*
G37*
G36*
X784590D02*
X776490D01*
Y368100D01*
X784590D01*
Y379500D01*
D02*
G37*
G36*
X-84900Y339300D02*
X-108900D01*
Y320300D01*
X-84900D01*
Y339300D01*
D02*
G37*
G36*
Y289300D02*
X-108900D01*
Y270300D01*
X-84900D01*
Y289300D01*
D02*
G37*
G36*
Y199600D02*
X-108900D01*
Y180600D01*
X-84900D01*
Y199600D01*
D02*
G37*
G36*
X585700Y175051D02*
Y166600D01*
X594151D01*
X593518Y168960D01*
X592202Y171240D01*
X590340Y173102D01*
X588060Y174419D01*
X585700Y175051D01*
D02*
G37*
G36*
X582700D02*
X580340Y174419D01*
X578060Y173102D01*
X576198Y171240D01*
X574882Y168960D01*
X574249Y166600D01*
X582700D01*
Y175051D01*
D02*
G37*
G36*
X594151Y163600D02*
X585700D01*
Y155149D01*
X588060Y155781D01*
X590340Y157098D01*
X592202Y158960D01*
X593518Y161240D01*
X594151Y163600D01*
D02*
G37*
G36*
X582700D02*
X574249D01*
X574882Y161240D01*
X576198Y158960D01*
X578060Y157098D01*
X580340Y155781D01*
X582700Y155149D01*
Y163600D01*
D02*
G37*
G36*
X-84900Y149600D02*
X-108900D01*
Y130600D01*
X-84900D01*
Y149600D01*
D02*
G37*
G36*
X585517Y149700D02*
X582883D01*
X580340Y149018D01*
X578060Y147702D01*
X576198Y145840D01*
X574882Y143560D01*
X574200Y141017D01*
Y138384D01*
X574882Y135840D01*
X576198Y133560D01*
X578060Y131698D01*
X580340Y130381D01*
X582883Y129700D01*
X585517D01*
X588060Y130381D01*
X590340Y131698D01*
X592202Y133560D01*
X593518Y135840D01*
X594200Y138384D01*
Y141017D01*
X593518Y143560D01*
X592202Y145840D01*
X590340Y147702D01*
X588060Y149018D01*
X585517Y149700D01*
D02*
G37*
G36*
X-87000Y72933D02*
Y65000D01*
X-79067D01*
X-79647Y67167D01*
X-80898Y69333D01*
X-82667Y71102D01*
X-84833Y72353D01*
X-87000Y72933D01*
D02*
G37*
G36*
X-90000D02*
X-92167Y72353D01*
X-94333Y71102D01*
X-96102Y69333D01*
X-97353Y67167D01*
X-97933Y65000D01*
X-90000D01*
Y72933D01*
D02*
G37*
G36*
X662173Y94200D02*
X658627D01*
X655150Y93508D01*
X651874Y92151D01*
X648926Y90182D01*
X646419Y87674D01*
X644449Y84726D01*
X643092Y81450D01*
X642400Y77973D01*
Y74427D01*
X643092Y70950D01*
X644449Y67674D01*
X646419Y64726D01*
X648926Y62218D01*
X651874Y60249D01*
X655150Y58892D01*
X658627Y58200D01*
X662173D01*
X665650Y58892D01*
X668926Y60249D01*
X671874Y62218D01*
X674381Y64726D01*
X676351Y67674D01*
X677708Y70950D01*
X678400Y74427D01*
Y77973D01*
X677708Y81450D01*
X676351Y84726D01*
X674381Y87674D01*
X671874Y90182D01*
X668926Y92151D01*
X665650Y93508D01*
X662173Y94200D01*
D02*
G37*
G36*
X-79067Y62000D02*
X-87000D01*
Y54067D01*
X-84833Y54647D01*
X-82667Y55898D01*
X-80898Y57667D01*
X-79647Y59833D01*
X-79067Y62000D01*
D02*
G37*
G36*
X-90000D02*
X-97933D01*
X-97353Y59833D01*
X-96102Y57667D01*
X-94333Y55898D01*
X-92167Y54647D01*
X-90000Y54067D01*
Y62000D01*
D02*
G37*
G36*
X-62249Y73000D02*
X-64751D01*
X-67167Y72353D01*
X-69333Y71102D01*
X-71102Y69333D01*
X-72353Y67167D01*
X-73000Y64751D01*
Y62249D01*
X-72353Y59833D01*
X-71102Y57667D01*
X-69333Y55898D01*
X-67167Y54647D01*
X-64751Y54000D01*
X-62249D01*
X-59833Y54647D01*
X-57667Y55898D01*
X-55898Y57667D01*
X-54647Y59833D01*
X-54000Y62249D01*
Y64751D01*
X-54647Y67167D01*
X-55898Y69333D01*
X-57667Y71102D01*
X-59833Y72353D01*
X-62249Y73000D01*
D02*
G37*
G36*
X48333Y62000D02*
X40400D01*
Y54067D01*
X42567Y54647D01*
X44733Y55898D01*
X46502Y57667D01*
X47753Y59833D01*
X48333Y62000D01*
D02*
G37*
G36*
X37400D02*
X29467D01*
X30047Y59833D01*
X31298Y57667D01*
X33067Y55898D01*
X35233Y54647D01*
X37400Y54067D01*
Y62000D01*
D02*
G37*
G36*
X433300Y34957D02*
Y26900D01*
X441357D01*
X440764Y29113D01*
X439498Y31307D01*
X437707Y33098D01*
X435513Y34364D01*
X433300Y34957D01*
D02*
G37*
G36*
X407900D02*
Y26900D01*
X415957D01*
X415364Y29113D01*
X414098Y31307D01*
X412307Y33098D01*
X410113Y34364D01*
X407900Y34957D01*
D02*
G37*
G36*
X430300D02*
X428087Y34364D01*
X425893Y33098D01*
X424102Y31307D01*
X422836Y29113D01*
X422243Y26900D01*
X430300D01*
Y34957D01*
D02*
G37*
G36*
X404900D02*
X402687Y34364D01*
X400493Y33098D01*
X398702Y31307D01*
X397436Y29113D01*
X396843Y26900D01*
X404900D01*
Y34957D01*
D02*
G37*
%LPD*%
D15*
X-101600Y469900D02*
D03*
X41400D02*
D03*
X-101600Y419900D02*
D03*
X41400D02*
D03*
X-96900Y190100D02*
D03*
X46100D02*
D03*
X-96900Y140100D02*
D03*
X46100D02*
D03*
X-96900Y329800D02*
D03*
X46100D02*
D03*
X-96900Y279800D02*
D03*
X46100D02*
D03*
D16*
X257200Y152600D02*
D03*
X266700D02*
D03*
X276200D02*
D03*
Y177600D02*
D03*
X266700D02*
D03*
X257200D02*
D03*
Y228800D02*
D03*
X266700D02*
D03*
X276200D02*
D03*
Y253800D02*
D03*
X266700D02*
D03*
X257200D02*
D03*
D17*
X121500Y228600D02*
D03*
X102500D02*
D03*
X123800Y139700D02*
D03*
X104800D02*
D03*
X120600Y266700D02*
D03*
X101600D02*
D03*
X123800Y177800D02*
D03*
X104800D02*
D03*
D18*
X162800Y228600D02*
D03*
X175313D02*
D03*
X158843Y266700D02*
D03*
X171357D02*
D03*
X165100Y139700D02*
D03*
X177613D02*
D03*
X165287Y177800D02*
D03*
X177800D02*
D03*
D19*
X209400Y228600D02*
D03*
X222400D02*
D03*
X215900Y266700D02*
D03*
X202900D02*
D03*
X209400Y139700D02*
D03*
X222400D02*
D03*
X222400Y177800D02*
D03*
X209400D02*
D03*
D20*
X571500Y393700D02*
D03*
D21*
X598500Y412750D02*
D03*
Y400050D02*
D03*
Y387350D02*
D03*
Y374650D02*
D03*
X544500D02*
D03*
Y387350D02*
D03*
Y400050D02*
D03*
Y412750D02*
D03*
D22*
X228600Y418800D02*
D03*
Y431800D02*
D03*
X266700Y418800D02*
D03*
Y431800D02*
D03*
X342900Y418800D02*
D03*
Y431800D02*
D03*
X304800Y419100D02*
D03*
Y432100D02*
D03*
D23*
X749300Y381000D02*
D03*
X786090D02*
D03*
D24*
X698500Y406400D02*
D03*
X657300D02*
D03*
D25*
X685800Y504700D02*
D03*
Y460500D02*
D03*
D38*
X406400Y241300D02*
D03*
Y152400D02*
D03*
X520700D02*
D03*
Y241300D02*
D03*
D39*
X381000D02*
D03*
Y152400D02*
D03*
X495300D02*
D03*
Y241300D02*
D03*
D45*
X312234Y248734D02*
X372219D01*
X289515Y228600D02*
X292100D01*
X312234Y248734D01*
X280449Y219534D02*
X289515Y228600D01*
X260684Y221301D02*
Y222066D01*
X236220Y226252D02*
X254050Y208422D01*
X289521D01*
X289815Y208716D01*
X301979D01*
X319759Y226496D01*
X372219Y248734D02*
X376251Y252766D01*
X262451Y219534D02*
X280449D01*
X385749Y252766D02*
X392466Y246049D01*
X382411Y226496D02*
X392466Y236551D01*
X260684Y221301D02*
X262451Y219534D01*
X319759Y226496D02*
X382411D01*
X257200Y225550D02*
X260684Y222066D01*
X376251Y252766D02*
X385749D01*
X392466Y236551D02*
Y246049D01*
X274216Y251816D02*
X276200Y253800D01*
X274216Y247801D02*
Y251816D01*
X267715Y241300D02*
X274216Y247801D01*
X265685Y241300D02*
X267715D01*
X260684Y236299D02*
X265685Y241300D01*
X260684Y235534D02*
Y236299D01*
X257200Y232050D02*
X260684Y235534D01*
X257200Y228800D02*
Y232050D01*
X236220Y226252D02*
Y236220D01*
X257200Y225550D02*
Y228800D01*
X233800Y203200D02*
X292100D01*
X215900Y266700D02*
X257815D01*
X264716Y259799D01*
X342900Y266700D02*
X457200Y381000D01*
X211651Y273716D02*
X269799D01*
X282216Y261299D01*
X342900Y279400D02*
X444500Y381000D01*
X427514Y386516D02*
X508665D01*
X277215Y241300D02*
X282216Y246301D01*
Y261299D01*
X264716Y255784D02*
Y259799D01*
Y255784D02*
X266700Y253800D01*
X209884Y271949D02*
X211651Y273716D01*
X221205Y215795D02*
X233800Y203200D01*
X221205Y215795D02*
Y216448D01*
X217321Y219679D02*
X217974D01*
X209400Y227600D02*
X217321Y219679D01*
X217974D02*
X221205Y216448D01*
X209884Y258025D02*
X222400Y245509D01*
X209884Y258025D02*
Y271949D01*
X204884Y272651D02*
X261816Y329584D01*
X204884Y268684D02*
Y272651D01*
X202900Y266700D02*
X204884Y268684D01*
X247450Y186866D02*
X261449D01*
X238384Y177800D02*
X247450Y186866D01*
X261449D02*
X264716Y183599D01*
Y179584D02*
X266700Y177600D01*
X264716Y179584D02*
Y183599D01*
X487341Y14764D02*
X522764D01*
X453909Y48196D02*
X487341Y14764D01*
X522764D02*
X533400Y25400D01*
X269958Y48196D02*
X453909D01*
X437823Y69984D02*
X482407Y25400D01*
X508000D01*
X236588Y69984D02*
X437823D01*
X232556Y74016D02*
X236588Y69984D01*
X223844Y74016D02*
X232556D01*
X215700Y65872D02*
X223844Y74016D01*
X215700Y61128D02*
Y65872D01*
X207556Y52984D02*
X215700Y61128D01*
X198844Y52984D02*
X207556D01*
X189306Y62522D02*
X198844Y52984D01*
X189306Y62522D02*
Y67266D01*
X179768Y76804D02*
X189306Y67266D01*
X96334Y76804D02*
X179768D01*
X84237Y88900D02*
X96334Y76804D01*
X0Y88900D02*
X84237D01*
X203200Y63500D02*
X216504Y76804D01*
X195896Y44528D02*
X266289D01*
X217164Y90144D02*
X239236D01*
X240480Y88900D01*
X551802D01*
X223354Y62122D02*
X226822D01*
X217590Y84868D02*
X218834Y86112D01*
X160238Y48952D02*
X191472D01*
X154284Y60608D02*
X161908Y52984D01*
X222174Y78048D02*
X234226D01*
X141335Y88900D02*
X215920D01*
X235896Y82080D02*
X237140Y80836D01*
X215920Y88900D02*
X217164Y90144D01*
X161908Y52984D02*
X193142D01*
X234226Y78048D02*
X238258Y74016D01*
X197174Y48952D02*
X210184D01*
X216504Y76804D02*
X220930D01*
X193142Y52984D02*
X197174Y48952D01*
X237140Y80836D02*
X528764D01*
X210184Y48952D02*
X223354Y62122D01*
X137994Y80836D02*
X219260D01*
X218834Y86112D02*
X237566D01*
X220504Y82080D02*
X235896D01*
X238810Y84868D02*
X550132D01*
X220930Y76804D02*
X222174Y78048D01*
X238258Y74016D02*
X510184D01*
X237566Y86112D02*
X238810Y84868D01*
X139665D02*
X217590D01*
X191472Y48952D02*
X195896Y44528D01*
X219260Y80836D02*
X220504Y82080D01*
X510184Y74016D02*
X558800Y25400D01*
X119163Y48952D02*
X126786Y56576D01*
X78448Y48952D02*
X119163D01*
X63900Y63500D02*
X78448Y48952D01*
X10516Y74016D02*
X68256D01*
X0Y63500D02*
X10516Y74016D01*
X-11450Y63500D02*
X0D01*
X68256Y74016D02*
X78352Y63920D01*
X88900Y63500D02*
X99416Y52984D01*
X88480Y63920D02*
X88900Y63500D01*
X78352Y63920D02*
X88480D01*
X72168Y152365D02*
X139665Y84868D01*
X76200Y154035D02*
X141335Y88900D01*
X68136Y150695D02*
X137994Y80836D01*
X226822Y62122D02*
X228200Y63500D01*
X125116Y60608D02*
X154284D01*
X117492Y52984D02*
X125116Y60608D01*
X266289Y44528D02*
X269958Y48196D01*
X99416Y52984D02*
X117492D01*
X152613Y56576D02*
X160238Y48952D01*
X126786Y56576D02*
X152613D01*
X578811Y81589D02*
X635000Y25400D01*
X550132Y84868D02*
X609600Y25400D01*
X584200Y266700D02*
X595216Y277716D01*
Y299006D01*
X576722Y317500D02*
X595216Y299006D01*
X457200Y317500D02*
X576722D01*
X357994Y391306D02*
X368300Y381000D01*
X357994Y391306D02*
Y439402D01*
X352478Y441687D02*
X355709Y444918D01*
X352478Y441378D02*
Y441687D01*
X356018Y444918D02*
X362171Y451071D01*
X342900Y431800D02*
X352478Y441378D01*
X355709Y444918D02*
X356018D01*
X469900Y292100D02*
X557610D01*
X569568Y280141D01*
Y230532D02*
Y280141D01*
Y230532D02*
X584200Y215900D01*
X431800Y330200D02*
X469900Y292100D01*
X367993Y394007D02*
X368300Y393700D01*
X367993Y394007D02*
Y449036D01*
X367687Y449343D02*
X367993Y449036D01*
X342900Y292100D02*
X431800Y381000D01*
X266700Y279400D02*
X342900D01*
X370581Y329584D02*
X427514Y386516D01*
X261816Y329584D02*
X370581D01*
X365959Y454859D02*
X375854Y464754D01*
X362171Y451071D02*
Y451628D01*
X365402Y454859D01*
X365959D01*
X584200Y241300D02*
X604378D01*
X605568Y242490D01*
Y325562D01*
X593746Y337384D02*
X605568Y325562D01*
X442215Y337384D02*
X593746D01*
X437267Y342332D02*
X442215Y337384D01*
X432368Y342332D02*
X437267D01*
X431800Y342900D02*
X432368Y342332D01*
X584200Y190500D02*
X608410D01*
X609600Y191690D01*
Y330200D01*
X596900Y342900D02*
X609600Y330200D01*
X444500Y342900D02*
X596900D01*
X381000Y393700D02*
Y457200D01*
X393700Y393700D02*
Y457200D01*
X508665Y386516D02*
X526597Y368584D01*
X584200Y508000D02*
X666916Y425284D01*
X526597Y368584D02*
X607749D01*
X666916Y388001D02*
Y425284D01*
X607749Y368584D02*
X613781Y374616D01*
X653531D02*
X666916Y388001D01*
X613781Y374616D02*
X653531D01*
X266700Y368300D02*
Y418800D01*
X209400Y138700D02*
Y139700D01*
Y138700D02*
X221100Y127000D01*
X292100D01*
X304800Y292100D02*
X342900D01*
X264716Y146601D02*
Y150616D01*
X222400Y139700D02*
X257815D01*
X264716Y146601D01*
Y150616D02*
X266700Y152600D01*
X551802Y88900D02*
X559113Y81589D01*
X292100Y266700D02*
X342900D01*
X215689Y190711D02*
Y214163D01*
X209400Y177800D02*
Y184421D01*
X215689Y190711D01*
X209400Y227600D02*
Y228600D01*
X222400D02*
Y245509D01*
X275185Y241300D02*
X277215D01*
X270184Y236299D02*
X275185Y241300D01*
X270184Y235534D02*
Y236299D01*
X266700Y232050D02*
X270184Y235534D01*
X266700Y228800D02*
Y232050D01*
X304800Y368300D02*
Y419100D01*
X342900Y368300D02*
Y418800D01*
X304800Y432100D02*
X330935D01*
X367621Y468786D01*
X331999Y438866D02*
X365951Y472818D01*
X330328Y442898D02*
X372571Y485140D01*
X299301Y438866D02*
X331999D01*
X297631Y442898D02*
X330328D01*
X293299Y438566D02*
X297631Y442898D01*
X292235Y431800D02*
X299301Y438866D01*
X228600Y431800D02*
X258244D01*
X372571Y485140D02*
X389970D01*
X259434Y432990D02*
Y436799D01*
X258244Y431800D02*
X259434Y432990D01*
Y436799D02*
X261201Y438566D01*
X293299D01*
X389970Y485140D02*
X391160Y486330D01*
Y508000D01*
X266700Y431800D02*
X292235D01*
X365951Y472818D02*
X447418D01*
X482600Y508000D01*
X367621Y468786D02*
X468786D01*
X508000Y508000D01*
X375854Y464754D02*
X477656D01*
X495502Y482600D01*
X556273Y505473D02*
X558800Y508000D01*
X556273Y499893D02*
Y505473D01*
X538979Y482600D02*
X556273Y499893D01*
X495502Y482600D02*
X538979D01*
X41400Y441665D02*
X76200Y406865D01*
Y154035D02*
Y406865D01*
X41400Y441665D02*
Y469900D01*
X55084Y292581D02*
X72168Y275497D01*
X55084Y292581D02*
Y323316D01*
X72168Y152365D02*
Y275497D01*
X48600Y329800D02*
X55084Y323316D01*
X68136Y150695D02*
Y170564D01*
X48600Y190100D02*
X68136Y170564D01*
X528764Y80836D02*
X584200Y25400D01*
X46100Y190100D02*
X48600D01*
X46100Y329800D02*
X48600D01*
X559113Y81589D02*
X578811D01*
X228600Y368300D02*
Y418800D01*
X222400Y177800D02*
X238384D01*
X177613Y139700D02*
X209400D01*
X123800D02*
X165100D01*
X177800Y177800D02*
X209400D01*
X123800D02*
X165287D01*
X175313Y228600D02*
X209400D01*
X121500D02*
X162800D01*
X171357Y266700D02*
X202900D01*
X120600D02*
X158843D01*
D46*
X282751Y213978D02*
X286783Y218010D01*
X303416D01*
X256352Y213978D02*
X282751D01*
X303416Y218010D02*
X326706Y241300D01*
X381000D01*
X249660Y220669D02*
X256352Y213978D01*
X249660Y220669D02*
Y243010D01*
X257200Y250550D02*
Y253800D01*
X249660Y243010D02*
X257200Y250550D01*
X276200Y149350D02*
X286140Y139410D01*
X448601D02*
X461591Y152400D01*
X286140Y139410D02*
X448601D01*
X292071Y152400D02*
X381000D01*
X281080Y163390D02*
X292071Y152400D01*
X276200Y149350D02*
Y152600D01*
X265240Y163390D02*
X281080D01*
X257660Y170970D02*
X265240Y163390D01*
X257660Y170970D02*
Y177140D01*
X298440Y254290D02*
X369917D01*
X373949Y258322D01*
X276200Y232050D02*
X298440Y254290D01*
X373949Y258322D02*
X388051D01*
X392083Y254290D02*
X427365D01*
X388051Y258322D02*
X392083Y254290D01*
X461591Y152400D02*
X495300D01*
X257200Y177600D02*
X257660Y177140D01*
X276200Y228800D02*
Y232050D01*
X427365Y254290D02*
X440355Y241300D01*
X495300D01*
D47*
X381000Y25400D02*
X399732Y6668D01*
X637057D01*
X649700Y19311D01*
Y36100D01*
X584200Y101600D02*
X649700Y36100D01*
X11194Y40856D02*
X122516D01*
X-11450Y63500D02*
X11194Y40856D01*
X-38500Y63500D02*
X-11450D01*
X149260Y48480D02*
X161308Y36432D01*
X269643D01*
X122516Y40856D02*
X130140Y48480D01*
X273311Y40100D02*
X364925D01*
X379625Y25400D01*
X381000D01*
X198601Y342900D02*
X228600D01*
X139700Y401801D02*
X198601Y342900D01*
X269643Y36432D02*
X273311Y40100D01*
X130140Y48480D02*
X149260D01*
X0Y456013D02*
X39287Y495300D01*
X95648D02*
X139700Y451248D01*
X39287Y495300D02*
X95648D01*
X139700Y401801D02*
Y451248D01*
X0Y292100D02*
Y456013D01*
X-38100Y254000D02*
X0Y292100D01*
X-38500Y63500D02*
X-38100Y63900D01*
Y254000D01*
X546100Y114300D02*
X635000D01*
X523416Y136984D02*
Y149684D01*
Y136984D02*
X546100Y114300D01*
X520700Y152400D02*
X523416Y149684D01*
X447986Y152400D02*
X463516Y167930D01*
X505170D02*
X520700Y152400D01*
X406400D02*
X447986D01*
X463516Y167930D02*
X505170D01*
X685800Y429650D02*
X698500Y416950D01*
X685800Y429650D02*
Y460500D01*
X698500Y406400D02*
Y416950D01*
X624410Y400050D02*
X630760Y406400D01*
X598500Y400050D02*
X624410D01*
X630760Y406400D02*
X657300D01*
X635000Y114300D02*
X749300Y228600D01*
Y381000D01*
X520700Y152400D02*
Y241300D01*
X406400Y152400D02*
Y241300D01*
X713350Y381000D02*
X749300D01*
X698500Y395850D02*
X713350Y381000D01*
X698500Y395850D02*
Y406400D01*
X685800Y504700D02*
X686320Y504180D01*
X740420D01*
X762000Y482600D01*
D48*
X367060Y342900D02*
X450850Y426690D01*
X589310D01*
X596900Y419100D01*
X342900Y342900D02*
X367060D01*
X304800D02*
X342900D01*
X266700D02*
X304800D01*
X228600D02*
X266700D01*
D49*
X-88500Y63500D02*
D03*
X-63500D02*
D03*
X-38500D02*
D03*
X38900D02*
D03*
X63900D02*
D03*
X88900D02*
D03*
X178200D02*
D03*
X203200D02*
D03*
X228200D02*
D03*
D50*
X762000Y452600D02*
D03*
D51*
Y482600D02*
D03*
D52*
X792000Y492000D02*
D03*
X732000D02*
D03*
D53*
X584200Y139700D02*
D03*
Y165100D02*
D03*
Y215900D02*
D03*
Y266700D02*
D03*
Y241300D02*
D03*
Y190500D02*
D03*
D54*
Y292100D02*
D03*
D55*
X342900Y368300D02*
D03*
X304800D02*
D03*
X266700D02*
D03*
X228600D02*
D03*
D56*
X342900Y342900D02*
D03*
Y317500D02*
D03*
X304800Y342900D02*
D03*
Y317500D02*
D03*
X266700Y342900D02*
D03*
Y317500D02*
D03*
X228600Y342900D02*
D03*
Y317500D02*
D03*
D57*
X635000Y508000D02*
D03*
X457200Y25400D02*
D03*
X416560Y508000D02*
D03*
X508000Y25400D02*
D03*
D58*
X558800Y508000D02*
D03*
X533400D02*
D03*
X508000D02*
D03*
X482600D02*
D03*
X457200D02*
D03*
X609600D02*
D03*
X584200D02*
D03*
X381000Y25400D02*
D03*
X355600D02*
D03*
X330200D02*
D03*
X304800D02*
D03*
X279400D02*
D03*
X431800D02*
D03*
X406400D02*
D03*
X187960Y508000D02*
D03*
X213360D02*
D03*
X238760D02*
D03*
X264160D02*
D03*
X289560D02*
D03*
X314960D02*
D03*
X340360D02*
D03*
X365760D02*
D03*
X391160D02*
D03*
X635000Y25400D02*
D03*
X609600D02*
D03*
X584200D02*
D03*
X558800D02*
D03*
X533400D02*
D03*
D59*
X660400Y355600D02*
D03*
X152400Y508000D02*
D03*
X139700Y25400D02*
D03*
X660400Y76200D02*
D03*
D60*
X800100Y510540D02*
D03*
Y480060D02*
D03*
X792480Y464820D02*
D03*
X800100Y449580D02*
D03*
X792480Y434340D02*
D03*
X800100Y419100D02*
D03*
X792480Y403860D02*
D03*
X800100Y388620D02*
D03*
Y358140D02*
D03*
X792480Y342900D02*
D03*
X800100Y327660D02*
D03*
X792480Y312420D02*
D03*
X800100Y297180D02*
D03*
X792480Y281940D02*
D03*
X800100Y266700D02*
D03*
X792480Y251460D02*
D03*
X800100Y236220D02*
D03*
X792480Y220980D02*
D03*
X800100Y205740D02*
D03*
X792480Y190500D02*
D03*
X800100Y175260D02*
D03*
X792480Y160020D02*
D03*
X800100Y144780D02*
D03*
X792480Y129540D02*
D03*
X800100Y114300D02*
D03*
X792480Y99060D02*
D03*
X800100Y83820D02*
D03*
X792480Y68580D02*
D03*
X800100Y53340D02*
D03*
X792480Y38100D02*
D03*
X800100Y22860D02*
D03*
X784860Y510540D02*
D03*
X777240Y495300D02*
D03*
X784860Y480060D02*
D03*
X777240Y464820D02*
D03*
X784860Y449580D02*
D03*
X777240Y434340D02*
D03*
X784860Y419100D02*
D03*
X777240Y403860D02*
D03*
X784860Y358140D02*
D03*
X777240Y342900D02*
D03*
X784860Y327660D02*
D03*
X777240Y312420D02*
D03*
X784860Y297180D02*
D03*
X777240Y281940D02*
D03*
X784860Y266700D02*
D03*
X777240Y251460D02*
D03*
X784860Y236220D02*
D03*
X777240Y220980D02*
D03*
X784860Y205740D02*
D03*
X777240Y190500D02*
D03*
X784860Y175260D02*
D03*
X777240Y160020D02*
D03*
X784860Y144780D02*
D03*
X777240Y129540D02*
D03*
X784860Y114300D02*
D03*
X777240Y99060D02*
D03*
X784860Y83820D02*
D03*
X777240Y68580D02*
D03*
X784860Y53340D02*
D03*
X777240Y38100D02*
D03*
X784860Y22860D02*
D03*
X777240Y7620D02*
D03*
X769620Y510540D02*
D03*
X762000Y464820D02*
D03*
Y434340D02*
D03*
X769620Y419100D02*
D03*
X762000Y403860D02*
D03*
X769620Y388620D02*
D03*
X762000Y373380D02*
D03*
X769620Y358140D02*
D03*
X762000Y342900D02*
D03*
X769620Y327660D02*
D03*
X762000Y312420D02*
D03*
X769620Y297180D02*
D03*
X762000Y281940D02*
D03*
X769620Y266700D02*
D03*
X762000Y251460D02*
D03*
X769620Y236220D02*
D03*
X762000Y220980D02*
D03*
X769620Y205740D02*
D03*
X762000Y190500D02*
D03*
X769620Y175260D02*
D03*
X762000Y160020D02*
D03*
X769620Y144780D02*
D03*
X762000Y129540D02*
D03*
X769620Y114300D02*
D03*
X762000Y99060D02*
D03*
X769620Y83820D02*
D03*
X762000Y68580D02*
D03*
X769620Y53340D02*
D03*
X762000Y38100D02*
D03*
X769620Y22860D02*
D03*
X762000Y7620D02*
D03*
X754380Y510540D02*
D03*
X746760Y464820D02*
D03*
Y434340D02*
D03*
X754380Y419100D02*
D03*
X746760Y403860D02*
D03*
X754380Y205740D02*
D03*
X746760Y190500D02*
D03*
X754380Y175260D02*
D03*
X746760Y160020D02*
D03*
X754380Y144780D02*
D03*
X746760Y129540D02*
D03*
X754380Y114300D02*
D03*
X746760Y99060D02*
D03*
X754380Y83820D02*
D03*
X746760Y68580D02*
D03*
X754380Y53340D02*
D03*
X746760Y38100D02*
D03*
X754380Y22860D02*
D03*
X746760Y7620D02*
D03*
X739140Y480060D02*
D03*
X731520Y464820D02*
D03*
X739140Y449580D02*
D03*
X731520Y434340D02*
D03*
X739140Y419100D02*
D03*
X731520Y403860D02*
D03*
X739140Y358140D02*
D03*
X731520Y342900D02*
D03*
X739140Y327660D02*
D03*
X731520Y312420D02*
D03*
X739140Y297180D02*
D03*
X731520Y281940D02*
D03*
X739140Y266700D02*
D03*
X731520Y251460D02*
D03*
X739140Y236220D02*
D03*
X731520Y190500D02*
D03*
X739140Y175260D02*
D03*
X731520Y160020D02*
D03*
X739140Y144780D02*
D03*
X731520Y129540D02*
D03*
X739140Y114300D02*
D03*
X731520Y99060D02*
D03*
X739140Y83820D02*
D03*
X731520Y68580D02*
D03*
X739140Y53340D02*
D03*
X731520Y38100D02*
D03*
X739140Y22860D02*
D03*
X731520Y7620D02*
D03*
X723900Y480060D02*
D03*
X716280Y464820D02*
D03*
X723900Y449580D02*
D03*
X716280Y434340D02*
D03*
X723900Y419100D02*
D03*
X716280Y403860D02*
D03*
X723900Y358140D02*
D03*
X716280Y342900D02*
D03*
X723900Y327660D02*
D03*
X716280Y312420D02*
D03*
X723900Y297180D02*
D03*
X716280Y281940D02*
D03*
X723900Y266700D02*
D03*
X716280Y251460D02*
D03*
X723900Y236220D02*
D03*
X716280Y220980D02*
D03*
X723900Y175260D02*
D03*
X716280Y160020D02*
D03*
X723900Y144780D02*
D03*
X716280Y129540D02*
D03*
X723900Y114300D02*
D03*
X716280Y99060D02*
D03*
X723900Y83820D02*
D03*
X716280Y68580D02*
D03*
X723900Y53340D02*
D03*
X716280Y38100D02*
D03*
X723900Y22860D02*
D03*
X716280Y7620D02*
D03*
X708660Y480060D02*
D03*
Y449580D02*
D03*
X701040Y434340D02*
D03*
Y373380D02*
D03*
X708660Y358140D02*
D03*
X701040Y342900D02*
D03*
X708660Y327660D02*
D03*
X701040Y312420D02*
D03*
X708660Y297180D02*
D03*
X701040Y281940D02*
D03*
X708660Y266700D02*
D03*
X701040Y251460D02*
D03*
X708660Y236220D02*
D03*
X701040Y220980D02*
D03*
X708660Y205740D02*
D03*
X701040Y160020D02*
D03*
X708660Y144780D02*
D03*
X701040Y129540D02*
D03*
X708660Y114300D02*
D03*
X701040Y99060D02*
D03*
X708660Y83820D02*
D03*
X701040Y68580D02*
D03*
X708660Y53340D02*
D03*
X701040Y38100D02*
D03*
X708660Y22860D02*
D03*
X701040Y7620D02*
D03*
X693420Y480060D02*
D03*
X685800Y403860D02*
D03*
Y373380D02*
D03*
X693420Y358140D02*
D03*
X685800Y342900D02*
D03*
X693420Y327660D02*
D03*
X685800Y312420D02*
D03*
X693420Y297180D02*
D03*
X685800Y281940D02*
D03*
X693420Y266700D02*
D03*
X685800Y251460D02*
D03*
X693420Y236220D02*
D03*
X685800Y220980D02*
D03*
X693420Y205740D02*
D03*
X685800Y190500D02*
D03*
X693420Y144780D02*
D03*
X685800Y129540D02*
D03*
X693420Y114300D02*
D03*
X685800Y99060D02*
D03*
X693420Y83820D02*
D03*
X685800Y68580D02*
D03*
X693420Y53340D02*
D03*
X685800Y38100D02*
D03*
X693420Y22860D02*
D03*
X685800Y7620D02*
D03*
X678180Y480060D02*
D03*
X670560Y434340D02*
D03*
X678180Y419100D02*
D03*
Y388620D02*
D03*
Y327660D02*
D03*
X670560Y312420D02*
D03*
X678180Y297180D02*
D03*
X670560Y281940D02*
D03*
X678180Y266700D02*
D03*
X670560Y251460D02*
D03*
X678180Y236220D02*
D03*
X670560Y220980D02*
D03*
X678180Y205740D02*
D03*
X670560Y190500D02*
D03*
X678180Y175260D02*
D03*
X670560Y129540D02*
D03*
X678180Y114300D02*
D03*
X670560Y99060D02*
D03*
X678180Y53340D02*
D03*
X670560Y38100D02*
D03*
X678180Y22860D02*
D03*
X670560Y7620D02*
D03*
X662940Y510540D02*
D03*
X655320Y495300D02*
D03*
X662940Y480060D02*
D03*
X655320Y464820D02*
D03*
X662940Y449580D02*
D03*
Y327660D02*
D03*
X655320Y312420D02*
D03*
X662940Y297180D02*
D03*
X655320Y281940D02*
D03*
X662940Y266700D02*
D03*
X655320Y251460D02*
D03*
X662940Y236220D02*
D03*
X655320Y220980D02*
D03*
X662940Y205740D02*
D03*
X655320Y190500D02*
D03*
X662940Y175260D02*
D03*
X655320Y160020D02*
D03*
X662940Y114300D02*
D03*
X655320Y99060D02*
D03*
X662940Y53340D02*
D03*
Y22860D02*
D03*
X655320Y7620D02*
D03*
X647700Y510540D02*
D03*
X640080Y495300D02*
D03*
X647700Y480060D02*
D03*
X640080Y464820D02*
D03*
Y434340D02*
D03*
Y342900D02*
D03*
X647700Y327660D02*
D03*
X640080Y312420D02*
D03*
X647700Y297180D02*
D03*
X640080Y281940D02*
D03*
X647700Y266700D02*
D03*
X640080Y251460D02*
D03*
X647700Y236220D02*
D03*
X640080Y220980D02*
D03*
X647700Y205740D02*
D03*
X640080Y190500D02*
D03*
X647700Y175260D02*
D03*
X640080Y160020D02*
D03*
X647700Y144780D02*
D03*
X640080Y99060D02*
D03*
Y68580D02*
D03*
X647700Y53340D02*
D03*
X624840Y495300D02*
D03*
X632460Y480060D02*
D03*
Y449580D02*
D03*
X624840Y434340D02*
D03*
X632460Y419100D02*
D03*
Y388620D02*
D03*
Y358140D02*
D03*
X624840Y342900D02*
D03*
X632460Y327660D02*
D03*
X624840Y312420D02*
D03*
X632460Y297180D02*
D03*
X624840Y281940D02*
D03*
X632460Y266700D02*
D03*
X624840Y251460D02*
D03*
X632460Y236220D02*
D03*
X624840Y220980D02*
D03*
X632460Y205740D02*
D03*
X624840Y190500D02*
D03*
X632460Y175260D02*
D03*
X624840Y160020D02*
D03*
X632460Y144780D02*
D03*
X624840Y129540D02*
D03*
Y99060D02*
D03*
X632460Y83820D02*
D03*
X609600Y495300D02*
D03*
Y464820D02*
D03*
X617220Y449580D02*
D03*
X609600Y434340D02*
D03*
X617220Y419100D02*
D03*
Y388620D02*
D03*
Y358140D02*
D03*
X609600Y342900D02*
D03*
X617220Y327660D02*
D03*
Y297180D02*
D03*
Y266700D02*
D03*
Y236220D02*
D03*
Y205740D02*
D03*
Y175260D02*
D03*
X609600Y160020D02*
D03*
X617220Y144780D02*
D03*
X609600Y129540D02*
D03*
Y99060D02*
D03*
X617220Y83820D02*
D03*
Y53340D02*
D03*
X609600Y38100D02*
D03*
X601980Y480060D02*
D03*
X594360Y464820D02*
D03*
X601980Y449580D02*
D03*
Y358140D02*
D03*
X594360Y312420D02*
D03*
Y251460D02*
D03*
X601980Y205740D02*
D03*
Y175260D02*
D03*
Y144780D02*
D03*
X594360Y129540D02*
D03*
X579120Y495300D02*
D03*
X586740Y480060D02*
D03*
X579120Y464820D02*
D03*
X586740Y449580D02*
D03*
Y358140D02*
D03*
Y327660D02*
D03*
Y83820D02*
D03*
X579120Y68580D02*
D03*
X571500Y510540D02*
D03*
X563880Y495300D02*
D03*
X571500Y480060D02*
D03*
X563880Y464820D02*
D03*
X571500Y449580D02*
D03*
Y358140D02*
D03*
Y327660D02*
D03*
Y297180D02*
D03*
X563880Y251460D02*
D03*
Y220980D02*
D03*
X571500Y205740D02*
D03*
X563880Y190500D02*
D03*
X571500Y175260D02*
D03*
X563880Y160020D02*
D03*
X571500Y144780D02*
D03*
X563880Y129540D02*
D03*
Y99060D02*
D03*
X571500Y53340D02*
D03*
Y22860D02*
D03*
X556260Y480060D02*
D03*
X548640Y464820D02*
D03*
X556260Y449580D02*
D03*
Y358140D02*
D03*
Y327660D02*
D03*
X548640Y281940D02*
D03*
X556260Y266700D02*
D03*
X548640Y251460D02*
D03*
X556260Y236220D02*
D03*
X548640Y220980D02*
D03*
X556260Y205740D02*
D03*
X548640Y190500D02*
D03*
X556260Y175260D02*
D03*
X548640Y160020D02*
D03*
X556260Y144780D02*
D03*
X548640Y129540D02*
D03*
Y99060D02*
D03*
X533400Y495300D02*
D03*
Y464820D02*
D03*
X541020Y449580D02*
D03*
Y358140D02*
D03*
Y327660D02*
D03*
X533400Y281940D02*
D03*
X541020Y266700D02*
D03*
Y236220D02*
D03*
X533400Y220980D02*
D03*
X541020Y205740D02*
D03*
X533400Y190500D02*
D03*
X541020Y175260D02*
D03*
Y144780D02*
D03*
X533400Y99060D02*
D03*
X541020Y53340D02*
D03*
X533400Y38100D02*
D03*
X518160Y464820D02*
D03*
X525780Y449580D02*
D03*
X518160Y403860D02*
D03*
X525780Y388620D02*
D03*
Y358140D02*
D03*
Y327660D02*
D03*
X518160Y281940D02*
D03*
X525780Y266700D02*
D03*
Y114300D02*
D03*
X518160Y99060D02*
D03*
Y38100D02*
D03*
X502920Y464820D02*
D03*
X510540Y449580D02*
D03*
X502920Y403860D02*
D03*
Y373380D02*
D03*
X510540Y358140D02*
D03*
Y327660D02*
D03*
X502920Y281940D02*
D03*
X510540Y266700D02*
D03*
X502920Y220980D02*
D03*
X510540Y205740D02*
D03*
X502920Y190500D02*
D03*
Y129540D02*
D03*
X510540Y114300D02*
D03*
X502920Y99060D02*
D03*
X510540Y53340D02*
D03*
X502920Y38100D02*
D03*
X495300Y510540D02*
D03*
Y449580D02*
D03*
X487680Y403860D02*
D03*
Y373380D02*
D03*
X495300Y358140D02*
D03*
Y327660D02*
D03*
X487680Y281940D02*
D03*
X495300Y266700D02*
D03*
X487680Y220980D02*
D03*
X495300Y205740D02*
D03*
X487680Y190500D02*
D03*
Y129540D02*
D03*
X495300Y114300D02*
D03*
X487680Y99060D02*
D03*
X495300Y53340D02*
D03*
X487680Y38100D02*
D03*
X472440Y403860D02*
D03*
Y373380D02*
D03*
X480060Y358140D02*
D03*
Y327660D02*
D03*
X472440Y281940D02*
D03*
X480060Y266700D02*
D03*
X472440Y251460D02*
D03*
Y220980D02*
D03*
X480060Y205740D02*
D03*
X472440Y190500D02*
D03*
X480060Y144780D02*
D03*
X472440Y129540D02*
D03*
X480060Y114300D02*
D03*
X472440Y99060D02*
D03*
X480060Y53340D02*
D03*
X464820Y480060D02*
D03*
Y449580D02*
D03*
Y358140D02*
D03*
Y327660D02*
D03*
X457200Y281940D02*
D03*
X464820Y266700D02*
D03*
X457200Y251460D02*
D03*
Y220980D02*
D03*
X464820Y205740D02*
D03*
X457200Y190500D02*
D03*
X464820Y144780D02*
D03*
X457200Y129540D02*
D03*
X464820Y114300D02*
D03*
X457200Y99060D02*
D03*
X464820Y53340D02*
D03*
X441960Y495300D02*
D03*
X449580Y449580D02*
D03*
Y358140D02*
D03*
Y327660D02*
D03*
Y297180D02*
D03*
X441960Y281940D02*
D03*
X449580Y266700D02*
D03*
X441960Y251460D02*
D03*
Y220980D02*
D03*
X449580Y205740D02*
D03*
X441960Y190500D02*
D03*
X449580Y175260D02*
D03*
X441960Y129540D02*
D03*
X449580Y114300D02*
D03*
X441960Y99060D02*
D03*
Y38100D02*
D03*
X434340Y510540D02*
D03*
X426720Y495300D02*
D03*
X434340Y480060D02*
D03*
Y449580D02*
D03*
X426720Y434340D02*
D03*
Y312420D02*
D03*
X434340Y297180D02*
D03*
X426720Y281940D02*
D03*
X434340Y266700D02*
D03*
Y236220D02*
D03*
X426720Y220980D02*
D03*
X434340Y205740D02*
D03*
X426720Y190500D02*
D03*
X434340Y175260D02*
D03*
X426720Y129540D02*
D03*
X434340Y114300D02*
D03*
X426720Y99060D02*
D03*
Y38100D02*
D03*
X411480Y312420D02*
D03*
X419100Y297180D02*
D03*
X411480Y281940D02*
D03*
X419100Y266700D02*
D03*
Y205740D02*
D03*
Y175260D02*
D03*
X411480Y129540D02*
D03*
X419100Y114300D02*
D03*
X411480Y99060D02*
D03*
Y38100D02*
D03*
X419100Y22860D02*
D03*
X403860Y510540D02*
D03*
Y480060D02*
D03*
Y449580D02*
D03*
Y419100D02*
D03*
Y297180D02*
D03*
X396240Y281940D02*
D03*
X403860Y266700D02*
D03*
X396240Y220980D02*
D03*
Y190500D02*
D03*
Y129540D02*
D03*
X403860Y114300D02*
D03*
X396240Y99060D02*
D03*
Y38100D02*
D03*
X388620Y297180D02*
D03*
X381000Y281940D02*
D03*
X388620Y266700D02*
D03*
X381000Y220980D02*
D03*
X388620Y205740D02*
D03*
X381000Y190500D02*
D03*
X388620Y175260D02*
D03*
X381000Y129540D02*
D03*
X388620Y114300D02*
D03*
X381000Y99060D02*
D03*
Y38100D02*
D03*
Y7620D02*
D03*
X365760Y495300D02*
D03*
Y373380D02*
D03*
X373380Y266700D02*
D03*
X365760Y220980D02*
D03*
X373380Y205740D02*
D03*
X365760Y190500D02*
D03*
X373380Y175260D02*
D03*
X365760Y160020D02*
D03*
Y129540D02*
D03*
X373380Y114300D02*
D03*
X365760Y99060D02*
D03*
Y7620D02*
D03*
X350520Y403860D02*
D03*
X358140Y358140D02*
D03*
Y266700D02*
D03*
X350520Y220980D02*
D03*
X358140Y205740D02*
D03*
X350520Y190500D02*
D03*
X358140Y175260D02*
D03*
X350520Y160020D02*
D03*
Y129540D02*
D03*
X358140Y114300D02*
D03*
X350520Y99060D02*
D03*
Y7620D02*
D03*
X335280Y403860D02*
D03*
Y220980D02*
D03*
X342900Y205740D02*
D03*
X335280Y190500D02*
D03*
X342900Y175260D02*
D03*
X335280Y160020D02*
D03*
Y129540D02*
D03*
X342900Y114300D02*
D03*
X335280Y99060D02*
D03*
X342900Y22860D02*
D03*
X335280Y7620D02*
D03*
X327660Y510540D02*
D03*
Y480060D02*
D03*
X320040Y464820D02*
D03*
X327660Y449580D02*
D03*
Y419100D02*
D03*
X320040Y403860D02*
D03*
X327660Y388620D02*
D03*
X320040Y373380D02*
D03*
X327660Y358140D02*
D03*
X320040Y312420D02*
D03*
Y220980D02*
D03*
X327660Y205740D02*
D03*
X320040Y190500D02*
D03*
X327660Y175260D02*
D03*
X320040Y160020D02*
D03*
Y129540D02*
D03*
X327660Y114300D02*
D03*
X320040Y99060D02*
D03*
Y7620D02*
D03*
X304800Y464820D02*
D03*
X312420Y449580D02*
D03*
Y388620D02*
D03*
Y205740D02*
D03*
Y175260D02*
D03*
X304800Y129540D02*
D03*
X312420Y114300D02*
D03*
X304800Y99060D02*
D03*
Y7620D02*
D03*
X289560Y495300D02*
D03*
X297180Y480060D02*
D03*
X289560Y464820D02*
D03*
X297180Y449580D02*
D03*
X289560Y403860D02*
D03*
X297180Y388620D02*
D03*
X289560Y373380D02*
D03*
Y312420D02*
D03*
X297180Y297180D02*
D03*
X289560Y190500D02*
D03*
X297180Y175260D02*
D03*
Y114300D02*
D03*
X289560Y99060D02*
D03*
Y7620D02*
D03*
X274320Y495300D02*
D03*
X281940Y480060D02*
D03*
X274320Y464820D02*
D03*
X281940Y449580D02*
D03*
Y419100D02*
D03*
X274320Y403860D02*
D03*
X281940Y388620D02*
D03*
Y358140D02*
D03*
Y297180D02*
D03*
X274320Y190500D02*
D03*
X281940Y114300D02*
D03*
X274320Y99060D02*
D03*
Y7620D02*
D03*
X259080Y495300D02*
D03*
X266700Y480060D02*
D03*
X259080Y464820D02*
D03*
X266700Y449580D02*
D03*
X259080Y403860D02*
D03*
X266700Y297180D02*
D03*
X259080Y281940D02*
D03*
X266700Y114300D02*
D03*
X259080Y99060D02*
D03*
X266700Y53340D02*
D03*
Y22860D02*
D03*
X259080Y7620D02*
D03*
X251460Y510540D02*
D03*
X243840Y495300D02*
D03*
X251460Y480060D02*
D03*
X243840Y464820D02*
D03*
X251460Y449580D02*
D03*
Y419100D02*
D03*
X243840Y403860D02*
D03*
X251460Y388620D02*
D03*
X243840Y373380D02*
D03*
X251460Y358140D02*
D03*
Y327660D02*
D03*
Y297180D02*
D03*
X243840Y281940D02*
D03*
Y160020D02*
D03*
X251460Y114300D02*
D03*
X243840Y99060D02*
D03*
X251460Y53340D02*
D03*
Y22860D02*
D03*
X243840Y7620D02*
D03*
X228600Y495300D02*
D03*
X236220Y480060D02*
D03*
X228600Y464820D02*
D03*
X236220Y449580D02*
D03*
Y388620D02*
D03*
Y327660D02*
D03*
X228600Y281940D02*
D03*
Y251460D02*
D03*
X236220Y236220D02*
D03*
X228600Y190500D02*
D03*
Y160020D02*
D03*
X236220Y114300D02*
D03*
X228600Y99060D02*
D03*
X236220Y53340D02*
D03*
Y22860D02*
D03*
X228600Y7620D02*
D03*
X213360Y495300D02*
D03*
X220980Y480060D02*
D03*
X213360Y464820D02*
D03*
X220980Y449580D02*
D03*
X213360Y434340D02*
D03*
Y403860D02*
D03*
X220980Y388620D02*
D03*
X213360Y373380D02*
D03*
X220980Y327660D02*
D03*
X213360Y312420D02*
D03*
X220980Y297180D02*
D03*
X213360Y160020D02*
D03*
X220980Y114300D02*
D03*
X213360Y99060D02*
D03*
X220980Y22860D02*
D03*
X213360Y7620D02*
D03*
X198120Y495300D02*
D03*
X205740Y480060D02*
D03*
X198120Y464820D02*
D03*
X205740Y449580D02*
D03*
X198120Y434340D02*
D03*
X205740Y419100D02*
D03*
X198120Y403860D02*
D03*
X205740Y388620D02*
D03*
X198120Y373380D02*
D03*
X205740Y358140D02*
D03*
Y327660D02*
D03*
X198120Y312420D02*
D03*
X205740Y297180D02*
D03*
X198120Y281940D02*
D03*
Y251460D02*
D03*
Y220980D02*
D03*
X205740Y205740D02*
D03*
X198120Y190500D02*
D03*
Y160020D02*
D03*
Y129540D02*
D03*
X205740Y114300D02*
D03*
X198120Y99060D02*
D03*
X205740Y22860D02*
D03*
X198120Y7620D02*
D03*
X182880Y495300D02*
D03*
X190500Y480060D02*
D03*
X182880Y464820D02*
D03*
X190500Y449580D02*
D03*
X182880Y434340D02*
D03*
X190500Y419100D02*
D03*
X182880Y403860D02*
D03*
X190500Y388620D02*
D03*
X182880Y373380D02*
D03*
Y342900D02*
D03*
X190500Y327660D02*
D03*
X182880Y312420D02*
D03*
X190500Y297180D02*
D03*
X182880Y281940D02*
D03*
Y251460D02*
D03*
X190500Y236220D02*
D03*
Y205740D02*
D03*
X182880Y190500D02*
D03*
Y160020D02*
D03*
Y129540D02*
D03*
X190500Y114300D02*
D03*
X182880Y99060D02*
D03*
X190500Y22860D02*
D03*
X182880Y7620D02*
D03*
X175260Y510540D02*
D03*
Y480060D02*
D03*
X167640Y464820D02*
D03*
X175260Y449580D02*
D03*
X167640Y434340D02*
D03*
X175260Y419100D02*
D03*
X167640Y403860D02*
D03*
X175260Y388620D02*
D03*
X167640Y342900D02*
D03*
X175260Y327660D02*
D03*
X167640Y312420D02*
D03*
X175260Y297180D02*
D03*
X167640Y281940D02*
D03*
Y251460D02*
D03*
X175260Y205740D02*
D03*
X167640Y190500D02*
D03*
Y160020D02*
D03*
Y129540D02*
D03*
X175260Y114300D02*
D03*
X167640Y99060D02*
D03*
X175260Y22860D02*
D03*
X167640Y7620D02*
D03*
X160020Y480060D02*
D03*
X152400Y464820D02*
D03*
X160020Y449580D02*
D03*
X152400Y434340D02*
D03*
X160020Y419100D02*
D03*
X152400Y403860D02*
D03*
Y373380D02*
D03*
X160020Y358140D02*
D03*
X152400Y342900D02*
D03*
X160020Y327660D02*
D03*
X152400Y312420D02*
D03*
X160020Y297180D02*
D03*
X152400Y281940D02*
D03*
Y251460D02*
D03*
Y220980D02*
D03*
X160020Y205740D02*
D03*
X152400Y190500D02*
D03*
Y160020D02*
D03*
Y129540D02*
D03*
X160020Y114300D02*
D03*
X152400Y99060D02*
D03*
Y68580D02*
D03*
Y7620D02*
D03*
X144780Y480060D02*
D03*
X137160Y373380D02*
D03*
X144780Y358140D02*
D03*
X137160Y342900D02*
D03*
X144780Y327660D02*
D03*
X137160Y312420D02*
D03*
X144780Y297180D02*
D03*
X137160Y281940D02*
D03*
Y251460D02*
D03*
X144780Y236220D02*
D03*
X137160Y220980D02*
D03*
X144780Y205740D02*
D03*
X137160Y190500D02*
D03*
Y160020D02*
D03*
Y129540D02*
D03*
X144780Y114300D02*
D03*
X137160Y68580D02*
D03*
X129540Y510540D02*
D03*
X121920Y495300D02*
D03*
X129540Y480060D02*
D03*
X121920Y434340D02*
D03*
X129540Y419100D02*
D03*
X121920Y403860D02*
D03*
X129540Y388620D02*
D03*
X121920Y373380D02*
D03*
X129540Y358140D02*
D03*
X121920Y342900D02*
D03*
X129540Y327660D02*
D03*
X121920Y312420D02*
D03*
X129540Y297180D02*
D03*
X121920Y281940D02*
D03*
Y251460D02*
D03*
X129540Y205740D02*
D03*
X121920Y190500D02*
D03*
Y160020D02*
D03*
Y129540D02*
D03*
X129540Y114300D02*
D03*
X121920Y68580D02*
D03*
Y7620D02*
D03*
X114300Y510540D02*
D03*
X106680Y464820D02*
D03*
X114300Y449580D02*
D03*
X106680Y434340D02*
D03*
X114300Y419100D02*
D03*
X106680Y403860D02*
D03*
X114300Y388620D02*
D03*
X106680Y373380D02*
D03*
X114300Y358140D02*
D03*
X106680Y342900D02*
D03*
X114300Y327660D02*
D03*
X106680Y312420D02*
D03*
X114300Y297180D02*
D03*
X106680Y281940D02*
D03*
Y251460D02*
D03*
X114300Y205740D02*
D03*
X106680Y190500D02*
D03*
X114300Y175260D02*
D03*
X106680Y160020D02*
D03*
X114300Y144780D02*
D03*
X106680Y99060D02*
D03*
X114300Y83820D02*
D03*
X106680Y68580D02*
D03*
X114300Y22860D02*
D03*
X106680Y7620D02*
D03*
X99060Y510540D02*
D03*
X91440Y464820D02*
D03*
X99060Y449580D02*
D03*
X91440Y434340D02*
D03*
X99060Y419100D02*
D03*
X91440Y403860D02*
D03*
X99060Y388620D02*
D03*
X91440Y373380D02*
D03*
X99060Y358140D02*
D03*
X91440Y342900D02*
D03*
X99060Y327660D02*
D03*
X91440Y312420D02*
D03*
X99060Y297180D02*
D03*
X91440Y281940D02*
D03*
Y251460D02*
D03*
Y220980D02*
D03*
X99060Y205740D02*
D03*
X91440Y190500D02*
D03*
Y160020D02*
D03*
Y99060D02*
D03*
X99060Y83820D02*
D03*
Y22860D02*
D03*
X91440Y7620D02*
D03*
X83820Y510540D02*
D03*
Y480060D02*
D03*
X76200Y464820D02*
D03*
X83820Y449580D02*
D03*
X76200Y434340D02*
D03*
X83820Y419100D02*
D03*
Y388620D02*
D03*
Y358140D02*
D03*
Y327660D02*
D03*
Y297180D02*
D03*
Y266700D02*
D03*
Y236220D02*
D03*
Y205740D02*
D03*
Y175260D02*
D03*
X76200Y129540D02*
D03*
X83820Y114300D02*
D03*
X76200Y99060D02*
D03*
X83820Y22860D02*
D03*
X76200Y7620D02*
D03*
X68580Y510540D02*
D03*
Y480060D02*
D03*
X60960Y464820D02*
D03*
X68580Y449580D02*
D03*
X60960Y434340D02*
D03*
Y403860D02*
D03*
X68580Y388620D02*
D03*
X60960Y373380D02*
D03*
X68580Y358140D02*
D03*
X60960Y342900D02*
D03*
X68580Y327660D02*
D03*
X60960Y312420D02*
D03*
X68580Y297180D02*
D03*
X60960Y251460D02*
D03*
Y220980D02*
D03*
Y190500D02*
D03*
Y160020D02*
D03*
Y129540D02*
D03*
X68580Y114300D02*
D03*
X60960Y99060D02*
D03*
X68580Y22860D02*
D03*
X60960Y7620D02*
D03*
X53340Y510540D02*
D03*
Y449580D02*
D03*
X45720Y403860D02*
D03*
X53340Y388620D02*
D03*
X45720Y373380D02*
D03*
X53340Y358140D02*
D03*
X45720Y342900D02*
D03*
Y312420D02*
D03*
X53340Y266700D02*
D03*
X45720Y251460D02*
D03*
X53340Y236220D02*
D03*
X45720Y220980D02*
D03*
X53340Y205740D02*
D03*
Y175260D02*
D03*
X45720Y160020D02*
D03*
X53340Y114300D02*
D03*
X45720Y99060D02*
D03*
X53340Y53340D02*
D03*
Y22860D02*
D03*
X45720Y7620D02*
D03*
X38100Y510540D02*
D03*
X30480Y434340D02*
D03*
Y403860D02*
D03*
X38100Y388620D02*
D03*
X30480Y373380D02*
D03*
X38100Y358140D02*
D03*
X30480Y342900D02*
D03*
Y312420D02*
D03*
X38100Y297180D02*
D03*
X30480Y281940D02*
D03*
X38100Y266700D02*
D03*
X30480Y251460D02*
D03*
X38100Y236220D02*
D03*
X30480Y220980D02*
D03*
X38100Y205740D02*
D03*
X30480Y190500D02*
D03*
X38100Y175260D02*
D03*
X30480Y160020D02*
D03*
Y129540D02*
D03*
X38100Y114300D02*
D03*
X30480Y99060D02*
D03*
X38100Y22860D02*
D03*
X30480Y7620D02*
D03*
X22860Y510540D02*
D03*
X15240Y495300D02*
D03*
X22860Y449580D02*
D03*
X15240Y434340D02*
D03*
X22860Y419100D02*
D03*
X15240Y403860D02*
D03*
X22860Y388620D02*
D03*
X15240Y373380D02*
D03*
X22860Y358140D02*
D03*
X15240Y342900D02*
D03*
X22860Y327660D02*
D03*
X15240Y312420D02*
D03*
X22860Y297180D02*
D03*
X15240Y281940D02*
D03*
X22860Y266700D02*
D03*
X15240Y251460D02*
D03*
X22860Y236220D02*
D03*
X15240Y220980D02*
D03*
X22860Y205740D02*
D03*
X15240Y190500D02*
D03*
X22860Y175260D02*
D03*
X15240Y160020D02*
D03*
X22860Y144780D02*
D03*
X15240Y129540D02*
D03*
X22860Y114300D02*
D03*
X15240Y99060D02*
D03*
X22860Y53340D02*
D03*
Y22860D02*
D03*
X15240Y7620D02*
D03*
X7620Y510540D02*
D03*
X0Y495300D02*
D03*
X7620Y480060D02*
D03*
Y266700D02*
D03*
X0Y251460D02*
D03*
X7620Y236220D02*
D03*
X0Y220980D02*
D03*
X7620Y205740D02*
D03*
X0Y190500D02*
D03*
X7620Y175260D02*
D03*
X0Y160020D02*
D03*
X7620Y144780D02*
D03*
X0Y129540D02*
D03*
X7620Y114300D02*
D03*
X0Y99060D02*
D03*
Y38100D02*
D03*
X7620Y22860D02*
D03*
X0Y7620D02*
D03*
X-7620Y510540D02*
D03*
X-15240Y495300D02*
D03*
X-7620Y480060D02*
D03*
X-15240Y464820D02*
D03*
Y434340D02*
D03*
Y403860D02*
D03*
Y373380D02*
D03*
Y342900D02*
D03*
Y312420D02*
D03*
X-7620Y266700D02*
D03*
X-15240Y251460D02*
D03*
X-7620Y236220D02*
D03*
X-15240Y220980D02*
D03*
X-7620Y205740D02*
D03*
X-15240Y190500D02*
D03*
X-7620Y175260D02*
D03*
X-15240Y160020D02*
D03*
X-7620Y144780D02*
D03*
X-15240Y129540D02*
D03*
X-7620Y114300D02*
D03*
X-15240Y99060D02*
D03*
Y38100D02*
D03*
X-7620Y22860D02*
D03*
X-15240Y7620D02*
D03*
X-22860Y510540D02*
D03*
X-30480Y495300D02*
D03*
X-22860Y480060D02*
D03*
X-30480Y464820D02*
D03*
X-22860Y449580D02*
D03*
X-30480Y434340D02*
D03*
X-22860Y419100D02*
D03*
X-30480Y403860D02*
D03*
X-22860Y388620D02*
D03*
X-30480Y373380D02*
D03*
X-22860Y358140D02*
D03*
X-30480Y342900D02*
D03*
X-22860Y327660D02*
D03*
X-30480Y312420D02*
D03*
X-22860Y297180D02*
D03*
X-30480Y281940D02*
D03*
X-22860Y236220D02*
D03*
Y205740D02*
D03*
Y175260D02*
D03*
Y144780D02*
D03*
Y114300D02*
D03*
Y53340D02*
D03*
X-30480Y38100D02*
D03*
X-22860Y22860D02*
D03*
X-30480Y7620D02*
D03*
X-38100Y510540D02*
D03*
X-45720Y495300D02*
D03*
X-38100Y480060D02*
D03*
X-45720Y464820D02*
D03*
X-38100Y449580D02*
D03*
X-45720Y434340D02*
D03*
X-38100Y419100D02*
D03*
X-45720Y403860D02*
D03*
X-38100Y388620D02*
D03*
X-45720Y373380D02*
D03*
X-38100Y358140D02*
D03*
X-45720Y342900D02*
D03*
X-38100Y327660D02*
D03*
X-45720Y312420D02*
D03*
X-38100Y297180D02*
D03*
X-45720Y281940D02*
D03*
Y38100D02*
D03*
X-38100Y22860D02*
D03*
X-45720Y7620D02*
D03*
X-53340Y510540D02*
D03*
X-60960Y495300D02*
D03*
X-53340Y480060D02*
D03*
X-60960Y464820D02*
D03*
X-53340Y449580D02*
D03*
X-60960Y434340D02*
D03*
X-53340Y419100D02*
D03*
X-60960Y403860D02*
D03*
X-53340Y388620D02*
D03*
X-60960Y373380D02*
D03*
X-53340Y358140D02*
D03*
X-60960Y342900D02*
D03*
X-53340Y327660D02*
D03*
X-60960Y312420D02*
D03*
X-53340Y297180D02*
D03*
X-60960Y281940D02*
D03*
X-53340Y266700D02*
D03*
X-60960Y251460D02*
D03*
X-53340Y236220D02*
D03*
X-60960Y220980D02*
D03*
X-53340Y205740D02*
D03*
X-60960Y190500D02*
D03*
X-53340Y175260D02*
D03*
X-60960Y160020D02*
D03*
X-53340Y144780D02*
D03*
X-60960Y129540D02*
D03*
X-53340Y114300D02*
D03*
X-60960Y99060D02*
D03*
X-53340Y83820D02*
D03*
Y53340D02*
D03*
X-60960Y38100D02*
D03*
X-53340Y22860D02*
D03*
X-60960Y7620D02*
D03*
X-68580Y510540D02*
D03*
X-76200Y495300D02*
D03*
X-68580Y480060D02*
D03*
X-76200Y464820D02*
D03*
X-68580Y449580D02*
D03*
X-76200Y434340D02*
D03*
X-68580Y419100D02*
D03*
X-76200Y403860D02*
D03*
X-68580Y388620D02*
D03*
X-76200Y373380D02*
D03*
X-68580Y358140D02*
D03*
X-76200Y342900D02*
D03*
X-68580Y327660D02*
D03*
X-76200Y312420D02*
D03*
X-68580Y297180D02*
D03*
X-76200Y281940D02*
D03*
X-68580Y266700D02*
D03*
X-76200Y251460D02*
D03*
X-68580Y236220D02*
D03*
X-76200Y220980D02*
D03*
X-68580Y205740D02*
D03*
X-76200Y190500D02*
D03*
X-68580Y175260D02*
D03*
X-76200Y160020D02*
D03*
X-68580Y144780D02*
D03*
X-76200Y129540D02*
D03*
X-68580Y114300D02*
D03*
X-76200Y99060D02*
D03*
X-68580Y83820D02*
D03*
X-76200Y68580D02*
D03*
Y38100D02*
D03*
X-68580Y22860D02*
D03*
X-76200Y7620D02*
D03*
X-83820Y510540D02*
D03*
X-91440Y495300D02*
D03*
X-83820Y480060D02*
D03*
Y449580D02*
D03*
X-91440Y434340D02*
D03*
X-83820Y419100D02*
D03*
X-91440Y403860D02*
D03*
X-83820Y388620D02*
D03*
X-91440Y373380D02*
D03*
X-83820Y358140D02*
D03*
X-91440Y342900D02*
D03*
Y312420D02*
D03*
X-83820Y297180D02*
D03*
Y266700D02*
D03*
X-91440Y251460D02*
D03*
X-83820Y236220D02*
D03*
X-91440Y220980D02*
D03*
X-83820Y205740D02*
D03*
Y175260D02*
D03*
X-91440Y160020D02*
D03*
X-83820Y114300D02*
D03*
X-91440Y99060D02*
D03*
X-83820Y83820D02*
D03*
X-91440Y38100D02*
D03*
X-83820Y22860D02*
D03*
X-91440Y7620D02*
D03*
X-99060Y510540D02*
D03*
X-106680Y495300D02*
D03*
X-99060Y449580D02*
D03*
X-106680Y434340D02*
D03*
Y403860D02*
D03*
X-99060Y388620D02*
D03*
X-106680Y373380D02*
D03*
X-99060Y358140D02*
D03*
X-106680Y342900D02*
D03*
Y312420D02*
D03*
X-99060Y297180D02*
D03*
Y266700D02*
D03*
X-106680Y251460D02*
D03*
X-99060Y236220D02*
D03*
X-106680Y220980D02*
D03*
X-99060Y205740D02*
D03*
Y175260D02*
D03*
X-106680Y160020D02*
D03*
X-99060Y114300D02*
D03*
X-106680Y99060D02*
D03*
X-99060Y83820D02*
D03*
X-106680Y68580D02*
D03*
X-99060Y53340D02*
D03*
X-106680Y38100D02*
D03*
X-99060Y22860D02*
D03*
X-114300Y510540D02*
D03*
X-121920Y495300D02*
D03*
Y464820D02*
D03*
X-114300Y449580D02*
D03*
X-121920Y434340D02*
D03*
Y403860D02*
D03*
X-114300Y388620D02*
D03*
X-121920Y373380D02*
D03*
X-114300Y358140D02*
D03*
X-121920Y342900D02*
D03*
X-114300Y327660D02*
D03*
X-121920Y312420D02*
D03*
X-114300Y297180D02*
D03*
X-121920Y281940D02*
D03*
X-114300Y266700D02*
D03*
X-121920Y251460D02*
D03*
X-114300Y236220D02*
D03*
X-121920Y220980D02*
D03*
X-114300Y205740D02*
D03*
X-121920Y190500D02*
D03*
X-114300Y175260D02*
D03*
X-121920Y160020D02*
D03*
X-114300Y144780D02*
D03*
X-121920Y129540D02*
D03*
X-114300Y114300D02*
D03*
X-121920Y99060D02*
D03*
X-114300Y83820D02*
D03*
X-121920Y68580D02*
D03*
X-114300Y53340D02*
D03*
X-121920Y38100D02*
D03*
X-114300Y22860D02*
D03*
X0Y88900D02*
D03*
X457200Y317500D02*
D03*
X368300Y381000D02*
D03*
X357994Y439402D02*
D03*
X431800Y330200D02*
D03*
X368300Y393700D02*
D03*
X367687Y449343D02*
D03*
X431800Y342900D02*
D03*
X381000Y393700D02*
D03*
Y457200D02*
D03*
X444500Y342900D02*
D03*
X393700Y393700D02*
D03*
Y457200D02*
D03*
X292100Y127000D02*
D03*
X304800Y292100D02*
D03*
X431800Y381000D02*
D03*
X215689Y214163D02*
D03*
X266700Y279400D02*
D03*
X444500Y381000D02*
D03*
X457200D02*
D03*
X292100Y203200D02*
D03*
Y266700D02*
D03*
D61*
X584200Y101600D02*
D03*
M02*
