G04*
G04 #@! TF.GenerationSoftware,Altium Limited,Altium Designer,25.2.1 (25)*
G04*
G04 Layer_Color=12632256*
%FSLAX44Y44*%
%MOMM*%
G71*
G04*
G04 #@! TF.SameCoordinates,3C1D010B-D615-4C1A-A092-7D16AA53BB1E*
G04*
G04*
G04 #@! TF.FilePolarity,Positive*
G04*
G01*
G75*
%ADD38R,1.6900X1.6900*%
%ADD39C,1.6900*%
%ADD49C,1.5000*%
%ADD50R,1.5050X1.5050*%
%ADD51C,1.5050*%
%ADD52C,1.0200*%
%ADD53C,1.6000*%
G04:AMPARAMS|DCode=54|XSize=1.6mm|YSize=1.6mm|CornerRadius=0.4mm|HoleSize=0mm|Usage=FLASHONLY|Rotation=270.000|XOffset=0mm|YOffset=0mm|HoleType=Round|Shape=RoundedRectangle|*
%AMROUNDEDRECTD54*
21,1,1.6000,0.8000,0,0,270.0*
21,1,0.8000,1.6000,0,0,270.0*
1,1,0.8000,-0.4000,-0.4000*
1,1,0.8000,-0.4000,0.4000*
1,1,0.8000,0.4000,0.4000*
1,1,0.8000,0.4000,-0.4000*
%
%ADD54ROUNDEDRECTD54*%
%ADD55R,1.5500X1.5500*%
%ADD56C,1.5500*%
%ADD57R,1.5240X1.5240*%
%ADD58C,1.5240*%
%ADD59C,3.2000*%
D38*
X406400Y241300D02*
D03*
Y152400D02*
D03*
X520700D02*
D03*
Y241300D02*
D03*
D39*
X381000D02*
D03*
Y152400D02*
D03*
X495300D02*
D03*
Y241300D02*
D03*
D49*
X-88500Y63500D02*
D03*
X-63500D02*
D03*
X-38500D02*
D03*
X38900D02*
D03*
X63900D02*
D03*
X88900D02*
D03*
X178200D02*
D03*
X203200D02*
D03*
X228200D02*
D03*
D50*
X762000Y452600D02*
D03*
D51*
Y482600D02*
D03*
D52*
X792000Y492000D02*
D03*
X732000D02*
D03*
D53*
X584200Y139700D02*
D03*
Y165100D02*
D03*
Y215900D02*
D03*
Y266700D02*
D03*
Y241300D02*
D03*
Y190500D02*
D03*
D54*
Y292100D02*
D03*
D55*
X342900Y368300D02*
D03*
X304800D02*
D03*
X266700D02*
D03*
X228600D02*
D03*
D56*
X342900Y342900D02*
D03*
Y317500D02*
D03*
X304800Y342900D02*
D03*
Y317500D02*
D03*
X266700Y342900D02*
D03*
Y317500D02*
D03*
X228600Y342900D02*
D03*
Y317500D02*
D03*
D57*
X635000Y508000D02*
D03*
X457200Y25400D02*
D03*
X416560Y508000D02*
D03*
X508000Y25400D02*
D03*
D58*
X558800Y508000D02*
D03*
X533400D02*
D03*
X508000D02*
D03*
X482600D02*
D03*
X457200D02*
D03*
X609600D02*
D03*
X584200D02*
D03*
X381000Y25400D02*
D03*
X355600D02*
D03*
X330200D02*
D03*
X304800D02*
D03*
X279400D02*
D03*
X431800D02*
D03*
X406400D02*
D03*
X187960Y508000D02*
D03*
X213360D02*
D03*
X238760D02*
D03*
X264160D02*
D03*
X289560D02*
D03*
X314960D02*
D03*
X340360D02*
D03*
X365760D02*
D03*
X391160D02*
D03*
X635000Y25400D02*
D03*
X609600D02*
D03*
X584200D02*
D03*
X558800D02*
D03*
X533400D02*
D03*
D59*
X660400Y355600D02*
D03*
X152400Y508000D02*
D03*
X139700Y25400D02*
D03*
X660400Y76200D02*
D03*
M02*
