G04*
G04 #@! TF.GenerationSoftware,Altium Limited,Altium Designer,25.2.1 (25)*
G04*
G04 Layer_Color=16711935*
%FSLAX44Y44*%
%MOMM*%
G71*
G04*
G04 #@! TF.SameCoordinates,3C1D010B-D615-4C1A-A092-7D16AA53BB1E*
G04*
G04*
G04 #@! TF.FilePolarity,Positive*
G04*
G01*
G75*
%ADD10C,0.2000*%
G36*
X120330Y233245D02*
X120450Y233227D01*
X120598Y233199D01*
X120765Y233153D01*
X120931Y233097D01*
X121098Y233023D01*
X121107D01*
X121116Y233014D01*
X121172Y232986D01*
X121255Y232931D01*
X121347Y232866D01*
X121458Y232773D01*
X121569Y232672D01*
X121680Y232551D01*
X121773Y232413D01*
X121782Y232394D01*
X121810Y232348D01*
X121847Y232265D01*
X121893Y232163D01*
X121939Y232043D01*
X121976Y231904D01*
X122004Y231747D01*
X122013Y231590D01*
Y231572D01*
Y231516D01*
X122004Y231442D01*
X121985Y231340D01*
X121958Y231220D01*
X121911Y231091D01*
X121856Y230961D01*
X121782Y230832D01*
X121773Y230813D01*
X121745Y230776D01*
X121689Y230712D01*
X121615Y230638D01*
X121523Y230555D01*
X121412Y230462D01*
X121283Y230379D01*
X121125Y230296D01*
X121135D01*
X121153Y230286D01*
X121181Y230277D01*
X121218Y230268D01*
X121320Y230231D01*
X121449Y230175D01*
X121597Y230101D01*
X121745Y230009D01*
X121884Y229889D01*
X122013Y229750D01*
X122022Y229732D01*
X122059Y229676D01*
X122115Y229584D01*
X122170Y229464D01*
X122226Y229316D01*
X122281Y229140D01*
X122318Y228937D01*
X122327Y228715D01*
Y228705D01*
Y228678D01*
Y228631D01*
X122318Y228576D01*
X122309Y228502D01*
X122290Y228419D01*
X122272Y228326D01*
X122253Y228225D01*
X122179Y228003D01*
X122124Y227882D01*
X122069Y227772D01*
X121994Y227651D01*
X121911Y227531D01*
X121819Y227411D01*
X121708Y227300D01*
X121699Y227291D01*
X121680Y227272D01*
X121643Y227245D01*
X121597Y227208D01*
X121542Y227161D01*
X121468Y227115D01*
X121384Y227060D01*
X121283Y227013D01*
X121181Y226958D01*
X121061Y226903D01*
X120941Y226856D01*
X120802Y226810D01*
X120654Y226773D01*
X120497Y226745D01*
X120339Y226727D01*
X120164Y226718D01*
X120081D01*
X120025Y226727D01*
X119951Y226736D01*
X119868Y226745D01*
X119776Y226764D01*
X119674Y226782D01*
X119452Y226838D01*
X119221Y226930D01*
X119101Y226986D01*
X118990Y227050D01*
X118879Y227134D01*
X118768Y227217D01*
X118758Y227226D01*
X118740Y227245D01*
X118712Y227272D01*
X118685Y227309D01*
X118638Y227355D01*
X118592Y227420D01*
X118537Y227485D01*
X118481Y227568D01*
X118426Y227661D01*
X118370Y227753D01*
X118268Y227975D01*
X118185Y228234D01*
X118158Y228372D01*
X118139Y228520D01*
X118925Y228622D01*
Y228613D01*
X118934Y228594D01*
X118944Y228557D01*
X118953Y228511D01*
X118962Y228456D01*
X118980Y228391D01*
X119027Y228252D01*
X119091Y228086D01*
X119175Y227929D01*
X119267Y227781D01*
X119378Y227651D01*
X119396Y227642D01*
X119433Y227605D01*
X119507Y227559D01*
X119600Y227513D01*
X119711Y227457D01*
X119850Y227411D01*
X120007Y227374D01*
X120173Y227365D01*
X120229D01*
X120266Y227374D01*
X120367Y227383D01*
X120497Y227411D01*
X120645Y227457D01*
X120802Y227522D01*
X120959Y227614D01*
X121107Y227744D01*
X121125Y227762D01*
X121172Y227818D01*
X121227Y227901D01*
X121301Y228012D01*
X121375Y228151D01*
X121431Y228308D01*
X121477Y228493D01*
X121495Y228696D01*
Y228705D01*
Y228724D01*
Y228752D01*
X121486Y228789D01*
X121477Y228890D01*
X121449Y229011D01*
X121412Y229158D01*
X121347Y229306D01*
X121255Y229454D01*
X121135Y229593D01*
X121116Y229611D01*
X121070Y229648D01*
X120996Y229704D01*
X120894Y229769D01*
X120765Y229833D01*
X120608Y229889D01*
X120432Y229926D01*
X120238Y229944D01*
X120155D01*
X120090Y229935D01*
X120007Y229926D01*
X119914Y229907D01*
X119803Y229889D01*
X119683Y229861D01*
X119776Y230555D01*
X119822D01*
X119859Y230545D01*
X119979D01*
X120081Y230564D01*
X120201Y230582D01*
X120339Y230610D01*
X120497Y230656D01*
X120645Y230721D01*
X120802Y230804D01*
X120811D01*
X120820Y230813D01*
X120866Y230850D01*
X120931Y230915D01*
X121005Y230998D01*
X121079Y231119D01*
X121144Y231257D01*
X121190Y231414D01*
X121209Y231507D01*
Y231609D01*
Y231618D01*
Y231627D01*
Y231682D01*
X121190Y231756D01*
X121172Y231858D01*
X121135Y231969D01*
X121088Y232089D01*
X121014Y232209D01*
X120913Y232320D01*
X120904Y232330D01*
X120857Y232367D01*
X120793Y232413D01*
X120709Y232468D01*
X120598Y232514D01*
X120469Y232561D01*
X120321Y232598D01*
X120155Y232607D01*
X120081D01*
X119997Y232589D01*
X119887Y232570D01*
X119766Y232533D01*
X119646Y232487D01*
X119517Y232413D01*
X119396Y232320D01*
X119387Y232311D01*
X119350Y232265D01*
X119295Y232200D01*
X119230Y232108D01*
X119165Y231987D01*
X119101Y231840D01*
X119045Y231664D01*
X119008Y231460D01*
X118222Y231599D01*
Y231609D01*
X118231Y231636D01*
X118241Y231673D01*
X118250Y231729D01*
X118268Y231793D01*
X118296Y231867D01*
X118352Y232043D01*
X118444Y232246D01*
X118555Y232450D01*
X118694Y232644D01*
X118869Y232820D01*
X118879Y232829D01*
X118897Y232838D01*
X118925Y232857D01*
X118962Y232884D01*
X119008Y232921D01*
X119073Y232958D01*
X119138Y232995D01*
X119221Y233041D01*
X119406Y233116D01*
X119618Y233190D01*
X119868Y233236D01*
X119997Y233254D01*
X120229D01*
X120330Y233245D01*
D02*
G37*
G36*
X114626Y233217D02*
X114811Y233208D01*
X114996Y233190D01*
X115181Y233162D01*
X115338Y233134D01*
X115347D01*
X115365Y233125D01*
X115393D01*
X115430Y233106D01*
X115532Y233078D01*
X115661Y233032D01*
X115809Y232968D01*
X115966Y232884D01*
X116124Y232792D01*
X116271Y232672D01*
X116281Y232663D01*
X116290Y232653D01*
X116318Y232626D01*
X116355Y232598D01*
X116447Y232505D01*
X116558Y232376D01*
X116678Y232219D01*
X116808Y232034D01*
X116928Y231821D01*
X117030Y231581D01*
Y231572D01*
X117039Y231553D01*
X117057Y231516D01*
X117067Y231460D01*
X117094Y231396D01*
X117113Y231322D01*
X117131Y231239D01*
X117159Y231137D01*
X117187Y231035D01*
X117205Y230915D01*
X117252Y230656D01*
X117279Y230370D01*
X117289Y230055D01*
Y230046D01*
Y230028D01*
Y229981D01*
Y229935D01*
X117279Y229870D01*
Y229796D01*
X117270Y229621D01*
X117242Y229417D01*
X117214Y229205D01*
X117168Y228983D01*
X117113Y228761D01*
Y228752D01*
X117104Y228733D01*
X117094Y228705D01*
X117085Y228668D01*
X117048Y228567D01*
X116993Y228437D01*
X116937Y228289D01*
X116863Y228141D01*
X116771Y227984D01*
X116678Y227836D01*
X116669Y227818D01*
X116632Y227772D01*
X116577Y227707D01*
X116503Y227624D01*
X116419Y227531D01*
X116318Y227439D01*
X116216Y227337D01*
X116096Y227254D01*
X116077Y227245D01*
X116040Y227217D01*
X115976Y227180D01*
X115883Y227134D01*
X115772Y227078D01*
X115643Y227032D01*
X115495Y226976D01*
X115328Y226930D01*
X115310D01*
X115282Y226921D01*
X115254Y226912D01*
X115162Y226903D01*
X115033Y226884D01*
X114885Y226866D01*
X114709Y226847D01*
X114515Y226838D01*
X114302Y226828D01*
X112000D01*
Y233227D01*
X114459D01*
X114626Y233217D01*
D02*
G37*
G36*
X123730Y140073D02*
X124600D01*
Y139352D01*
X123730D01*
Y137818D01*
X122945D01*
Y139352D01*
X120162D01*
Y140073D01*
X123093Y144215D01*
X123730D01*
Y140073D01*
D02*
G37*
G36*
X116926Y144206D02*
X117111Y144197D01*
X117296Y144178D01*
X117480Y144151D01*
X117638Y144123D01*
X117647D01*
X117665Y144114D01*
X117693D01*
X117730Y144095D01*
X117832Y144068D01*
X117961Y144021D01*
X118109Y143957D01*
X118266Y143873D01*
X118424Y143781D01*
X118572Y143661D01*
X118581Y143652D01*
X118590Y143642D01*
X118618Y143615D01*
X118655Y143587D01*
X118747Y143494D01*
X118858Y143365D01*
X118978Y143208D01*
X119108Y143023D01*
X119228Y142810D01*
X119330Y142570D01*
Y142561D01*
X119339Y142542D01*
X119357Y142505D01*
X119367Y142450D01*
X119394Y142385D01*
X119413Y142311D01*
X119431Y142228D01*
X119459Y142126D01*
X119487Y142024D01*
X119505Y141904D01*
X119551Y141645D01*
X119579Y141359D01*
X119588Y141044D01*
Y141035D01*
Y141017D01*
Y140970D01*
Y140924D01*
X119579Y140859D01*
Y140785D01*
X119570Y140610D01*
X119542Y140406D01*
X119515Y140194D01*
X119468Y139972D01*
X119413Y139750D01*
Y139741D01*
X119404Y139722D01*
X119394Y139694D01*
X119385Y139657D01*
X119348Y139556D01*
X119293Y139426D01*
X119237Y139278D01*
X119163Y139130D01*
X119071Y138973D01*
X118978Y138825D01*
X118969Y138807D01*
X118932Y138761D01*
X118877Y138696D01*
X118803Y138613D01*
X118719Y138520D01*
X118618Y138428D01*
X118516Y138326D01*
X118396Y138243D01*
X118377Y138234D01*
X118340Y138206D01*
X118276Y138169D01*
X118183Y138123D01*
X118072Y138067D01*
X117943Y138021D01*
X117795Y137965D01*
X117628Y137919D01*
X117610D01*
X117582Y137910D01*
X117555Y137901D01*
X117462Y137892D01*
X117333Y137873D01*
X117185Y137854D01*
X117009Y137836D01*
X116815Y137827D01*
X116602Y137818D01*
X114300D01*
Y144215D01*
X116759D01*
X116926Y144206D01*
D02*
G37*
G36*
X169057Y222202D02*
X166089D01*
X166015Y222211D01*
X165932D01*
X165737Y222221D01*
X165534Y222248D01*
X165312Y222276D01*
X165109Y222322D01*
X165007Y222350D01*
X164924Y222378D01*
X164915D01*
X164905Y222387D01*
X164850Y222415D01*
X164767Y222452D01*
X164665Y222516D01*
X164554Y222600D01*
X164434Y222711D01*
X164323Y222840D01*
X164212Y222988D01*
Y222997D01*
X164203Y223006D01*
X164166Y223062D01*
X164129Y223154D01*
X164073Y223275D01*
X164027Y223413D01*
X163981Y223580D01*
X163953Y223755D01*
X163944Y223950D01*
Y223959D01*
Y223977D01*
Y224014D01*
X163953Y224060D01*
Y224125D01*
X163962Y224190D01*
X163999Y224347D01*
X164055Y224532D01*
X164129Y224726D01*
X164240Y224920D01*
X164314Y225013D01*
X164388Y225105D01*
X164397Y225114D01*
X164406Y225124D01*
X164434Y225152D01*
X164471Y225179D01*
X164517Y225216D01*
X164573Y225253D01*
X164646Y225299D01*
X164720Y225355D01*
X164813Y225401D01*
X164915Y225447D01*
X165026Y225503D01*
X165146Y225549D01*
X165284Y225586D01*
X165423Y225632D01*
X165580Y225660D01*
X165747Y225688D01*
X165728Y225697D01*
X165691Y225715D01*
X165636Y225752D01*
X165562Y225789D01*
X165395Y225891D01*
X165312Y225956D01*
X165238Y226011D01*
X165220Y226030D01*
X165173Y226076D01*
X165100Y226150D01*
X165007Y226242D01*
X164905Y226372D01*
X164785Y226511D01*
X164665Y226677D01*
X164536Y226862D01*
X163435Y228600D01*
X164489D01*
X165331Y227269D01*
Y227260D01*
X165349Y227241D01*
X165368Y227213D01*
X165395Y227176D01*
X165460Y227075D01*
X165543Y226945D01*
X165645Y226806D01*
X165747Y226658D01*
X165848Y226520D01*
X165941Y226390D01*
X165950Y226381D01*
X165978Y226344D01*
X166024Y226289D01*
X166089Y226224D01*
X166227Y226085D01*
X166301Y226021D01*
X166375Y225965D01*
X166385Y225956D01*
X166403Y225947D01*
X166440Y225928D01*
X166496Y225900D01*
X166551Y225873D01*
X166616Y225845D01*
X166764Y225799D01*
X166773D01*
X166791Y225789D01*
X166828D01*
X166875Y225780D01*
X166939Y225771D01*
X167013D01*
X167115Y225762D01*
X168206D01*
Y228600D01*
X169057D01*
Y222202D01*
D02*
G37*
G36*
X160763Y223598D02*
X160772Y223608D01*
X160819Y223644D01*
X160874Y223700D01*
X160967Y223765D01*
X161068Y223848D01*
X161198Y223940D01*
X161346Y224042D01*
X161512Y224144D01*
X161521D01*
X161531Y224153D01*
X161586Y224190D01*
X161679Y224236D01*
X161789Y224292D01*
X161919Y224356D01*
X162058Y224421D01*
X162196Y224486D01*
X162335Y224541D01*
Y223783D01*
X162326D01*
X162307Y223765D01*
X162270Y223755D01*
X162224Y223728D01*
X162169Y223700D01*
X162104Y223663D01*
X161947Y223570D01*
X161762Y223469D01*
X161577Y223339D01*
X161383Y223191D01*
X161189Y223034D01*
X161179Y223025D01*
X161170Y223016D01*
X161142Y222988D01*
X161105Y222960D01*
X161022Y222868D01*
X160911Y222757D01*
X160800Y222627D01*
X160680Y222479D01*
X160578Y222332D01*
X160486Y222174D01*
X159977D01*
Y228600D01*
X160763D01*
Y223598D01*
D02*
G37*
G36*
X155789D02*
X155798Y223608D01*
X155845Y223644D01*
X155900Y223700D01*
X155993Y223765D01*
X156094Y223848D01*
X156224Y223940D01*
X156372Y224042D01*
X156538Y224144D01*
X156547D01*
X156557Y224153D01*
X156612Y224190D01*
X156705Y224236D01*
X156815Y224292D01*
X156945Y224356D01*
X157084Y224421D01*
X157222Y224486D01*
X157361Y224541D01*
Y223783D01*
X157352D01*
X157333Y223765D01*
X157296Y223755D01*
X157250Y223728D01*
X157194Y223700D01*
X157130Y223663D01*
X156973Y223570D01*
X156788Y223469D01*
X156603Y223339D01*
X156409Y223191D01*
X156214Y223034D01*
X156205Y223025D01*
X156196Y223016D01*
X156168Y222988D01*
X156131Y222960D01*
X156048Y222868D01*
X155937Y222757D01*
X155826Y222627D01*
X155706Y222479D01*
X155604Y222332D01*
X155512Y222174D01*
X155003D01*
Y228600D01*
X155789D01*
Y223598D01*
D02*
G37*
G36*
X121168Y270494D02*
X118607D01*
X118265Y268765D01*
X118275Y268775D01*
X118293Y268784D01*
X118321Y268802D01*
X118367Y268830D01*
X118422Y268858D01*
X118487Y268895D01*
X118635Y268969D01*
X118820Y269043D01*
X119024Y269107D01*
X119245Y269154D01*
X119356Y269172D01*
X119560D01*
X119615Y269163D01*
X119689Y269154D01*
X119772Y269144D01*
X119865Y269126D01*
X119966Y269098D01*
X120188Y269034D01*
X120309Y268987D01*
X120429Y268923D01*
X120549Y268858D01*
X120669Y268784D01*
X120780Y268692D01*
X120891Y268590D01*
X120900Y268580D01*
X120919Y268562D01*
X120947Y268534D01*
X120984Y268488D01*
X121030Y268423D01*
X121076Y268359D01*
X121131Y268275D01*
X121187Y268183D01*
X121233Y268081D01*
X121289Y267970D01*
X121335Y267841D01*
X121381Y267711D01*
X121418Y267573D01*
X121446Y267416D01*
X121464Y267258D01*
X121474Y267092D01*
Y267083D01*
Y267055D01*
Y267009D01*
X121464Y266944D01*
X121455Y266870D01*
X121446Y266787D01*
X121427Y266685D01*
X121409Y266583D01*
X121353Y266343D01*
X121261Y266093D01*
X121205Y265964D01*
X121131Y265844D01*
X121058Y265714D01*
X120965Y265594D01*
X120956Y265585D01*
X120937Y265557D01*
X120900Y265520D01*
X120854Y265474D01*
X120789Y265418D01*
X120715Y265345D01*
X120623Y265280D01*
X120521Y265206D01*
X120410Y265132D01*
X120281Y265067D01*
X120142Y265002D01*
X119994Y264938D01*
X119837Y264891D01*
X119661Y264855D01*
X119476Y264827D01*
X119282Y264818D01*
X119199D01*
X119134Y264827D01*
X119060Y264836D01*
X118977Y264845D01*
X118876Y264855D01*
X118774Y264882D01*
X118543Y264938D01*
X118312Y265021D01*
X118191Y265076D01*
X118071Y265141D01*
X117960Y265215D01*
X117849Y265298D01*
X117840Y265308D01*
X117822Y265317D01*
X117803Y265354D01*
X117766Y265391D01*
X117720Y265437D01*
X117674Y265492D01*
X117618Y265566D01*
X117572Y265650D01*
X117516Y265733D01*
X117461Y265835D01*
X117359Y266056D01*
X117276Y266315D01*
X117248Y266454D01*
X117230Y266602D01*
X118053Y266667D01*
Y266657D01*
Y266639D01*
X118062Y266611D01*
X118071Y266565D01*
X118099Y266463D01*
X118136Y266325D01*
X118191Y266186D01*
X118265Y266029D01*
X118358Y265890D01*
X118469Y265761D01*
X118487Y265751D01*
X118524Y265714D01*
X118598Y265668D01*
X118700Y265613D01*
X118811Y265557D01*
X118949Y265511D01*
X119107Y265474D01*
X119282Y265465D01*
X119338D01*
X119375Y265474D01*
X119486Y265483D01*
X119615Y265520D01*
X119772Y265566D01*
X119930Y265640D01*
X120096Y265751D01*
X120170Y265816D01*
X120244Y265890D01*
X120253Y265899D01*
X120262Y265909D01*
X120281Y265936D01*
X120309Y265964D01*
X120373Y266066D01*
X120447Y266195D01*
X120512Y266352D01*
X120577Y266546D01*
X120623Y266778D01*
X120641Y266898D01*
Y267027D01*
Y267036D01*
Y267055D01*
Y267092D01*
X120632Y267138D01*
Y267194D01*
X120623Y267258D01*
X120595Y267406D01*
X120549Y267582D01*
X120484Y267758D01*
X120392Y267924D01*
X120262Y268081D01*
Y268090D01*
X120244Y268100D01*
X120198Y268146D01*
X120114Y268211D01*
X120003Y268285D01*
X119856Y268349D01*
X119689Y268414D01*
X119495Y268460D01*
X119384Y268479D01*
X119208D01*
X119134Y268470D01*
X119042Y268460D01*
X118931Y268433D01*
X118820Y268405D01*
X118700Y268359D01*
X118580Y268303D01*
X118570Y268294D01*
X118533Y268275D01*
X118478Y268229D01*
X118404Y268183D01*
X118330Y268118D01*
X118256Y268035D01*
X118173Y267952D01*
X118108Y267850D01*
X117368Y267952D01*
X117988Y271243D01*
X121168D01*
Y270494D01*
D02*
G37*
G36*
X113726Y271317D02*
X113911Y271308D01*
X114096Y271290D01*
X114281Y271262D01*
X114438Y271234D01*
X114447D01*
X114465Y271225D01*
X114493D01*
X114530Y271206D01*
X114632Y271178D01*
X114761Y271132D01*
X114909Y271068D01*
X115066Y270984D01*
X115224Y270892D01*
X115372Y270772D01*
X115381Y270763D01*
X115390Y270753D01*
X115418Y270725D01*
X115455Y270698D01*
X115547Y270605D01*
X115658Y270476D01*
X115778Y270319D01*
X115908Y270134D01*
X116028Y269921D01*
X116130Y269681D01*
Y269671D01*
X116139Y269653D01*
X116157Y269616D01*
X116167Y269561D01*
X116194Y269496D01*
X116213Y269422D01*
X116231Y269339D01*
X116259Y269237D01*
X116287Y269135D01*
X116305Y269015D01*
X116351Y268756D01*
X116379Y268470D01*
X116389Y268155D01*
Y268146D01*
Y268127D01*
Y268081D01*
Y268035D01*
X116379Y267970D01*
Y267896D01*
X116370Y267721D01*
X116342Y267517D01*
X116314Y267305D01*
X116268Y267083D01*
X116213Y266861D01*
Y266852D01*
X116204Y266833D01*
X116194Y266805D01*
X116185Y266768D01*
X116148Y266667D01*
X116093Y266537D01*
X116037Y266389D01*
X115963Y266241D01*
X115871Y266084D01*
X115778Y265936D01*
X115769Y265918D01*
X115732Y265872D01*
X115677Y265807D01*
X115603Y265724D01*
X115519Y265631D01*
X115418Y265539D01*
X115316Y265437D01*
X115196Y265354D01*
X115177Y265345D01*
X115140Y265317D01*
X115076Y265280D01*
X114983Y265234D01*
X114872Y265178D01*
X114743Y265132D01*
X114595Y265076D01*
X114428Y265030D01*
X114410D01*
X114382Y265021D01*
X114354Y265012D01*
X114262Y265002D01*
X114133Y264984D01*
X113985Y264965D01*
X113809Y264947D01*
X113615Y264938D01*
X113402Y264928D01*
X111100D01*
Y271327D01*
X113559D01*
X113726Y271317D01*
D02*
G37*
G36*
X165100Y260302D02*
X162132D01*
X162058Y260311D01*
X161975D01*
X161781Y260321D01*
X161577Y260348D01*
X161356Y260376D01*
X161152Y260422D01*
X161050Y260450D01*
X160967Y260478D01*
X160958D01*
X160949Y260487D01*
X160893Y260515D01*
X160810Y260552D01*
X160708Y260616D01*
X160597Y260700D01*
X160477Y260811D01*
X160366Y260940D01*
X160255Y261088D01*
Y261097D01*
X160246Y261106D01*
X160209Y261162D01*
X160172Y261254D01*
X160117Y261375D01*
X160070Y261513D01*
X160024Y261680D01*
X159997Y261855D01*
X159987Y262050D01*
Y262059D01*
Y262077D01*
Y262114D01*
X159997Y262160D01*
Y262225D01*
X160006Y262290D01*
X160043Y262447D01*
X160098Y262632D01*
X160172Y262826D01*
X160283Y263020D01*
X160357Y263113D01*
X160431Y263205D01*
X160440Y263214D01*
X160450Y263224D01*
X160477Y263251D01*
X160514Y263279D01*
X160560Y263316D01*
X160616Y263353D01*
X160690Y263399D01*
X160764Y263455D01*
X160856Y263501D01*
X160958Y263547D01*
X161069Y263603D01*
X161189Y263649D01*
X161328Y263686D01*
X161467Y263732D01*
X161624Y263760D01*
X161790Y263788D01*
X161772Y263797D01*
X161735Y263815D01*
X161679Y263852D01*
X161605Y263889D01*
X161439Y263991D01*
X161356Y264056D01*
X161282Y264111D01*
X161263Y264130D01*
X161217Y264176D01*
X161143Y264250D01*
X161050Y264342D01*
X160949Y264472D01*
X160829Y264611D01*
X160708Y264777D01*
X160579Y264962D01*
X159479Y266700D01*
X160533D01*
X161374Y265369D01*
Y265359D01*
X161393Y265341D01*
X161411Y265313D01*
X161439Y265276D01*
X161504Y265175D01*
X161587Y265045D01*
X161688Y264906D01*
X161790Y264758D01*
X161892Y264620D01*
X161984Y264490D01*
X161994Y264481D01*
X162021Y264444D01*
X162068Y264389D01*
X162132Y264324D01*
X162271Y264185D01*
X162345Y264121D01*
X162419Y264065D01*
X162428Y264056D01*
X162447Y264047D01*
X162484Y264028D01*
X162539Y264000D01*
X162595Y263973D01*
X162659Y263945D01*
X162807Y263899D01*
X162816D01*
X162835Y263889D01*
X162872D01*
X162918Y263880D01*
X162983Y263871D01*
X163057D01*
X163158Y263862D01*
X164249D01*
Y266700D01*
X165100D01*
Y260302D01*
D02*
G37*
G36*
X156807Y261698D02*
X156816Y261707D01*
X156862Y261744D01*
X156918Y261800D01*
X157010Y261865D01*
X157112Y261948D01*
X157241Y262040D01*
X157389Y262142D01*
X157556Y262244D01*
X157565D01*
X157574Y262253D01*
X157630Y262290D01*
X157722Y262336D01*
X157833Y262392D01*
X157963Y262456D01*
X158101Y262521D01*
X158240Y262586D01*
X158378Y262641D01*
Y261883D01*
X158369D01*
X158351Y261865D01*
X158314Y261855D01*
X158268Y261828D01*
X158212Y261800D01*
X158147Y261763D01*
X157990Y261670D01*
X157805Y261569D01*
X157620Y261439D01*
X157426Y261291D01*
X157232Y261134D01*
X157223Y261125D01*
X157214Y261116D01*
X157186Y261088D01*
X157149Y261060D01*
X157066Y260968D01*
X156955Y260857D01*
X156844Y260727D01*
X156724Y260579D01*
X156622Y260432D01*
X156529Y260274D01*
X156021D01*
Y266700D01*
X156807D01*
Y261698D01*
D02*
G37*
G36*
X154116Y266691D02*
Y266654D01*
Y266598D01*
X154107Y266524D01*
X154098Y266441D01*
X154079Y266349D01*
X154061Y266256D01*
X154024Y266155D01*
Y266145D01*
X154015Y266136D01*
X153996Y266081D01*
X153959Y265997D01*
X153904Y265886D01*
X153830Y265757D01*
X153737Y265609D01*
X153636Y265461D01*
X153506Y265304D01*
Y265295D01*
X153488Y265285D01*
X153441Y265230D01*
X153358Y265147D01*
X153238Y265027D01*
X153099Y264888D01*
X152924Y264722D01*
X152711Y264537D01*
X152480Y264342D01*
X152471Y264333D01*
X152434Y264305D01*
X152378Y264259D01*
X152313Y264204D01*
X152230Y264130D01*
X152128Y264047D01*
X152027Y263954D01*
X151907Y263852D01*
X151676Y263631D01*
X151444Y263409D01*
X151333Y263298D01*
X151232Y263187D01*
X151139Y263085D01*
X151065Y262983D01*
Y262974D01*
X151047Y262965D01*
X151028Y262937D01*
X151010Y262900D01*
X150945Y262798D01*
X150871Y262678D01*
X150806Y262530D01*
X150742Y262373D01*
X150705Y262197D01*
X150686Y262031D01*
Y262022D01*
Y262013D01*
X150695Y261957D01*
X150705Y261865D01*
X150732Y261763D01*
X150769Y261633D01*
X150834Y261504D01*
X150917Y261375D01*
X151028Y261245D01*
X151047Y261227D01*
X151093Y261190D01*
X151158Y261143D01*
X151259Y261079D01*
X151389Y261023D01*
X151537Y260968D01*
X151712Y260931D01*
X151907Y260922D01*
X151962D01*
X151999Y260931D01*
X152110Y260940D01*
X152239Y260968D01*
X152378Y261005D01*
X152535Y261070D01*
X152683Y261153D01*
X152822Y261264D01*
X152840Y261282D01*
X152877Y261328D01*
X152933Y261402D01*
X152988Y261513D01*
X153053Y261643D01*
X153109Y261809D01*
X153146Y261994D01*
X153164Y262207D01*
X153968Y262124D01*
Y262114D01*
X153959Y262087D01*
Y262040D01*
X153950Y261976D01*
X153931Y261902D01*
X153913Y261818D01*
X153885Y261717D01*
X153857Y261615D01*
X153784Y261393D01*
X153673Y261171D01*
X153608Y261060D01*
X153525Y260949D01*
X153441Y260848D01*
X153349Y260755D01*
X153340Y260746D01*
X153321Y260737D01*
X153293Y260709D01*
X153247Y260681D01*
X153192Y260644D01*
X153127Y260607D01*
X153053Y260561D01*
X152961Y260515D01*
X152859Y260469D01*
X152748Y260422D01*
X152628Y260385D01*
X152498Y260348D01*
X152360Y260321D01*
X152212Y260293D01*
X152055Y260284D01*
X151888Y260274D01*
X151796D01*
X151731Y260284D01*
X151657Y260293D01*
X151565Y260302D01*
X151463Y260321D01*
X151361Y260339D01*
X151121Y260404D01*
X150880Y260496D01*
X150760Y260552D01*
X150640Y260616D01*
X150529Y260700D01*
X150427Y260792D01*
X150418Y260801D01*
X150400Y260811D01*
X150381Y260848D01*
X150344Y260885D01*
X150298Y260931D01*
X150252Y260996D01*
X150205Y261060D01*
X150150Y261143D01*
X150057Y261319D01*
X149965Y261541D01*
X149928Y261652D01*
X149910Y261781D01*
X149891Y261911D01*
X149882Y262050D01*
Y262068D01*
Y262114D01*
X149891Y262188D01*
X149900Y262290D01*
X149919Y262401D01*
X149956Y262530D01*
X149993Y262669D01*
X150048Y262808D01*
X150057Y262826D01*
X150076Y262872D01*
X150113Y262946D01*
X150168Y263048D01*
X150242Y263159D01*
X150335Y263298D01*
X150446Y263436D01*
X150575Y263594D01*
X150594Y263612D01*
X150640Y263668D01*
X150686Y263714D01*
X150732Y263760D01*
X150788Y263815D01*
X150862Y263889D01*
X150936Y263963D01*
X151028Y264047D01*
X151121Y264139D01*
X151232Y264241D01*
X151352Y264342D01*
X151481Y264463D01*
X151629Y264583D01*
X151777Y264712D01*
X151786Y264722D01*
X151805Y264740D01*
X151842Y264768D01*
X151888Y264805D01*
X151944Y264860D01*
X152008Y264916D01*
X152156Y265036D01*
X152313Y265175D01*
X152461Y265313D01*
X152591Y265433D01*
X152646Y265480D01*
X152692Y265526D01*
X152702Y265535D01*
X152730Y265563D01*
X152766Y265600D01*
X152813Y265655D01*
X152859Y265720D01*
X152914Y265785D01*
X153025Y265942D01*
X149873D01*
Y266700D01*
X154116D01*
Y266691D01*
D02*
G37*
G36*
X397222Y251045D02*
Y251036D01*
Y251008D01*
Y250971D01*
Y250915D01*
X397213Y250841D01*
Y250767D01*
X397195Y250592D01*
X397176Y250388D01*
X397139Y250176D01*
X397084Y249982D01*
X397019Y249797D01*
Y249787D01*
X397010Y249778D01*
X396982Y249723D01*
X396936Y249649D01*
X396871Y249547D01*
X396779Y249445D01*
X396677Y249334D01*
X396548Y249223D01*
X396400Y249131D01*
X396381Y249122D01*
X396326Y249094D01*
X396242Y249057D01*
X396122Y249020D01*
X395974Y248974D01*
X395808Y248937D01*
X395623Y248909D01*
X395420Y248900D01*
X395336D01*
X395281Y248909D01*
X395207Y248918D01*
X395133Y248928D01*
X394939Y248965D01*
X394735Y249020D01*
X394523Y249103D01*
X394412Y249159D01*
X394310Y249223D01*
X394218Y249297D01*
X394125Y249381D01*
X394116Y249390D01*
X394107Y249399D01*
X394088Y249436D01*
X394061Y249473D01*
X394024Y249519D01*
X393987Y249584D01*
X393950Y249658D01*
X393903Y249741D01*
X393866Y249834D01*
X393829Y249945D01*
X393792Y250056D01*
X393755Y250185D01*
X393737Y250324D01*
X393709Y250481D01*
X393700Y250638D01*
Y250814D01*
X394467Y250925D01*
Y250915D01*
Y250897D01*
Y250860D01*
X394477Y250805D01*
X394486Y250749D01*
Y250684D01*
X394514Y250527D01*
X394541Y250361D01*
X394597Y250194D01*
X394652Y250046D01*
X394689Y249982D01*
X394735Y249926D01*
X394745Y249917D01*
X394782Y249889D01*
X394837Y249843D01*
X394911Y249797D01*
X395013Y249741D01*
X395124Y249704D01*
X395262Y249667D01*
X395410Y249658D01*
X395466D01*
X395521Y249667D01*
X395605Y249676D01*
X395688Y249695D01*
X395780Y249713D01*
X395873Y249750D01*
X395965Y249797D01*
X395974Y249806D01*
X396002Y249824D01*
X396039Y249861D01*
X396095Y249898D01*
X396141Y249963D01*
X396196Y250028D01*
X396242Y250102D01*
X396279Y250194D01*
Y250203D01*
X396298Y250240D01*
X396307Y250305D01*
X396326Y250388D01*
X396344Y250499D01*
X396353Y250638D01*
X396372Y250805D01*
Y250999D01*
Y255409D01*
X397222D01*
Y251045D01*
D02*
G37*
G36*
X400560Y255427D02*
X400634Y255418D01*
X400727Y255409D01*
X400828Y255390D01*
X400930Y255372D01*
X401170Y255307D01*
X401411Y255215D01*
X401531Y255159D01*
X401651Y255094D01*
X401762Y255011D01*
X401864Y254919D01*
X401873Y254909D01*
X401892Y254900D01*
X401910Y254863D01*
X401947Y254826D01*
X401993Y254780D01*
X402039Y254715D01*
X402086Y254651D01*
X402141Y254567D01*
X402234Y254392D01*
X402326Y254170D01*
X402363Y254059D01*
X402382Y253930D01*
X402400Y253800D01*
X402409Y253661D01*
Y253643D01*
Y253597D01*
X402400Y253523D01*
X402391Y253421D01*
X402372Y253310D01*
X402335Y253181D01*
X402298Y253042D01*
X402243Y252903D01*
X402234Y252885D01*
X402215Y252838D01*
X402178Y252764D01*
X402123Y252663D01*
X402049Y252552D01*
X401956Y252413D01*
X401845Y252274D01*
X401716Y252117D01*
X401697Y252099D01*
X401651Y252043D01*
X401605Y251997D01*
X401559Y251951D01*
X401503Y251895D01*
X401429Y251821D01*
X401355Y251747D01*
X401263Y251664D01*
X401170Y251572D01*
X401059Y251470D01*
X400939Y251368D01*
X400810Y251248D01*
X400662Y251128D01*
X400514Y250999D01*
X400505Y250989D01*
X400486Y250971D01*
X400449Y250943D01*
X400403Y250906D01*
X400348Y250851D01*
X400283Y250795D01*
X400135Y250675D01*
X399978Y250536D01*
X399830Y250398D01*
X399700Y250278D01*
X399645Y250231D01*
X399599Y250185D01*
X399589Y250176D01*
X399562Y250148D01*
X399525Y250111D01*
X399478Y250056D01*
X399432Y249991D01*
X399377Y249926D01*
X399266Y249769D01*
X402419D01*
Y249011D01*
X398175D01*
Y249020D01*
Y249057D01*
Y249112D01*
X398184Y249186D01*
X398193Y249270D01*
X398212Y249362D01*
X398230Y249455D01*
X398267Y249556D01*
Y249566D01*
X398276Y249575D01*
X398295Y249630D01*
X398332Y249713D01*
X398387Y249824D01*
X398461Y249954D01*
X398554Y250102D01*
X398656Y250250D01*
X398785Y250407D01*
Y250416D01*
X398803Y250425D01*
X398850Y250481D01*
X398933Y250564D01*
X399053Y250684D01*
X399192Y250823D01*
X399367Y250989D01*
X399580Y251174D01*
X399811Y251368D01*
X399821Y251378D01*
X399857Y251405D01*
X399913Y251452D01*
X399978Y251507D01*
X400061Y251581D01*
X400163Y251664D01*
X400264Y251757D01*
X400384Y251858D01*
X400616Y252080D01*
X400847Y252302D01*
X400958Y252413D01*
X401059Y252524D01*
X401152Y252626D01*
X401226Y252728D01*
Y252737D01*
X401244Y252746D01*
X401263Y252774D01*
X401281Y252811D01*
X401346Y252912D01*
X401420Y253033D01*
X401485Y253181D01*
X401549Y253338D01*
X401586Y253513D01*
X401605Y253680D01*
Y253689D01*
Y253698D01*
X401596Y253754D01*
X401586Y253846D01*
X401559Y253948D01*
X401522Y254077D01*
X401457Y254207D01*
X401374Y254336D01*
X401263Y254466D01*
X401244Y254484D01*
X401198Y254521D01*
X401133Y254567D01*
X401032Y254632D01*
X400902Y254688D01*
X400754Y254743D01*
X400579Y254780D01*
X400384Y254789D01*
X400329D01*
X400292Y254780D01*
X400181Y254771D01*
X400052Y254743D01*
X399913Y254706D01*
X399756Y254641D01*
X399608Y254558D01*
X399469Y254447D01*
X399451Y254429D01*
X399414Y254382D01*
X399358Y254308D01*
X399303Y254198D01*
X399238Y254068D01*
X399183Y253902D01*
X399146Y253717D01*
X399127Y253504D01*
X398323Y253587D01*
Y253597D01*
X398332Y253624D01*
Y253671D01*
X398341Y253735D01*
X398360Y253809D01*
X398378Y253892D01*
X398406Y253994D01*
X398434Y254096D01*
X398508Y254318D01*
X398619Y254540D01*
X398683Y254651D01*
X398767Y254762D01*
X398850Y254863D01*
X398942Y254956D01*
X398951Y254965D01*
X398970Y254974D01*
X398998Y255002D01*
X399044Y255030D01*
X399099Y255067D01*
X399164Y255104D01*
X399238Y255150D01*
X399330Y255196D01*
X399432Y255242D01*
X399543Y255289D01*
X399663Y255326D01*
X399793Y255362D01*
X399931Y255390D01*
X400079Y255418D01*
X400237Y255427D01*
X400403Y255436D01*
X400495D01*
X400560Y255427D01*
D02*
G37*
G36*
X397222Y162145D02*
Y162136D01*
Y162108D01*
Y162071D01*
Y162015D01*
X397213Y161941D01*
Y161868D01*
X397195Y161692D01*
X397176Y161488D01*
X397139Y161276D01*
X397084Y161082D01*
X397019Y160897D01*
Y160887D01*
X397010Y160878D01*
X396982Y160823D01*
X396936Y160749D01*
X396871Y160647D01*
X396779Y160545D01*
X396677Y160434D01*
X396548Y160324D01*
X396400Y160231D01*
X396381Y160222D01*
X396326Y160194D01*
X396242Y160157D01*
X396122Y160120D01*
X395974Y160074D01*
X395808Y160037D01*
X395623Y160009D01*
X395420Y160000D01*
X395336D01*
X395281Y160009D01*
X395207Y160018D01*
X395133Y160028D01*
X394939Y160065D01*
X394735Y160120D01*
X394523Y160203D01*
X394412Y160259D01*
X394310Y160324D01*
X394218Y160397D01*
X394125Y160481D01*
X394116Y160490D01*
X394107Y160499D01*
X394088Y160536D01*
X394061Y160573D01*
X394024Y160619D01*
X393987Y160684D01*
X393950Y160758D01*
X393903Y160841D01*
X393866Y160934D01*
X393829Y161045D01*
X393792Y161156D01*
X393755Y161285D01*
X393737Y161424D01*
X393709Y161581D01*
X393700Y161738D01*
Y161914D01*
X394467Y162025D01*
Y162015D01*
Y161997D01*
Y161960D01*
X394477Y161905D01*
X394486Y161849D01*
Y161784D01*
X394514Y161627D01*
X394541Y161461D01*
X394597Y161294D01*
X394652Y161146D01*
X394689Y161082D01*
X394735Y161026D01*
X394745Y161017D01*
X394782Y160989D01*
X394837Y160943D01*
X394911Y160897D01*
X395013Y160841D01*
X395124Y160804D01*
X395262Y160767D01*
X395410Y160758D01*
X395466D01*
X395521Y160767D01*
X395605Y160777D01*
X395688Y160795D01*
X395780Y160814D01*
X395873Y160851D01*
X395965Y160897D01*
X395974Y160906D01*
X396002Y160924D01*
X396039Y160961D01*
X396095Y160998D01*
X396141Y161063D01*
X396196Y161128D01*
X396242Y161202D01*
X396279Y161294D01*
Y161304D01*
X396298Y161341D01*
X396307Y161405D01*
X396326Y161488D01*
X396344Y161599D01*
X396353Y161738D01*
X396372Y161905D01*
Y162099D01*
Y166509D01*
X397222D01*
Y162145D01*
D02*
G37*
G36*
X401586Y162367D02*
X402455D01*
Y161646D01*
X401586D01*
Y160111D01*
X400801D01*
Y161646D01*
X398018D01*
Y162367D01*
X400948Y166509D01*
X401586D01*
Y162367D01*
D02*
G37*
G36*
X511522Y162145D02*
Y162136D01*
Y162108D01*
Y162071D01*
Y162015D01*
X511513Y161941D01*
Y161868D01*
X511495Y161692D01*
X511476Y161488D01*
X511439Y161276D01*
X511384Y161082D01*
X511319Y160897D01*
Y160887D01*
X511310Y160878D01*
X511282Y160823D01*
X511236Y160749D01*
X511171Y160647D01*
X511079Y160545D01*
X510977Y160434D01*
X510848Y160324D01*
X510700Y160231D01*
X510681Y160222D01*
X510626Y160194D01*
X510542Y160157D01*
X510422Y160120D01*
X510274Y160074D01*
X510108Y160037D01*
X509923Y160009D01*
X509720Y160000D01*
X509636D01*
X509581Y160009D01*
X509507Y160018D01*
X509433Y160028D01*
X509239Y160065D01*
X509035Y160120D01*
X508823Y160203D01*
X508712Y160259D01*
X508610Y160324D01*
X508518Y160397D01*
X508425Y160481D01*
X508416Y160490D01*
X508407Y160499D01*
X508388Y160536D01*
X508360Y160573D01*
X508324Y160619D01*
X508287Y160684D01*
X508250Y160758D01*
X508203Y160841D01*
X508166Y160934D01*
X508129Y161045D01*
X508092Y161156D01*
X508055Y161285D01*
X508037Y161424D01*
X508009Y161581D01*
X508000Y161738D01*
Y161914D01*
X508767Y162025D01*
Y162015D01*
Y161997D01*
Y161960D01*
X508777Y161905D01*
X508786Y161849D01*
Y161784D01*
X508814Y161627D01*
X508841Y161461D01*
X508897Y161294D01*
X508952Y161146D01*
X508989Y161082D01*
X509035Y161026D01*
X509045Y161017D01*
X509082Y160989D01*
X509137Y160943D01*
X509211Y160897D01*
X509313Y160841D01*
X509424Y160804D01*
X509562Y160767D01*
X509710Y160758D01*
X509766D01*
X509821Y160767D01*
X509905Y160777D01*
X509988Y160795D01*
X510080Y160814D01*
X510173Y160851D01*
X510265Y160897D01*
X510274Y160906D01*
X510302Y160924D01*
X510339Y160961D01*
X510395Y160998D01*
X510441Y161063D01*
X510496Y161128D01*
X510542Y161202D01*
X510579Y161294D01*
Y161304D01*
X510598Y161341D01*
X510607Y161405D01*
X510626Y161488D01*
X510644Y161599D01*
X510653Y161738D01*
X510672Y161905D01*
Y162099D01*
Y166509D01*
X511522D01*
Y162145D01*
D02*
G37*
G36*
X516524Y165677D02*
X513963D01*
X513621Y163948D01*
X513630Y163957D01*
X513649Y163966D01*
X513677Y163985D01*
X513723Y164012D01*
X513778Y164040D01*
X513843Y164077D01*
X513991Y164151D01*
X514176Y164225D01*
X514379Y164290D01*
X514601Y164336D01*
X514712Y164354D01*
X514916D01*
X514971Y164345D01*
X515045Y164336D01*
X515128Y164327D01*
X515221Y164308D01*
X515322Y164281D01*
X515544Y164216D01*
X515664Y164170D01*
X515785Y164105D01*
X515905Y164040D01*
X516025Y163966D01*
X516136Y163874D01*
X516247Y163772D01*
X516256Y163763D01*
X516275Y163744D01*
X516302Y163717D01*
X516339Y163670D01*
X516386Y163606D01*
X516432Y163541D01*
X516487Y163458D01*
X516543Y163365D01*
X516589Y163264D01*
X516645Y163153D01*
X516691Y163023D01*
X516737Y162894D01*
X516774Y162755D01*
X516802Y162598D01*
X516820Y162441D01*
X516829Y162274D01*
Y162265D01*
Y162237D01*
Y162191D01*
X516820Y162126D01*
X516811Y162052D01*
X516802Y161969D01*
X516783Y161868D01*
X516765Y161766D01*
X516709Y161525D01*
X516617Y161276D01*
X516561Y161146D01*
X516487Y161026D01*
X516413Y160897D01*
X516321Y160777D01*
X516312Y160767D01*
X516293Y160739D01*
X516256Y160702D01*
X516210Y160656D01*
X516145Y160601D01*
X516071Y160527D01*
X515979Y160462D01*
X515877Y160388D01*
X515766Y160314D01*
X515637Y160250D01*
X515498Y160185D01*
X515350Y160120D01*
X515193Y160074D01*
X515017Y160037D01*
X514832Y160009D01*
X514638Y160000D01*
X514555D01*
X514490Y160009D01*
X514416Y160018D01*
X514333Y160028D01*
X514231Y160037D01*
X514130Y160065D01*
X513899Y160120D01*
X513667Y160203D01*
X513547Y160259D01*
X513427Y160324D01*
X513316Y160397D01*
X513205Y160481D01*
X513196Y160490D01*
X513177Y160499D01*
X513159Y160536D01*
X513122Y160573D01*
X513076Y160619D01*
X513030Y160675D01*
X512974Y160749D01*
X512928Y160832D01*
X512872Y160915D01*
X512817Y161017D01*
X512715Y161239D01*
X512632Y161498D01*
X512604Y161636D01*
X512586Y161784D01*
X513409Y161849D01*
Y161840D01*
Y161821D01*
X513418Y161793D01*
X513427Y161747D01*
X513455Y161646D01*
X513492Y161507D01*
X513547Y161368D01*
X513621Y161211D01*
X513714Y161072D01*
X513825Y160943D01*
X513843Y160934D01*
X513880Y160897D01*
X513954Y160851D01*
X514056Y160795D01*
X514167Y160739D01*
X514305Y160693D01*
X514463Y160656D01*
X514638Y160647D01*
X514694D01*
X514731Y160656D01*
X514842Y160665D01*
X514971Y160702D01*
X515128Y160749D01*
X515285Y160823D01*
X515452Y160934D01*
X515526Y160998D01*
X515600Y161072D01*
X515609Y161082D01*
X515618Y161091D01*
X515637Y161119D01*
X515664Y161146D01*
X515729Y161248D01*
X515803Y161378D01*
X515868Y161535D01*
X515933Y161729D01*
X515979Y161960D01*
X515997Y162080D01*
Y162210D01*
Y162219D01*
Y162237D01*
Y162274D01*
X515988Y162320D01*
Y162376D01*
X515979Y162441D01*
X515951Y162589D01*
X515905Y162764D01*
X515840Y162940D01*
X515748Y163106D01*
X515618Y163264D01*
Y163273D01*
X515600Y163282D01*
X515554Y163328D01*
X515470Y163393D01*
X515359Y163467D01*
X515211Y163532D01*
X515045Y163596D01*
X514851Y163643D01*
X514740Y163661D01*
X514564D01*
X514490Y163652D01*
X514398Y163643D01*
X514287Y163615D01*
X514176Y163587D01*
X514056Y163541D01*
X513936Y163485D01*
X513926Y163476D01*
X513889Y163458D01*
X513834Y163412D01*
X513760Y163365D01*
X513686Y163300D01*
X513612Y163217D01*
X513529Y163134D01*
X513464Y163032D01*
X512724Y163134D01*
X513344Y166425D01*
X516524D01*
Y165677D01*
D02*
G37*
G36*
X514786Y255427D02*
X514906Y255409D01*
X515054Y255381D01*
X515221Y255335D01*
X515387Y255279D01*
X515554Y255205D01*
X515563D01*
X515572Y255196D01*
X515628Y255168D01*
X515711Y255113D01*
X515803Y255048D01*
X515914Y254956D01*
X516025Y254854D01*
X516136Y254734D01*
X516228Y254595D01*
X516238Y254577D01*
X516265Y254530D01*
X516302Y254447D01*
X516349Y254345D01*
X516395Y254225D01*
X516432Y254087D01*
X516460Y253930D01*
X516469Y253772D01*
Y253754D01*
Y253698D01*
X516460Y253624D01*
X516441Y253523D01*
X516413Y253403D01*
X516367Y253273D01*
X516312Y253144D01*
X516238Y253014D01*
X516228Y252996D01*
X516201Y252959D01*
X516145Y252894D01*
X516071Y252820D01*
X515979Y252737D01*
X515868Y252644D01*
X515738Y252561D01*
X515581Y252478D01*
X515591D01*
X515609Y252469D01*
X515637Y252459D01*
X515674Y252450D01*
X515775Y252413D01*
X515905Y252358D01*
X516053Y252284D01*
X516201Y252191D01*
X516339Y252071D01*
X516469Y251932D01*
X516478Y251914D01*
X516515Y251858D01*
X516571Y251766D01*
X516626Y251646D01*
X516682Y251498D01*
X516737Y251322D01*
X516774Y251119D01*
X516783Y250897D01*
Y250888D01*
Y250860D01*
Y250814D01*
X516774Y250758D01*
X516765Y250684D01*
X516746Y250601D01*
X516728Y250509D01*
X516709Y250407D01*
X516635Y250185D01*
X516580Y250065D01*
X516524Y249954D01*
X516450Y249834D01*
X516367Y249713D01*
X516275Y249593D01*
X516164Y249482D01*
X516155Y249473D01*
X516136Y249455D01*
X516099Y249427D01*
X516053Y249390D01*
X515997Y249344D01*
X515923Y249297D01*
X515840Y249242D01*
X515738Y249196D01*
X515637Y249140D01*
X515517Y249085D01*
X515396Y249039D01*
X515258Y248992D01*
X515110Y248955D01*
X514953Y248928D01*
X514795Y248909D01*
X514620Y248900D01*
X514537D01*
X514481Y248909D01*
X514407Y248918D01*
X514324Y248928D01*
X514231Y248946D01*
X514130Y248965D01*
X513908Y249020D01*
X513677Y249112D01*
X513557Y249168D01*
X513446Y249233D01*
X513335Y249316D01*
X513224Y249399D01*
X513214Y249408D01*
X513196Y249427D01*
X513168Y249455D01*
X513140Y249492D01*
X513094Y249538D01*
X513048Y249603D01*
X512993Y249667D01*
X512937Y249750D01*
X512882Y249843D01*
X512826Y249935D01*
X512724Y250157D01*
X512641Y250416D01*
X512613Y250555D01*
X512595Y250703D01*
X513381Y250805D01*
Y250795D01*
X513390Y250777D01*
X513399Y250740D01*
X513409Y250693D01*
X513418Y250638D01*
X513436Y250573D01*
X513483Y250435D01*
X513547Y250268D01*
X513630Y250111D01*
X513723Y249963D01*
X513834Y249834D01*
X513852Y249824D01*
X513889Y249787D01*
X513963Y249741D01*
X514056Y249695D01*
X514167Y249639D01*
X514305Y249593D01*
X514463Y249556D01*
X514629Y249547D01*
X514684D01*
X514721Y249556D01*
X514823Y249566D01*
X514953Y249593D01*
X515101Y249639D01*
X515258Y249704D01*
X515415Y249797D01*
X515563Y249926D01*
X515581Y249945D01*
X515628Y250000D01*
X515683Y250083D01*
X515757Y250194D01*
X515831Y250333D01*
X515886Y250490D01*
X515933Y250675D01*
X515951Y250878D01*
Y250888D01*
Y250906D01*
Y250934D01*
X515942Y250971D01*
X515933Y251073D01*
X515905Y251193D01*
X515868Y251341D01*
X515803Y251489D01*
X515711Y251637D01*
X515591Y251775D01*
X515572Y251794D01*
X515526Y251831D01*
X515452Y251886D01*
X515350Y251951D01*
X515221Y252016D01*
X515064Y252071D01*
X514888Y252108D01*
X514694Y252127D01*
X514610D01*
X514546Y252117D01*
X514463Y252108D01*
X514370Y252090D01*
X514259Y252071D01*
X514139Y252043D01*
X514231Y252737D01*
X514278D01*
X514315Y252728D01*
X514435D01*
X514537Y252746D01*
X514657Y252764D01*
X514795Y252792D01*
X514953Y252838D01*
X515101Y252903D01*
X515258Y252986D01*
X515267D01*
X515276Y252996D01*
X515322Y253033D01*
X515387Y253097D01*
X515461Y253181D01*
X515535Y253301D01*
X515600Y253439D01*
X515646Y253597D01*
X515664Y253689D01*
Y253791D01*
Y253800D01*
Y253809D01*
Y253865D01*
X515646Y253939D01*
X515628Y254040D01*
X515591Y254151D01*
X515544Y254272D01*
X515470Y254392D01*
X515369Y254503D01*
X515359Y254512D01*
X515313Y254549D01*
X515248Y254595D01*
X515165Y254651D01*
X515054Y254697D01*
X514925Y254743D01*
X514777Y254780D01*
X514610Y254789D01*
X514537D01*
X514453Y254771D01*
X514342Y254752D01*
X514222Y254715D01*
X514102Y254669D01*
X513973Y254595D01*
X513852Y254503D01*
X513843Y254493D01*
X513806Y254447D01*
X513751Y254382D01*
X513686Y254290D01*
X513621Y254170D01*
X513557Y254022D01*
X513501Y253846D01*
X513464Y253643D01*
X512678Y253782D01*
Y253791D01*
X512687Y253818D01*
X512697Y253855D01*
X512706Y253911D01*
X512724Y253976D01*
X512752Y254050D01*
X512808Y254225D01*
X512900Y254429D01*
X513011Y254632D01*
X513150Y254826D01*
X513325Y255002D01*
X513335Y255011D01*
X513353Y255020D01*
X513381Y255039D01*
X513418Y255067D01*
X513464Y255104D01*
X513529Y255141D01*
X513593Y255178D01*
X513677Y255224D01*
X513862Y255298D01*
X514074Y255372D01*
X514324Y255418D01*
X514453Y255436D01*
X514684D01*
X514786Y255427D01*
D02*
G37*
G36*
X511522Y251045D02*
Y251036D01*
Y251008D01*
Y250971D01*
Y250915D01*
X511513Y250841D01*
Y250767D01*
X511495Y250592D01*
X511476Y250388D01*
X511439Y250176D01*
X511384Y249982D01*
X511319Y249797D01*
Y249787D01*
X511310Y249778D01*
X511282Y249723D01*
X511236Y249649D01*
X511171Y249547D01*
X511079Y249445D01*
X510977Y249334D01*
X510848Y249223D01*
X510700Y249131D01*
X510681Y249122D01*
X510626Y249094D01*
X510542Y249057D01*
X510422Y249020D01*
X510274Y248974D01*
X510108Y248937D01*
X509923Y248909D01*
X509720Y248900D01*
X509636D01*
X509581Y248909D01*
X509507Y248918D01*
X509433Y248928D01*
X509239Y248965D01*
X509035Y249020D01*
X508823Y249103D01*
X508712Y249159D01*
X508610Y249223D01*
X508518Y249297D01*
X508425Y249381D01*
X508416Y249390D01*
X508407Y249399D01*
X508388Y249436D01*
X508360Y249473D01*
X508324Y249519D01*
X508287Y249584D01*
X508250Y249658D01*
X508203Y249741D01*
X508166Y249834D01*
X508129Y249945D01*
X508092Y250056D01*
X508055Y250185D01*
X508037Y250324D01*
X508009Y250481D01*
X508000Y250638D01*
Y250814D01*
X508767Y250925D01*
Y250915D01*
Y250897D01*
Y250860D01*
X508777Y250805D01*
X508786Y250749D01*
Y250684D01*
X508814Y250527D01*
X508841Y250361D01*
X508897Y250194D01*
X508952Y250046D01*
X508989Y249982D01*
X509035Y249926D01*
X509045Y249917D01*
X509082Y249889D01*
X509137Y249843D01*
X509211Y249797D01*
X509313Y249741D01*
X509424Y249704D01*
X509562Y249667D01*
X509710Y249658D01*
X509766D01*
X509821Y249667D01*
X509905Y249676D01*
X509988Y249695D01*
X510080Y249713D01*
X510173Y249750D01*
X510265Y249797D01*
X510274Y249806D01*
X510302Y249824D01*
X510339Y249861D01*
X510395Y249898D01*
X510441Y249963D01*
X510496Y250028D01*
X510542Y250102D01*
X510579Y250194D01*
Y250203D01*
X510598Y250240D01*
X510607Y250305D01*
X510626Y250388D01*
X510644Y250499D01*
X510653Y250638D01*
X510672Y250805D01*
Y250999D01*
Y255409D01*
X511522D01*
Y251045D01*
D02*
G37*
G36*
X576530Y394628D02*
Y394619D01*
Y394582D01*
Y394536D01*
Y394471D01*
X576520Y394388D01*
Y394295D01*
X576511Y394184D01*
X576502Y394073D01*
X576474Y393824D01*
X576437Y393565D01*
X576382Y393315D01*
X576345Y393195D01*
X576308Y393084D01*
Y393075D01*
X576298Y393056D01*
X576280Y393029D01*
X576261Y392992D01*
X576206Y392890D01*
X576123Y392761D01*
X576012Y392613D01*
X575882Y392465D01*
X575716Y392308D01*
X575513Y392169D01*
X575503D01*
X575485Y392150D01*
X575457Y392141D01*
X575411Y392113D01*
X575355Y392086D01*
X575281Y392058D01*
X575207Y392030D01*
X575115Y391993D01*
X575013Y391956D01*
X574902Y391928D01*
X574782Y391901D01*
X574644Y391873D01*
X574505Y391855D01*
X574357Y391836D01*
X574024Y391818D01*
X573941D01*
X573876Y391827D01*
X573802D01*
X573710Y391836D01*
X573608Y391845D01*
X573506Y391855D01*
X573275Y391892D01*
X573026Y391947D01*
X572785Y392021D01*
X572554Y392123D01*
X572545D01*
X572526Y392141D01*
X572499Y392160D01*
X572462Y392178D01*
X572360Y392252D01*
X572240Y392354D01*
X572101Y392483D01*
X571972Y392631D01*
X571842Y392816D01*
X571740Y393019D01*
Y393029D01*
X571731Y393047D01*
X571722Y393084D01*
X571703Y393130D01*
X571685Y393186D01*
X571666Y393260D01*
X571639Y393343D01*
X571620Y393445D01*
X571602Y393556D01*
X571574Y393676D01*
X571555Y393805D01*
X571537Y393944D01*
X571519Y394101D01*
X571509Y394268D01*
X571500Y394443D01*
Y394628D01*
Y398326D01*
X572351D01*
Y394628D01*
Y394619D01*
Y394591D01*
Y394545D01*
Y394490D01*
X572360Y394425D01*
Y394342D01*
X572369Y394166D01*
X572388Y393963D01*
X572415Y393759D01*
X572452Y393565D01*
X572471Y393482D01*
X572499Y393399D01*
X572508Y393380D01*
X572526Y393334D01*
X572573Y393269D01*
X572628Y393177D01*
X572693Y393084D01*
X572785Y392982D01*
X572896Y392881D01*
X573026Y392798D01*
X573044Y392788D01*
X573090Y392761D01*
X573173Y392733D01*
X573284Y392696D01*
X573414Y392650D01*
X573580Y392622D01*
X573756Y392594D01*
X573950Y392585D01*
X574043D01*
X574098Y392594D01*
X574181D01*
X574264Y392603D01*
X574468Y392640D01*
X574690Y392687D01*
X574902Y392761D01*
X575106Y392862D01*
X575198Y392927D01*
X575281Y393001D01*
X575291Y393010D01*
X575300Y393019D01*
X575318Y393047D01*
X575346Y393084D01*
X575374Y393140D01*
X575411Y393195D01*
X575448Y393278D01*
X575485Y393362D01*
X575522Y393463D01*
X575550Y393583D01*
X575587Y393722D01*
X575614Y393870D01*
X575642Y394036D01*
X575661Y394212D01*
X575679Y394416D01*
Y394628D01*
Y398326D01*
X576530D01*
Y394628D01*
D02*
G37*
G36*
X580579Y391928D02*
X579793D01*
Y396930D01*
X579784Y396921D01*
X579738Y396884D01*
X579682Y396829D01*
X579590Y396764D01*
X579488Y396681D01*
X579359Y396588D01*
X579211Y396487D01*
X579044Y396385D01*
X579035D01*
X579026Y396376D01*
X578970Y396339D01*
X578878Y396292D01*
X578767Y396237D01*
X578638Y396172D01*
X578499Y396107D01*
X578360Y396043D01*
X578222Y395987D01*
Y396745D01*
X578231D01*
X578249Y396764D01*
X578286Y396773D01*
X578332Y396801D01*
X578388Y396829D01*
X578453Y396866D01*
X578610Y396958D01*
X578795Y397060D01*
X578980Y397189D01*
X579174Y397337D01*
X579368Y397494D01*
X579377Y397504D01*
X579386Y397513D01*
X579414Y397541D01*
X579451Y397568D01*
X579534Y397661D01*
X579645Y397772D01*
X579756Y397901D01*
X579877Y398049D01*
X579978Y398197D01*
X580071Y398354D01*
X580579D01*
Y391928D01*
D02*
G37*
G36*
X685800Y490902D02*
X680798D01*
X680807Y490893D01*
X680844Y490847D01*
X680900Y490792D01*
X680965Y490699D01*
X681048Y490597D01*
X681140Y490468D01*
X681242Y490320D01*
X681344Y490154D01*
Y490144D01*
X681353Y490135D01*
X681390Y490080D01*
X681436Y489987D01*
X681492Y489876D01*
X681556Y489747D01*
X681621Y489608D01*
X681686Y489469D01*
X681741Y489331D01*
X680983D01*
Y489340D01*
X680965Y489358D01*
X680955Y489395D01*
X680928Y489442D01*
X680900Y489497D01*
X680863Y489562D01*
X680770Y489719D01*
X680669Y489904D01*
X680539Y490089D01*
X680391Y490283D01*
X680234Y490477D01*
X680225Y490486D01*
X680216Y490496D01*
X680188Y490523D01*
X680160Y490560D01*
X680068Y490644D01*
X679957Y490755D01*
X679827Y490865D01*
X679679Y490986D01*
X679532Y491087D01*
X679374Y491180D01*
Y491688D01*
X685800D01*
Y490902D01*
D02*
G37*
G36*
X682758Y487879D02*
X682832D01*
X683008Y487870D01*
X683211Y487842D01*
X683424Y487814D01*
X683646Y487768D01*
X683868Y487713D01*
X683877D01*
X683895Y487703D01*
X683923Y487694D01*
X683960Y487685D01*
X684062Y487648D01*
X684191Y487593D01*
X684339Y487537D01*
X684487Y487463D01*
X684644Y487371D01*
X684792Y487278D01*
X684811Y487269D01*
X684857Y487232D01*
X684922Y487176D01*
X685005Y487103D01*
X685097Y487019D01*
X685190Y486918D01*
X685292Y486816D01*
X685375Y486696D01*
X685384Y486677D01*
X685412Y486640D01*
X685449Y486576D01*
X685495Y486483D01*
X685550Y486372D01*
X685597Y486243D01*
X685652Y486095D01*
X685698Y485928D01*
Y485910D01*
X685708Y485882D01*
X685717Y485854D01*
X685726Y485762D01*
X685745Y485632D01*
X685763Y485485D01*
X685782Y485309D01*
X685791Y485115D01*
X685800Y484902D01*
Y482600D01*
X679402D01*
Y485059D01*
X679411Y485226D01*
X679421Y485410D01*
X679439Y485595D01*
X679467Y485780D01*
X679495Y485938D01*
Y485947D01*
X679504Y485965D01*
Y485993D01*
X679522Y486030D01*
X679550Y486132D01*
X679596Y486261D01*
X679661Y486409D01*
X679744Y486566D01*
X679837Y486723D01*
X679957Y486871D01*
X679966Y486881D01*
X679975Y486890D01*
X680003Y486918D01*
X680031Y486955D01*
X680123Y487047D01*
X680253Y487158D01*
X680410Y487278D01*
X680595Y487408D01*
X680807Y487528D01*
X681048Y487630D01*
X681057D01*
X681076Y487639D01*
X681113Y487657D01*
X681168Y487667D01*
X681233Y487694D01*
X681307Y487713D01*
X681390Y487731D01*
X681492Y487759D01*
X681593Y487787D01*
X681713Y487805D01*
X681972Y487851D01*
X682259Y487879D01*
X682573Y487888D01*
X682583D01*
X682601D01*
X682647D01*
X682694D01*
X682758Y487879D01*
D02*
G37*
G36*
X123388Y175918D02*
X122603D01*
Y180919D01*
X122593Y180910D01*
X122547Y180873D01*
X122492Y180818D01*
X122399Y180753D01*
X122297Y180670D01*
X122168Y180577D01*
X122020Y180476D01*
X121854Y180374D01*
X121844D01*
X121835Y180365D01*
X121780Y180328D01*
X121687Y180282D01*
X121576Y180226D01*
X121447Y180161D01*
X121308Y180097D01*
X121170Y180032D01*
X121031Y179976D01*
Y180735D01*
X121040D01*
X121059Y180753D01*
X121096Y180762D01*
X121142Y180790D01*
X121197Y180818D01*
X121262Y180855D01*
X121419Y180947D01*
X121604Y181049D01*
X121789Y181178D01*
X121983Y181326D01*
X122177Y181483D01*
X122186Y181493D01*
X122196Y181502D01*
X122224Y181530D01*
X122261Y181557D01*
X122344Y181650D01*
X122455Y181761D01*
X122566Y181890D01*
X122686Y182038D01*
X122788Y182186D01*
X122880Y182343D01*
X123388D01*
Y175918D01*
D02*
G37*
G36*
X116926Y182306D02*
X117111Y182297D01*
X117296Y182278D01*
X117480Y182251D01*
X117638Y182223D01*
X117647D01*
X117665Y182214D01*
X117693D01*
X117730Y182195D01*
X117832Y182168D01*
X117961Y182121D01*
X118109Y182057D01*
X118266Y181973D01*
X118424Y181881D01*
X118572Y181761D01*
X118581Y181751D01*
X118590Y181742D01*
X118618Y181714D01*
X118655Y181687D01*
X118747Y181594D01*
X118858Y181465D01*
X118978Y181308D01*
X119108Y181123D01*
X119228Y180910D01*
X119330Y180670D01*
Y180660D01*
X119339Y180642D01*
X119357Y180605D01*
X119367Y180550D01*
X119394Y180485D01*
X119413Y180411D01*
X119431Y180328D01*
X119459Y180226D01*
X119487Y180124D01*
X119505Y180004D01*
X119551Y179745D01*
X119579Y179459D01*
X119588Y179144D01*
Y179135D01*
Y179116D01*
Y179070D01*
Y179024D01*
X119579Y178959D01*
Y178885D01*
X119570Y178710D01*
X119542Y178506D01*
X119515Y178294D01*
X119468Y178072D01*
X119413Y177850D01*
Y177841D01*
X119404Y177822D01*
X119394Y177794D01*
X119385Y177757D01*
X119348Y177656D01*
X119293Y177526D01*
X119237Y177378D01*
X119163Y177230D01*
X119071Y177073D01*
X118978Y176925D01*
X118969Y176907D01*
X118932Y176861D01*
X118877Y176796D01*
X118803Y176713D01*
X118719Y176620D01*
X118618Y176528D01*
X118516Y176426D01*
X118396Y176343D01*
X118377Y176334D01*
X118340Y176306D01*
X118276Y176269D01*
X118183Y176223D01*
X118072Y176167D01*
X117943Y176121D01*
X117795Y176066D01*
X117628Y176019D01*
X117610D01*
X117582Y176010D01*
X117555Y176001D01*
X117462Y175991D01*
X117333Y175973D01*
X117185Y175954D01*
X117009Y175936D01*
X116815Y175927D01*
X116602Y175918D01*
X114300D01*
Y182316D01*
X116759D01*
X116926Y182306D01*
D02*
G37*
G36*
X171357Y133302D02*
X168389D01*
X168315Y133311D01*
X168232D01*
X168037Y133321D01*
X167834Y133348D01*
X167612Y133376D01*
X167409Y133422D01*
X167307Y133450D01*
X167224Y133478D01*
X167215D01*
X167205Y133487D01*
X167150Y133515D01*
X167067Y133552D01*
X166965Y133617D01*
X166854Y133700D01*
X166734Y133811D01*
X166623Y133940D01*
X166512Y134088D01*
Y134097D01*
X166503Y134107D01*
X166466Y134162D01*
X166429Y134254D01*
X166373Y134375D01*
X166327Y134513D01*
X166281Y134680D01*
X166253Y134855D01*
X166244Y135049D01*
Y135059D01*
Y135077D01*
Y135114D01*
X166253Y135161D01*
Y135225D01*
X166262Y135290D01*
X166299Y135447D01*
X166355Y135632D01*
X166429Y135826D01*
X166540Y136020D01*
X166614Y136113D01*
X166688Y136205D01*
X166697Y136215D01*
X166706Y136224D01*
X166734Y136251D01*
X166771Y136279D01*
X166817Y136316D01*
X166873Y136353D01*
X166947Y136399D01*
X167020Y136455D01*
X167113Y136501D01*
X167215Y136547D01*
X167325Y136603D01*
X167446Y136649D01*
X167584Y136686D01*
X167723Y136732D01*
X167880Y136760D01*
X168047Y136788D01*
X168028Y136797D01*
X167991Y136815D01*
X167936Y136852D01*
X167862Y136889D01*
X167695Y136991D01*
X167612Y137056D01*
X167538Y137111D01*
X167520Y137130D01*
X167474Y137176D01*
X167400Y137250D01*
X167307Y137342D01*
X167205Y137472D01*
X167085Y137611D01*
X166965Y137777D01*
X166835Y137962D01*
X165735Y139700D01*
X166789D01*
X167631Y138369D01*
Y138359D01*
X167649Y138341D01*
X167668Y138313D01*
X167695Y138276D01*
X167760Y138175D01*
X167843Y138045D01*
X167945Y137906D01*
X168047Y137759D01*
X168148Y137620D01*
X168241Y137490D01*
X168250Y137481D01*
X168278Y137444D01*
X168324Y137389D01*
X168389Y137324D01*
X168528Y137185D01*
X168601Y137121D01*
X168675Y137065D01*
X168685Y137056D01*
X168703Y137047D01*
X168740Y137028D01*
X168796Y137000D01*
X168851Y136973D01*
X168916Y136945D01*
X169064Y136899D01*
X169073D01*
X169091Y136889D01*
X169128D01*
X169175Y136880D01*
X169239Y136871D01*
X169313D01*
X169415Y136862D01*
X170506D01*
Y139700D01*
X171357D01*
Y133302D01*
D02*
G37*
G36*
X165347Y139691D02*
Y139654D01*
Y139598D01*
X165338Y139524D01*
X165329Y139441D01*
X165310Y139349D01*
X165292Y139256D01*
X165254Y139155D01*
Y139145D01*
X165245Y139136D01*
X165227Y139081D01*
X165190Y138997D01*
X165134Y138886D01*
X165060Y138757D01*
X164968Y138609D01*
X164866Y138461D01*
X164737Y138304D01*
Y138295D01*
X164718Y138286D01*
X164672Y138230D01*
X164589Y138147D01*
X164469Y138027D01*
X164330Y137888D01*
X164154Y137722D01*
X163942Y137537D01*
X163710Y137342D01*
X163701Y137333D01*
X163664Y137305D01*
X163609Y137259D01*
X163544Y137204D01*
X163461Y137130D01*
X163359Y137047D01*
X163258Y136954D01*
X163137Y136852D01*
X162906Y136630D01*
X162675Y136409D01*
X162564Y136298D01*
X162462Y136187D01*
X162370Y136085D01*
X162296Y135983D01*
Y135974D01*
X162278Y135965D01*
X162259Y135937D01*
X162241Y135900D01*
X162176Y135798D01*
X162102Y135678D01*
X162037Y135530D01*
X161972Y135373D01*
X161935Y135197D01*
X161917Y135031D01*
Y135022D01*
Y135013D01*
X161926Y134957D01*
X161935Y134865D01*
X161963Y134763D01*
X162000Y134634D01*
X162065Y134504D01*
X162148Y134375D01*
X162259Y134245D01*
X162278Y134227D01*
X162324Y134190D01*
X162388Y134143D01*
X162490Y134079D01*
X162619Y134023D01*
X162768Y133968D01*
X162943Y133931D01*
X163137Y133922D01*
X163193D01*
X163230Y133931D01*
X163341Y133940D01*
X163470Y133968D01*
X163609Y134005D01*
X163766Y134069D01*
X163914Y134153D01*
X164053Y134264D01*
X164071Y134282D01*
X164108Y134328D01*
X164164Y134402D01*
X164219Y134513D01*
X164284Y134643D01*
X164339Y134809D01*
X164376Y134994D01*
X164395Y135207D01*
X165199Y135124D01*
Y135114D01*
X165190Y135086D01*
Y135040D01*
X165181Y134976D01*
X165162Y134902D01*
X165144Y134818D01*
X165116Y134717D01*
X165088Y134615D01*
X165014Y134393D01*
X164903Y134171D01*
X164839Y134060D01*
X164755Y133949D01*
X164672Y133848D01*
X164580Y133755D01*
X164570Y133746D01*
X164552Y133737D01*
X164524Y133709D01*
X164478Y133681D01*
X164422Y133644D01*
X164358Y133607D01*
X164284Y133561D01*
X164191Y133515D01*
X164090Y133469D01*
X163979Y133422D01*
X163858Y133385D01*
X163729Y133348D01*
X163590Y133321D01*
X163442Y133293D01*
X163285Y133284D01*
X163119Y133274D01*
X163026D01*
X162962Y133284D01*
X162888Y133293D01*
X162795Y133302D01*
X162694Y133321D01*
X162592Y133339D01*
X162351Y133404D01*
X162111Y133496D01*
X161991Y133552D01*
X161871Y133617D01*
X161760Y133700D01*
X161658Y133792D01*
X161649Y133801D01*
X161630Y133811D01*
X161612Y133848D01*
X161575Y133885D01*
X161529Y133931D01*
X161482Y133996D01*
X161436Y134060D01*
X161381Y134143D01*
X161288Y134319D01*
X161196Y134541D01*
X161159Y134652D01*
X161140Y134781D01*
X161122Y134911D01*
X161112Y135049D01*
Y135068D01*
Y135114D01*
X161122Y135188D01*
X161131Y135290D01*
X161150Y135401D01*
X161187Y135530D01*
X161224Y135669D01*
X161279Y135808D01*
X161288Y135826D01*
X161307Y135872D01*
X161344Y135946D01*
X161399Y136048D01*
X161473Y136159D01*
X161565Y136298D01*
X161677Y136436D01*
X161806Y136594D01*
X161824Y136612D01*
X161871Y136667D01*
X161917Y136714D01*
X161963Y136760D01*
X162019Y136815D01*
X162092Y136889D01*
X162167Y136963D01*
X162259Y137047D01*
X162351Y137139D01*
X162462Y137241D01*
X162583Y137342D01*
X162712Y137463D01*
X162860Y137583D01*
X163008Y137712D01*
X163017Y137722D01*
X163036Y137740D01*
X163073Y137768D01*
X163119Y137805D01*
X163174Y137860D01*
X163239Y137916D01*
X163387Y138036D01*
X163544Y138175D01*
X163692Y138313D01*
X163822Y138433D01*
X163877Y138480D01*
X163923Y138526D01*
X163932Y138535D01*
X163960Y138563D01*
X163997Y138600D01*
X164043Y138655D01*
X164090Y138720D01*
X164145Y138785D01*
X164256Y138942D01*
X161103D01*
Y139700D01*
X165347D01*
Y139691D01*
D02*
G37*
G36*
X171544Y171402D02*
X168576D01*
X168502Y171411D01*
X168419D01*
X168225Y171421D01*
X168021Y171448D01*
X167799Y171476D01*
X167596Y171522D01*
X167494Y171550D01*
X167411Y171578D01*
X167402D01*
X167392Y171587D01*
X167337Y171615D01*
X167254Y171652D01*
X167152Y171716D01*
X167041Y171800D01*
X166921Y171911D01*
X166810Y172040D01*
X166699Y172188D01*
Y172197D01*
X166690Y172206D01*
X166653Y172262D01*
X166616Y172354D01*
X166560Y172475D01*
X166514Y172613D01*
X166468Y172780D01*
X166440Y172955D01*
X166431Y173150D01*
Y173159D01*
Y173177D01*
Y173214D01*
X166440Y173260D01*
Y173325D01*
X166449Y173390D01*
X166486Y173547D01*
X166542Y173732D01*
X166616Y173926D01*
X166727Y174120D01*
X166801Y174213D01*
X166875Y174305D01*
X166884Y174314D01*
X166893Y174324D01*
X166921Y174352D01*
X166958Y174379D01*
X167004Y174416D01*
X167059Y174453D01*
X167134Y174499D01*
X167207Y174555D01*
X167300Y174601D01*
X167402Y174647D01*
X167512Y174703D01*
X167633Y174749D01*
X167771Y174786D01*
X167910Y174832D01*
X168067Y174860D01*
X168234Y174888D01*
X168215Y174897D01*
X168178Y174915D01*
X168123Y174952D01*
X168049Y174989D01*
X167882Y175091D01*
X167799Y175156D01*
X167725Y175211D01*
X167707Y175230D01*
X167661Y175276D01*
X167586Y175350D01*
X167494Y175442D01*
X167392Y175572D01*
X167272Y175711D01*
X167152Y175877D01*
X167022Y176062D01*
X165922Y177800D01*
X166976D01*
X167818Y176469D01*
Y176460D01*
X167836Y176441D01*
X167855Y176413D01*
X167882Y176376D01*
X167947Y176275D01*
X168030Y176145D01*
X168132Y176006D01*
X168234Y175858D01*
X168335Y175720D01*
X168428Y175590D01*
X168437Y175581D01*
X168465Y175544D01*
X168511Y175489D01*
X168576Y175424D01*
X168715Y175285D01*
X168788Y175221D01*
X168862Y175165D01*
X168872Y175156D01*
X168890Y175147D01*
X168927Y175128D01*
X168983Y175100D01*
X169038Y175073D01*
X169103Y175045D01*
X169251Y174999D01*
X169260D01*
X169279Y174989D01*
X169315D01*
X169362Y174980D01*
X169426Y174971D01*
X169500D01*
X169602Y174962D01*
X170693D01*
Y177800D01*
X171544D01*
Y171402D01*
D02*
G37*
G36*
X163250Y172798D02*
X163260Y172808D01*
X163306Y172844D01*
X163361Y172900D01*
X163454Y172965D01*
X163555Y173048D01*
X163685Y173140D01*
X163833Y173242D01*
X163999Y173344D01*
X164009D01*
X164018Y173353D01*
X164073Y173390D01*
X164166Y173436D01*
X164277Y173492D01*
X164406Y173556D01*
X164545Y173621D01*
X164683Y173686D01*
X164822Y173741D01*
Y172983D01*
X164813D01*
X164794Y172965D01*
X164757Y172955D01*
X164711Y172928D01*
X164656Y172900D01*
X164591Y172863D01*
X164434Y172771D01*
X164249Y172669D01*
X164064Y172539D01*
X163870Y172391D01*
X163676Y172234D01*
X163666Y172225D01*
X163657Y172216D01*
X163629Y172188D01*
X163592Y172160D01*
X163509Y172068D01*
X163398Y171957D01*
X163287Y171827D01*
X163167Y171679D01*
X163065Y171532D01*
X162973Y171374D01*
X162464D01*
Y177800D01*
X163250D01*
Y172798D01*
D02*
G37*
%LPC*%
G36*
X114330Y232468D02*
X112851D01*
Y227587D01*
X114367D01*
X114432Y227596D01*
X114570Y227605D01*
X114727Y227614D01*
X114894Y227633D01*
X115060Y227661D01*
X115199Y227698D01*
X115218Y227707D01*
X115264Y227716D01*
X115328Y227744D01*
X115412Y227781D01*
X115504Y227836D01*
X115597Y227892D01*
X115689Y227957D01*
X115781Y228030D01*
X115791Y228049D01*
X115828Y228086D01*
X115883Y228151D01*
X115948Y228243D01*
X116022Y228363D01*
X116105Y228502D01*
X116179Y228659D01*
X116244Y228835D01*
Y228844D01*
X116253Y228862D01*
X116262Y228890D01*
X116271Y228927D01*
X116281Y228974D01*
X116299Y229038D01*
X116318Y229103D01*
X116336Y229177D01*
X116364Y229362D01*
X116392Y229574D01*
X116410Y229815D01*
X116419Y230074D01*
Y230083D01*
Y230120D01*
Y230166D01*
X116410Y230240D01*
Y230323D01*
X116401Y230416D01*
X116392Y230527D01*
X116382Y230638D01*
X116336Y230887D01*
X116281Y231146D01*
X116198Y231387D01*
X116142Y231507D01*
X116087Y231609D01*
Y231618D01*
X116068Y231636D01*
X116050Y231664D01*
X116031Y231701D01*
X115957Y231793D01*
X115865Y231904D01*
X115744Y232024D01*
X115606Y232145D01*
X115449Y232246D01*
X115282Y232330D01*
X115264Y232339D01*
X115218Y232348D01*
X115134Y232376D01*
X115014Y232404D01*
X114866Y232422D01*
X114681Y232450D01*
X114570Y232459D01*
X114450D01*
X114330Y232468D01*
D02*
G37*
G36*
X122945Y142940D02*
X120929Y140073D01*
X122945D01*
Y142940D01*
D02*
G37*
G36*
X116630Y143457D02*
X115151D01*
Y138576D01*
X116667D01*
X116732Y138585D01*
X116870Y138594D01*
X117028Y138603D01*
X117194Y138622D01*
X117360Y138650D01*
X117499Y138687D01*
X117517Y138696D01*
X117564Y138705D01*
X117628Y138733D01*
X117712Y138770D01*
X117804Y138825D01*
X117896Y138881D01*
X117989Y138946D01*
X118082Y139019D01*
X118091Y139038D01*
X118128Y139075D01*
X118183Y139140D01*
X118248Y139232D01*
X118322Y139352D01*
X118405Y139491D01*
X118479Y139648D01*
X118544Y139824D01*
Y139833D01*
X118553Y139852D01*
X118562Y139879D01*
X118572Y139916D01*
X118581Y139963D01*
X118599Y140027D01*
X118618Y140092D01*
X118636Y140166D01*
X118664Y140351D01*
X118692Y140563D01*
X118710Y140804D01*
X118719Y141063D01*
Y141072D01*
Y141109D01*
Y141155D01*
X118710Y141229D01*
Y141312D01*
X118701Y141405D01*
X118692Y141516D01*
X118682Y141627D01*
X118636Y141876D01*
X118581Y142135D01*
X118497Y142376D01*
X118442Y142496D01*
X118387Y142598D01*
Y142607D01*
X118368Y142625D01*
X118350Y142653D01*
X118331Y142690D01*
X118257Y142782D01*
X118165Y142893D01*
X118045Y143014D01*
X117906Y143134D01*
X117749Y143236D01*
X117582Y143319D01*
X117564Y143328D01*
X117517Y143337D01*
X117434Y143365D01*
X117314Y143393D01*
X117166Y143411D01*
X116981Y143439D01*
X116870Y143448D01*
X116750D01*
X116630Y143457D01*
D02*
G37*
G36*
X168206Y225031D02*
X166301D01*
X166190Y225022D01*
X166061Y225013D01*
X165913Y225004D01*
X165765Y224985D01*
X165617Y224957D01*
X165488Y224920D01*
X165469Y224911D01*
X165432Y224893D01*
X165377Y224865D01*
X165303Y224828D01*
X165220Y224772D01*
X165136Y224708D01*
X165053Y224625D01*
X164988Y224532D01*
X164979Y224523D01*
X164961Y224486D01*
X164933Y224430D01*
X164896Y224356D01*
X164868Y224273D01*
X164841Y224181D01*
X164822Y224070D01*
X164813Y223959D01*
Y223950D01*
Y223940D01*
X164822Y223885D01*
X164831Y223802D01*
X164850Y223691D01*
X164896Y223580D01*
X164951Y223450D01*
X165035Y223330D01*
X165146Y223210D01*
X165164Y223201D01*
X165210Y223164D01*
X165284Y223117D01*
X165405Y223062D01*
X165543Y223006D01*
X165728Y222960D01*
X165941Y222923D01*
X166190Y222914D01*
X168206D01*
Y225031D01*
D02*
G37*
G36*
X113430Y270568D02*
X111951D01*
Y265687D01*
X113467D01*
X113532Y265696D01*
X113670Y265705D01*
X113827Y265714D01*
X113994Y265733D01*
X114160Y265761D01*
X114299Y265798D01*
X114318Y265807D01*
X114364Y265816D01*
X114428Y265844D01*
X114512Y265881D01*
X114604Y265936D01*
X114697Y265992D01*
X114789Y266056D01*
X114881Y266130D01*
X114891Y266149D01*
X114928Y266186D01*
X114983Y266251D01*
X115048Y266343D01*
X115122Y266463D01*
X115205Y266602D01*
X115279Y266759D01*
X115344Y266935D01*
Y266944D01*
X115353Y266963D01*
X115362Y266990D01*
X115372Y267027D01*
X115381Y267073D01*
X115399Y267138D01*
X115418Y267203D01*
X115436Y267277D01*
X115464Y267462D01*
X115492Y267674D01*
X115510Y267915D01*
X115519Y268174D01*
Y268183D01*
Y268220D01*
Y268266D01*
X115510Y268340D01*
Y268423D01*
X115501Y268516D01*
X115492Y268627D01*
X115482Y268738D01*
X115436Y268987D01*
X115381Y269246D01*
X115297Y269487D01*
X115242Y269607D01*
X115187Y269708D01*
Y269718D01*
X115168Y269736D01*
X115150Y269764D01*
X115131Y269801D01*
X115057Y269893D01*
X114965Y270004D01*
X114845Y270124D01*
X114706Y270245D01*
X114549Y270346D01*
X114382Y270430D01*
X114364Y270439D01*
X114318Y270448D01*
X114234Y270476D01*
X114114Y270504D01*
X113966Y270522D01*
X113781Y270550D01*
X113670Y270559D01*
X113550D01*
X113430Y270568D01*
D02*
G37*
G36*
X164249Y263131D02*
X162345D01*
X162234Y263122D01*
X162104Y263113D01*
X161957Y263104D01*
X161809Y263085D01*
X161661Y263057D01*
X161531Y263020D01*
X161513Y263011D01*
X161476Y262993D01*
X161420Y262965D01*
X161346Y262928D01*
X161263Y262872D01*
X161180Y262808D01*
X161097Y262724D01*
X161032Y262632D01*
X161023Y262623D01*
X161004Y262586D01*
X160977Y262530D01*
X160940Y262456D01*
X160912Y262373D01*
X160884Y262281D01*
X160866Y262170D01*
X160856Y262059D01*
Y262050D01*
Y262040D01*
X160866Y261985D01*
X160875Y261902D01*
X160893Y261791D01*
X160940Y261680D01*
X160995Y261550D01*
X161078Y261430D01*
X161189Y261310D01*
X161208Y261301D01*
X161254Y261264D01*
X161328Y261217D01*
X161448Y261162D01*
X161587Y261106D01*
X161772Y261060D01*
X161984Y261023D01*
X162234Y261014D01*
X164249D01*
Y263131D01*
D02*
G37*
G36*
X400801Y165233D02*
X398785Y162367D01*
X400801D01*
Y165233D01*
D02*
G37*
G36*
X682555Y487019D02*
X682546D01*
X682509D01*
X682462D01*
X682388Y487010D01*
X682305D01*
X682213Y487001D01*
X682102Y486992D01*
X681991Y486982D01*
X681741Y486936D01*
X681482Y486881D01*
X681242Y486797D01*
X681122Y486742D01*
X681020Y486686D01*
X681011D01*
X680992Y486668D01*
X680965Y486649D01*
X680928Y486631D01*
X680835Y486557D01*
X680724Y486465D01*
X680604Y486344D01*
X680484Y486206D01*
X680382Y486049D01*
X680299Y485882D01*
X680290Y485864D01*
X680281Y485817D01*
X680253Y485734D01*
X680225Y485614D01*
X680207Y485466D01*
X680179Y485281D01*
X680170Y485170D01*
Y485050D01*
X680160Y484930D01*
Y483451D01*
X685042D01*
Y484967D01*
X685033Y485032D01*
X685023Y485170D01*
X685014Y485327D01*
X684996Y485494D01*
X684968Y485660D01*
X684931Y485799D01*
X684922Y485817D01*
X684912Y485864D01*
X684885Y485928D01*
X684848Y486012D01*
X684792Y486104D01*
X684737Y486196D01*
X684672Y486289D01*
X684598Y486381D01*
X684580Y486391D01*
X684543Y486428D01*
X684478Y486483D01*
X684386Y486548D01*
X684265Y486622D01*
X684127Y486705D01*
X683969Y486779D01*
X683794Y486844D01*
X683784D01*
X683766Y486853D01*
X683738Y486862D01*
X683701Y486871D01*
X683655Y486881D01*
X683590Y486899D01*
X683526Y486918D01*
X683452Y486936D01*
X683267Y486964D01*
X683054Y486992D01*
X682814Y487010D01*
X682555Y487019D01*
D02*
G37*
G36*
X116630Y181557D02*
X115151D01*
Y176676D01*
X116667D01*
X116732Y176685D01*
X116870Y176694D01*
X117028Y176703D01*
X117194Y176722D01*
X117360Y176750D01*
X117499Y176787D01*
X117517Y176796D01*
X117564Y176805D01*
X117628Y176833D01*
X117712Y176870D01*
X117804Y176925D01*
X117896Y176981D01*
X117989Y177045D01*
X118082Y177120D01*
X118091Y177138D01*
X118128Y177175D01*
X118183Y177240D01*
X118248Y177332D01*
X118322Y177452D01*
X118405Y177591D01*
X118479Y177748D01*
X118544Y177924D01*
Y177933D01*
X118553Y177952D01*
X118562Y177979D01*
X118572Y178016D01*
X118581Y178062D01*
X118599Y178127D01*
X118618Y178192D01*
X118636Y178266D01*
X118664Y178451D01*
X118692Y178664D01*
X118710Y178904D01*
X118719Y179163D01*
Y179172D01*
Y179209D01*
Y179255D01*
X118710Y179329D01*
Y179412D01*
X118701Y179505D01*
X118692Y179616D01*
X118682Y179727D01*
X118636Y179976D01*
X118581Y180235D01*
X118497Y180476D01*
X118442Y180596D01*
X118387Y180697D01*
Y180707D01*
X118368Y180725D01*
X118350Y180753D01*
X118331Y180790D01*
X118257Y180882D01*
X118165Y180993D01*
X118045Y181114D01*
X117906Y181234D01*
X117749Y181336D01*
X117582Y181419D01*
X117564Y181428D01*
X117517Y181437D01*
X117434Y181465D01*
X117314Y181493D01*
X117166Y181511D01*
X116981Y181539D01*
X116870Y181548D01*
X116750D01*
X116630Y181557D01*
D02*
G37*
G36*
X170506Y136131D02*
X168601D01*
X168491Y136122D01*
X168361Y136113D01*
X168213Y136103D01*
X168065Y136085D01*
X167917Y136057D01*
X167788Y136020D01*
X167769Y136011D01*
X167732Y135993D01*
X167677Y135965D01*
X167603Y135928D01*
X167520Y135872D01*
X167437Y135808D01*
X167353Y135724D01*
X167289Y135632D01*
X167279Y135623D01*
X167261Y135586D01*
X167233Y135530D01*
X167196Y135456D01*
X167168Y135373D01*
X167141Y135281D01*
X167122Y135170D01*
X167113Y135059D01*
Y135049D01*
Y135040D01*
X167122Y134985D01*
X167131Y134902D01*
X167150Y134791D01*
X167196Y134680D01*
X167252Y134550D01*
X167335Y134430D01*
X167446Y134310D01*
X167464Y134301D01*
X167511Y134264D01*
X167584Y134217D01*
X167705Y134162D01*
X167843Y134107D01*
X168028Y134060D01*
X168241Y134023D01*
X168491Y134014D01*
X170506D01*
Y136131D01*
D02*
G37*
G36*
X170693Y174231D02*
X168788D01*
X168678Y174222D01*
X168548Y174213D01*
X168400Y174203D01*
X168252Y174185D01*
X168104Y174157D01*
X167975Y174120D01*
X167956Y174111D01*
X167919Y174093D01*
X167864Y174065D01*
X167790Y174028D01*
X167707Y173972D01*
X167624Y173908D01*
X167540Y173825D01*
X167476Y173732D01*
X167466Y173723D01*
X167448Y173686D01*
X167420Y173630D01*
X167383Y173556D01*
X167355Y173473D01*
X167328Y173381D01*
X167309Y173270D01*
X167300Y173159D01*
Y173150D01*
Y173140D01*
X167309Y173085D01*
X167318Y173002D01*
X167337Y172891D01*
X167383Y172780D01*
X167439Y172650D01*
X167522Y172530D01*
X167633Y172410D01*
X167651Y172401D01*
X167698Y172364D01*
X167771Y172317D01*
X167892Y172262D01*
X168030Y172206D01*
X168215Y172160D01*
X168428Y172123D01*
X168678Y172114D01*
X170693D01*
Y174231D01*
D02*
G37*
%LPD*%
D10*
X97000Y220600D02*
Y236600D01*
Y220600D02*
X127000D01*
Y236600D01*
X97000D02*
X127000D01*
X99300Y131700D02*
Y147700D01*
Y131700D02*
X129300D01*
Y147700D01*
X99300D02*
X129300D01*
X180588Y222600D02*
Y234600D01*
X157526D02*
X180588D01*
X157526Y222600D02*
Y234600D01*
Y222600D02*
X180588D01*
X96100Y258700D02*
Y274700D01*
Y258700D02*
X126100D01*
Y274700D01*
X96100D02*
X126100D01*
X176631Y260700D02*
Y272700D01*
X153569D02*
X176631D01*
X153569Y260700D02*
Y272700D01*
Y260700D02*
X176631D01*
X353900Y214250D02*
Y283550D01*
Y214250D02*
X433500D01*
Y283550D01*
X353900D02*
X433500D01*
X353900Y125350D02*
Y194650D01*
Y125350D02*
X433500D01*
Y194650D01*
X353900D02*
X433500D01*
X468200Y125350D02*
Y194650D01*
Y125350D02*
X547800D01*
Y194650D01*
X468200D02*
X547800D01*
X468200Y214250D02*
Y283550D01*
Y214250D02*
X547800D01*
Y283550D01*
X468200D02*
X547800D01*
X535500Y367700D02*
Y419700D01*
Y367700D02*
X607500D01*
Y419700D01*
X535500D02*
X607500D01*
X665050Y448705D02*
X706550D01*
Y516495D01*
X665050D02*
X706550D01*
X665050Y448705D02*
Y516495D01*
X99300Y169800D02*
Y185800D01*
Y169800D02*
X129300D01*
Y185800D01*
X99300D02*
X129300D01*
X182887Y133700D02*
Y145700D01*
X159825D02*
X182887D01*
X159825Y133700D02*
Y145700D01*
Y133700D02*
X182887D01*
X183074Y171800D02*
Y183800D01*
X160012D02*
X183074D01*
X160012Y171800D02*
Y183800D01*
Y171800D02*
X183074D01*
M02*
