G04*
G04 #@! TF.GenerationSoftware,Altium Limited,Altium Designer,25.2.1 (25)*
G04*
G04 Layer_Color=16711935*
%FSLAX44Y44*%
%MOMM*%
G71*
G04*
G04 #@! TF.SameCoordinates,3C1D010B-D615-4C1A-A092-7D16AA53BB1E*
G04*
G04*
G04 #@! TF.FilePolarity,Positive*
G04*
G01*
G75*
%ADD13C,0.1270*%
D13*
X676400Y355600D02*
G03*
X676400Y355600I-15999J0D01*
G01*
Y76200D02*
G03*
X676400Y76200I-15999J0D01*
G01*
X155700Y25400D02*
G03*
X155700Y25400I-15999J0D01*
G01*
X168400Y508000D02*
G03*
X168400Y508000I-15999J0D01*
G01*
X660400Y0D02*
X685800D01*
X-127000Y25400D02*
Y133350D01*
X787400Y0D02*
X812800Y25400D01*
X-127000Y133350D02*
Y400050D01*
X812800Y463550D02*
Y488950D01*
X685800Y0D02*
X787400D01*
X-127000Y508000D02*
X-101600Y533400D01*
X660400D02*
X673100D01*
X812800Y488950D02*
Y508000D01*
Y412750D02*
Y438150D01*
X-101600Y0D02*
X660400D01*
X812800Y44450D02*
Y412750D01*
X-101600Y533400D02*
X660400D01*
X-127000Y25400D02*
X-101600Y0D01*
X-127000Y400050D02*
Y508000D01*
X812800Y438150D02*
Y463550D01*
X673100Y533400D02*
X787400D01*
X812800Y508000D01*
Y25400D02*
Y44450D01*
M02*
