G04*
G04 #@! TF.GenerationSoftware,Altium Limited,Altium Designer,25.2.1 (25)*
G04*
G04 Layer_Color=16711935*
%FSLAX44Y44*%
%MOMM*%
G71*
G04*
G04 #@! TF.SameCoordinates,3C1D010B-D615-4C1A-A092-7D16AA53BB1E*
G04*
G04*
G04 #@! TF.FilePolarity,Negative*
G04*
G01*
G75*
%ADD32C,1.7032*%
%ADD33R,1.7082X1.7082*%
%ADD34C,1.7082*%
%ADD35C,1.2232*%
%ADD36C,1.8032*%
G04:AMPARAMS|DCode=37|XSize=1.8032mm|YSize=1.8032mm|CornerRadius=0.5016mm|HoleSize=0mm|Usage=FLASHONLY|Rotation=270.000|XOffset=0mm|YOffset=0mm|HoleType=Round|Shape=RoundedRectangle|*
%AMROUNDEDRECTD37*
21,1,1.8032,0.8000,0,0,270.0*
21,1,0.8000,1.8032,0,0,270.0*
1,1,1.0032,-0.4000,-0.4000*
1,1,1.0032,-0.4000,0.4000*
1,1,1.0032,0.4000,0.4000*
1,1,1.0032,0.4000,-0.4000*
%
%ADD37ROUNDEDRECTD37*%
%ADD38R,1.6900X1.6900*%
%ADD39C,1.6900*%
%ADD40R,1.7532X1.7532*%
%ADD41C,1.7532*%
%ADD42R,1.7272X1.7272*%
%ADD43C,1.7272*%
%ADD44C,3.4032*%
D32*
X-88500Y63500D02*
D03*
X-63500D02*
D03*
X-38500D02*
D03*
X38900D02*
D03*
X63900D02*
D03*
X88900D02*
D03*
X178200D02*
D03*
X203200D02*
D03*
X228200D02*
D03*
D33*
X762000Y452600D02*
D03*
D34*
Y482600D02*
D03*
D35*
X792000Y492000D02*
D03*
X732000D02*
D03*
D36*
X584200Y139700D02*
D03*
Y165100D02*
D03*
Y215900D02*
D03*
Y266700D02*
D03*
Y241300D02*
D03*
Y190500D02*
D03*
D37*
Y292100D02*
D03*
D38*
X406400Y241300D02*
D03*
Y152400D02*
D03*
X520700D02*
D03*
Y241300D02*
D03*
D39*
X381000D02*
D03*
Y152400D02*
D03*
X495300D02*
D03*
Y241300D02*
D03*
D40*
X342900Y368300D02*
D03*
X304800D02*
D03*
X266700D02*
D03*
X228600D02*
D03*
D41*
X342900Y342900D02*
D03*
Y317500D02*
D03*
X304800Y342900D02*
D03*
Y317500D02*
D03*
X266700Y342900D02*
D03*
Y317500D02*
D03*
X228600Y342900D02*
D03*
Y317500D02*
D03*
D42*
X635000Y508000D02*
D03*
X457200Y25400D02*
D03*
X416560Y508000D02*
D03*
X508000Y25400D02*
D03*
D43*
X558800Y508000D02*
D03*
X533400D02*
D03*
X508000D02*
D03*
X482600D02*
D03*
X457200D02*
D03*
X609600D02*
D03*
X584200D02*
D03*
X381000Y25400D02*
D03*
X355600D02*
D03*
X330200D02*
D03*
X304800D02*
D03*
X279400D02*
D03*
X431800D02*
D03*
X406400D02*
D03*
X187960Y508000D02*
D03*
X213360D02*
D03*
X238760D02*
D03*
X264160D02*
D03*
X289560D02*
D03*
X314960D02*
D03*
X340360D02*
D03*
X365760D02*
D03*
X391160D02*
D03*
X635000Y25400D02*
D03*
X609600D02*
D03*
X584200D02*
D03*
X558800D02*
D03*
X533400D02*
D03*
D44*
X660400Y355600D02*
D03*
X152400Y508000D02*
D03*
X139700Y25400D02*
D03*
X660400Y76200D02*
D03*
M02*
