G04*
G04 #@! TF.GenerationSoftware,Altium Limited,Altium Designer,25.2.1 (25)*
G04*
G04 Layer_Color=16711935*
%FSLAX44Y44*%
%MOMM*%
G71*
G04*
G04 #@! TF.SameCoordinates,3C1D010B-D615-4C1A-A092-7D16AA53BB1E*
G04*
G04*
G04 #@! TF.FilePolarity,Positive*
G04*
G01*
G75*
%ADD10C,0.2000*%
%ADD11C,0.1000*%
%ADD13C,0.1270*%
D10*
X-111000Y13500D02*
Y84000D01*
Y13500D02*
X-16000D01*
Y84000D01*
X-111000D02*
X-16000D01*
X-28500Y-56500D02*
Y13500D01*
X-98500Y-56500D02*
X-28500D01*
X-98500D02*
Y13500D01*
X-28500D01*
X-93500Y-126500D02*
Y-56500D01*
Y-126500D02*
X-33500D01*
Y-56500D01*
X-93500D02*
X-33500D01*
X101500Y221600D02*
Y235600D01*
Y221600D02*
X122500D01*
Y235600D01*
X101500D02*
X122500D01*
X103800Y132700D02*
Y146700D01*
Y132700D02*
X124800D01*
Y146700D01*
X103800D02*
X124800D01*
X16400Y13500D02*
Y84000D01*
Y13500D02*
X111400D01*
Y84000D01*
X16400D02*
X111400D01*
X98900Y-56500D02*
Y13500D01*
X28900Y-56500D02*
X98900D01*
X28900D02*
Y13500D01*
X98900D01*
X33900Y-126500D02*
Y-56500D01*
Y-126500D02*
X93900D01*
Y-56500D01*
X33900D02*
X93900D01*
X155700Y13500D02*
Y84000D01*
Y13500D02*
X250700D01*
Y84000D01*
X155700D02*
X250700D01*
X238200Y-56500D02*
Y13500D01*
X168200Y-56500D02*
X238200D01*
X168200D02*
Y13500D01*
X238200D01*
X173200Y-126500D02*
Y-56500D01*
Y-126500D02*
X233200D01*
Y-56500D01*
X173200D02*
X233200D01*
X177057Y224600D02*
Y232600D01*
X161056D02*
X177057D01*
X161056Y224600D02*
Y232600D01*
Y224600D02*
X177057D01*
X100600Y259700D02*
Y273700D01*
Y259700D02*
X121600D01*
Y273700D01*
X100600D02*
X121600D01*
X173100Y262700D02*
Y270700D01*
X157100D02*
X173100D01*
X157100Y262700D02*
Y270700D01*
Y262700D02*
X173100D01*
X354900Y215250D02*
Y282550D01*
Y215250D02*
X432500D01*
Y282550D01*
X354900D02*
X432500D01*
X354900Y126350D02*
Y193650D01*
Y126350D02*
X432500D01*
Y193650D01*
X354900D02*
X432500D01*
X469200Y126350D02*
Y193650D01*
Y126350D02*
X546800D01*
Y193650D01*
X469200D02*
X546800D01*
X469200Y215250D02*
Y282550D01*
Y215250D02*
X546800D01*
Y282550D01*
X469200D02*
X546800D01*
X551500Y368700D02*
Y418700D01*
Y368700D02*
X591500D01*
Y418700D01*
X551500D02*
X591500D01*
X666050Y459600D02*
X705550D01*
Y505600D01*
X666050D02*
X705550D01*
X666050Y459600D02*
Y505600D01*
X103800Y170800D02*
Y184800D01*
Y170800D02*
X124800D01*
Y184800D01*
X103800D02*
X124800D01*
X179356Y135700D02*
Y143700D01*
X163356D02*
X179356D01*
X163356Y135700D02*
Y143700D01*
Y135700D02*
X179356D01*
X179543Y173800D02*
Y181800D01*
X163543D02*
X179543D01*
X163543Y173800D02*
Y181800D01*
Y173800D02*
X179543D01*
D11*
X-90100Y504900D02*
X29900D01*
Y384900D02*
Y504900D01*
X-90100Y384900D02*
X29900D01*
X-90100D02*
Y504900D01*
X251700Y157600D02*
Y172600D01*
X281700D01*
Y157600D02*
Y172600D01*
X251700Y157600D02*
X281700D01*
X251700Y167100D02*
X261200Y157600D01*
X207400Y224100D02*
Y233100D01*
X224400Y224100D02*
Y233100D01*
X207400D02*
X224400D01*
X207400Y224100D02*
X224400D01*
X217900Y262200D02*
Y271200D01*
X200900Y262200D02*
Y271200D01*
Y262200D02*
X217900D01*
X200900Y271200D02*
X217900D01*
X251700Y233800D02*
Y248800D01*
X281700D01*
Y233800D02*
Y248800D01*
X251700Y233800D02*
X281700D01*
X251700Y243300D02*
X261200Y233800D01*
X207400Y135200D02*
Y144200D01*
X224400Y135200D02*
Y144200D01*
X207400D02*
X224400D01*
X207400Y135200D02*
X224400D01*
X224400Y173300D02*
Y182300D01*
X207400Y173300D02*
Y182300D01*
Y173300D02*
X224400D01*
X207400Y182300D02*
X224400D01*
X355350Y304800D02*
Y381000D01*
X330450Y304800D02*
Y381000D01*
X355350D01*
X330450Y304800D02*
X355350D01*
X317250D02*
Y381000D01*
X292350Y304800D02*
Y381000D01*
X317250D01*
X292350Y304800D02*
X317250D01*
X223850Y416550D02*
Y434050D01*
X233350Y416550D02*
Y434050D01*
X223850Y416550D02*
X233350D01*
X223850Y434050D02*
X233350D01*
X279150Y304800D02*
Y381000D01*
X254250Y304800D02*
Y381000D01*
X279150D01*
X254250Y304800D02*
X279150D01*
X261950Y416550D02*
Y434050D01*
X271450Y416550D02*
Y434050D01*
X261950Y416550D02*
X271450D01*
X261950Y434050D02*
X271450D01*
X338150Y416550D02*
Y434050D01*
X347650Y416550D02*
Y434050D01*
X338150Y416550D02*
X347650D01*
X338150Y434050D02*
X347650D01*
X300050Y416850D02*
Y434350D01*
X309550Y416850D02*
Y434350D01*
X300050Y416850D02*
X309550D01*
X300050Y434350D02*
X309550D01*
X241050Y304800D02*
Y381000D01*
X216150Y304800D02*
Y381000D01*
X241050D01*
X216150Y304800D02*
X241050D01*
X744845Y400700D02*
X790545D01*
X744845Y361300D02*
X790545D01*
X744845D02*
Y400700D01*
X790545Y361300D02*
Y400700D01*
X655150Y390200D02*
X700650D01*
X655150D02*
Y422600D01*
X700650D01*
Y390200D02*
Y422600D01*
X-85400Y225100D02*
X34600D01*
Y105100D02*
Y225100D01*
X-85400Y105100D02*
X34600D01*
X-85400D02*
Y225100D01*
Y364800D02*
X34600D01*
Y244800D02*
Y364800D01*
X-85400Y244800D02*
X34600D01*
X-85400D02*
Y364800D01*
D13*
X726250Y515900D02*
X797750D01*
Y427900D02*
Y515900D01*
X726250Y427900D02*
X797750D01*
X726250D02*
Y515900D01*
X812000Y447600D02*
Y457600D01*
X802000Y452600D02*
X812000Y447600D01*
X802000Y452600D02*
X812000Y457600D01*
M02*
